<svg xmlns="http://www.w3.org/2000/svg" xmlns:xlink="http://www.w3.org/1999/xlink" width="52" zoomAndPan="magnify" viewBox="0 0 39 15.75" height="21" preserveAspectRatio="xMidYMid meet" version="1.0"><defs><g/><clipPath id="3d48503763"><path d="M 0.375 0.417969 L 32.269531 0.417969 L 32.269531 12.464844 L 0.375 12.464844 Z M 0.375 0.417969 " clip-rule="nonzero"/></clipPath><clipPath id="13bc9c3c0e"><path d="M 0.375 3 L 5 3 L 5 10 L 0.375 10 Z M 0.375 3 " clip-rule="nonzero"/></clipPath><clipPath id="89254481ea"><rect x="0" width="33" y="0" height="13"/></clipPath><clipPath id="6f9f79a330"><path d="M 3.816406 5.851562 L 4.667969 5.851562 L 4.667969 6.90625 L 3.816406 6.90625 Z M 3.816406 5.851562 " clip-rule="nonzero"/></clipPath><clipPath id="549b87bfe7"><path d="M 4.242188 5.851562 C 4.003906 5.851562 3.816406 6.089844 3.816406 6.378906 C 3.816406 6.671875 4.003906 6.90625 4.242188 6.90625 C 4.476562 6.90625 4.667969 6.671875 4.667969 6.378906 C 4.667969 6.089844 4.476562 5.851562 4.242188 5.851562 Z M 4.242188 5.851562 " clip-rule="nonzero"/></clipPath><clipPath id="d5d47f5688"><path d="M 0.816406 0.851562 L 1.667969 0.851562 L 1.667969 1.90625 L 0.816406 1.90625 Z M 0.816406 0.851562 " clip-rule="nonzero"/></clipPath><clipPath id="ea7f6c0ef1"><path d="M 1.242188 0.851562 C 1.003906 0.851562 0.816406 1.089844 0.816406 1.378906 C 0.816406 1.671875 1.003906 1.90625 1.242188 1.90625 C 1.476562 1.90625 1.667969 1.671875 1.667969 1.378906 C 1.667969 1.089844 1.476562 0.851562 1.242188 0.851562 Z M 1.242188 0.851562 " clip-rule="nonzero"/></clipPath><clipPath id="eaa6517787"><rect x="0" width="2" y="0" height="2"/></clipPath><clipPath id="7ad9ef9df8"><path d="M 31.121094 5.851562 L 32.039062 5.851562 L 32.039062 6.914062 L 31.121094 6.914062 Z M 31.121094 5.851562 " clip-rule="nonzero"/></clipPath><clipPath id="218a184596"><path d="M 31.578125 5.851562 C 31.328125 5.851562 31.121094 6.089844 31.121094 6.382812 C 31.121094 6.675781 31.328125 6.914062 31.578125 6.914062 C 31.832031 6.914062 32.039062 6.675781 32.039062 6.382812 C 32.039062 6.089844 31.832031 5.851562 31.578125 5.851562 Z M 31.578125 5.851562 " clip-rule="nonzero"/></clipPath><clipPath id="4c17faba25"><path d="M 0.121094 0.851562 L 1.039062 0.851562 L 1.039062 1.914062 L 0.121094 1.914062 Z M 0.121094 0.851562 " clip-rule="nonzero"/></clipPath><clipPath id="b706493a74"><path d="M 0.578125 0.851562 C 0.328125 0.851562 0.121094 1.089844 0.121094 1.382812 C 0.121094 1.675781 0.328125 1.914062 0.578125 1.914062 C 0.832031 1.914062 1.039062 1.675781 1.039062 1.382812 C 1.039062 1.089844 0.832031 0.851562 0.578125 0.851562 Z M 0.578125 0.851562 " clip-rule="nonzero"/></clipPath><clipPath id="362b7248b3"><rect x="0" width="2" y="0" height="2"/></clipPath><clipPath id="ffcc32d5c9"><rect x="0" width="33" y="0" height="13"/></clipPath></defs><g transform="matrix(1, 0, 0, 1, 3, 1)"><g clip-path="url(#ffcc32d5c9)"><g clip-path="url(#3d48503763)"><g transform="matrix(1, 0, 0, 1, 0.000000000000000444, 0)"><g clip-path="url(#89254481ea)"><g clip-path="url(#13bc9c3c0e)"><g fill="#fefefe" fill-opacity="1"><g transform="translate(0.41574, 9.059961)"><g><path d="M 1.875 0 C 1.570312 0 1.300781 -0.0664062 1.0625 -0.203125 C 0.820312 -0.347656 0.628906 -0.535156 0.484375 -0.765625 C 0.335938 -0.992188 0.265625 -1.257812 0.265625 -1.5625 C 0.265625 -1.78125 0.3125 -1.984375 0.40625 -2.171875 C 0.507812 -2.367188 0.644531 -2.539062 0.8125 -2.6875 C 0.65625 -2.820312 0.53125 -2.984375 0.4375 -3.171875 C 0.34375 -3.359375 0.296875 -3.554688 0.296875 -3.765625 C 0.296875 -4.054688 0.363281 -4.316406 0.5 -4.546875 C 0.644531 -4.773438 0.832031 -4.953125 1.0625 -5.078125 C 1.300781 -5.210938 1.566406 -5.28125 1.859375 -5.28125 L 4.078125 -5.28125 L 4.078125 -4.21875 L 2.046875 -4.21875 C 1.953125 -4.21875 1.863281 -4.195312 1.78125 -4.15625 C 1.707031 -4.113281 1.644531 -4.050781 1.59375 -3.96875 C 1.550781 -3.894531 1.53125 -3.8125 1.53125 -3.71875 C 1.53125 -3.613281 1.550781 -3.519531 1.59375 -3.4375 C 1.644531 -3.363281 1.707031 -3.304688 1.78125 -3.265625 C 1.863281 -3.222656 1.953125 -3.203125 2.046875 -3.203125 L 3.828125 -3.203125 L 3.828125 -2.15625 L 2.09375 -2.15625 C 1.988281 -2.15625 1.890625 -2.128906 1.796875 -2.078125 C 1.710938 -2.023438 1.644531 -1.957031 1.59375 -1.875 C 1.550781 -1.800781 1.53125 -1.707031 1.53125 -1.59375 C 1.53125 -1.5 1.550781 -1.410156 1.59375 -1.328125 C 1.644531 -1.242188 1.710938 -1.175781 1.796875 -1.125 C 1.890625 -1.082031 1.988281 -1.0625 2.09375 -1.0625 L 4.078125 -1.0625 L 4.078125 0 Z M 1.875 0 "/></g></g></g></g><g fill="#fefefe" fill-opacity="1"><g transform="translate(4.793921, 9.059961)"><g><path d="M 0.453125 0 L 0.453125 -5.28125 L 2.40625 -5.28125 C 2.957031 -5.28125 3.4375 -5.164062 3.84375 -4.9375 C 4.257812 -4.71875 4.582031 -4.40625 4.8125 -4 C 5.039062 -3.601562 5.15625 -3.148438 5.15625 -2.640625 C 5.15625 -2.128906 5.039062 -1.671875 4.8125 -1.265625 C 4.582031 -0.867188 4.257812 -0.554688 3.84375 -0.328125 C 3.4375 -0.109375 2.957031 0 2.40625 0 Z M 1.734375 -1.0625 L 2.375 -1.0625 C 2.664062 -1.0625 2.925781 -1.125 3.15625 -1.25 C 3.382812 -1.375 3.5625 -1.554688 3.6875 -1.796875 C 3.820312 -2.035156 3.890625 -2.316406 3.890625 -2.640625 C 3.890625 -2.960938 3.820312 -3.242188 3.6875 -3.484375 C 3.5625 -3.722656 3.382812 -3.90625 3.15625 -4.03125 C 2.925781 -4.15625 2.664062 -4.21875 2.375 -4.21875 L 1.734375 -4.21875 Z M 1.734375 -1.0625 "/></g></g></g><g fill="#fefefe" fill-opacity="1"><g transform="translate(10.160968, 9.059961)"><g><path d="M 0.34375 0 L 0.34375 -1.0625 L 1.25 -1.0625 L 1.25 -4.21875 L 0.34375 -4.21875 L 0.34375 -5.28125 L 3.421875 -5.28125 L 3.421875 -4.21875 L 2.515625 -4.21875 L 2.515625 -1.0625 L 3.421875 -1.0625 L 3.421875 0 Z M 0.34375 0 "/></g></g></g><g fill="#fefefe" fill-opacity="1"><g transform="translate(13.927712, 9.059961)"><g><path d="M 4.1875 0.09375 C 3.863281 0.09375 3.578125 0.0234375 3.328125 -0.109375 C 3.078125 -0.253906 2.878906 -0.445312 2.734375 -0.6875 C 2.585938 -0.9375 2.515625 -1.21875 2.515625 -1.53125 L 2.515625 -3.84375 C 2.515625 -3.925781 2.492188 -4 2.453125 -4.0625 C 2.410156 -4.125 2.359375 -4.175781 2.296875 -4.21875 C 2.234375 -4.257812 2.160156 -4.28125 2.078125 -4.28125 C 1.992188 -4.28125 1.921875 -4.257812 1.859375 -4.21875 C 1.796875 -4.175781 1.742188 -4.125 1.703125 -4.0625 C 1.660156 -4 1.640625 -3.925781 1.640625 -3.84375 L 1.640625 0 L 0.40625 0 L 0.40625 -3.75 C 0.40625 -4.0625 0.476562 -4.335938 0.625 -4.578125 C 0.769531 -4.828125 0.96875 -5.019531 1.21875 -5.15625 C 1.46875 -5.300781 1.753906 -5.375 2.078125 -5.375 C 2.398438 -5.375 2.6875 -5.300781 2.9375 -5.15625 C 3.1875 -5.019531 3.382812 -4.828125 3.53125 -4.578125 C 3.675781 -4.335938 3.75 -4.0625 3.75 -3.75 L 3.75 -1.4375 C 3.75 -1.363281 3.769531 -1.289062 3.8125 -1.21875 C 3.851562 -1.144531 3.90625 -1.085938 3.96875 -1.046875 C 4.03125 -1.015625 4.097656 -1 4.171875 -1 C 4.253906 -1 4.328125 -1.015625 4.390625 -1.046875 C 4.460938 -1.085938 4.519531 -1.144531 4.5625 -1.21875 C 4.601562 -1.289062 4.625 -1.363281 4.625 -1.4375 L 4.625 -5.28125 L 5.84375 -5.28125 L 5.84375 -1.53125 C 5.84375 -1.21875 5.769531 -0.9375 5.625 -0.6875 C 5.476562 -0.445312 5.28125 -0.253906 5.03125 -0.109375 C 4.78125 0.0234375 4.5 0.09375 4.1875 0.09375 Z M 4.1875 0.09375 "/></g></g></g><g fill="#fefefe" fill-opacity="1"><g transform="translate(20.19304, 9.059961)"><g><path d="M 0.34375 0 L 0.34375 -1.0625 L 1.25 -1.0625 L 1.25 -4.21875 L 0.34375 -4.21875 L 0.34375 -5.28125 L 3.421875 -5.28125 L 3.421875 -4.21875 L 2.515625 -4.21875 L 2.515625 -1.0625 L 3.421875 -1.0625 L 3.421875 0 Z M 0.34375 0 "/></g></g></g><g fill="#fefefe" fill-opacity="1"><g transform="translate(23.393641, 9.059961)"><g><path d="M 3.171875 0 C 2.847656 0 2.566406 -0.0703125 2.328125 -0.21875 C 2.085938 -0.363281 1.894531 -0.554688 1.75 -0.796875 C 1.613281 -1.035156 1.546875 -1.300781 1.546875 -1.59375 L 1.546875 -4.21875 L 0.109375 -4.21875 L 0.109375 -5.28125 L 4.234375 -5.28125 L 4.234375 -4.21875 L 2.8125 -4.21875 L 2.8125 -1.484375 C 2.8125 -1.367188 2.851562 -1.269531 2.9375 -1.1875 C 3.019531 -1.101562 3.117188 -1.0625 3.234375 -1.0625 L 3.65625 -1.0625 L 3.65625 0 Z M 3.171875 0 "/></g></g></g><g fill="#fefefe" fill-opacity="1"><g transform="translate(27.749177, 9.059961)"><g><path d="M 1.875 0 C 1.570312 0 1.300781 -0.0664062 1.0625 -0.203125 C 0.820312 -0.347656 0.628906 -0.535156 0.484375 -0.765625 C 0.335938 -0.992188 0.265625 -1.257812 0.265625 -1.5625 C 0.265625 -1.78125 0.3125 -1.984375 0.40625 -2.171875 C 0.507812 -2.367188 0.644531 -2.539062 0.8125 -2.6875 C 0.65625 -2.820312 0.53125 -2.984375 0.4375 -3.171875 C 0.34375 -3.359375 0.296875 -3.554688 0.296875 -3.765625 C 0.296875 -4.054688 0.363281 -4.316406 0.5 -4.546875 C 0.644531 -4.773438 0.832031 -4.953125 1.0625 -5.078125 C 1.300781 -5.210938 1.566406 -5.28125 1.859375 -5.28125 L 4.078125 -5.28125 L 4.078125 -4.21875 L 2.046875 -4.21875 C 1.953125 -4.21875 1.863281 -4.195312 1.78125 -4.15625 C 1.707031 -4.113281 1.644531 -4.050781 1.59375 -3.96875 C 1.550781 -3.894531 1.53125 -3.8125 1.53125 -3.71875 C 1.53125 -3.613281 1.550781 -3.519531 1.59375 -3.4375 C 1.644531 -3.363281 1.707031 -3.304688 1.78125 -3.265625 C 1.863281 -3.222656 1.953125 -3.203125 2.046875 -3.203125 L 3.828125 -3.203125 L 3.828125 -2.15625 L 2.09375 -2.15625 C 1.988281 -2.15625 1.890625 -2.128906 1.796875 -2.078125 C 1.710938 -2.023438 1.644531 -1.957031 1.59375 -1.875 C 1.550781 -1.800781 1.53125 -1.707031 1.53125 -1.59375 C 1.53125 -1.5 1.550781 -1.410156 1.59375 -1.328125 C 1.644531 -1.242188 1.710938 -1.175781 1.796875 -1.125 C 1.890625 -1.082031 1.988281 -1.0625 2.09375 -1.0625 L 4.078125 -1.0625 L 4.078125 0 Z M 1.875 0 "/></g></g></g></g></g></g><g clip-path="url(#6f9f79a330)"><g clip-path="url(#549b87bfe7)"><g transform="matrix(1, 0, 0, 1, 3, 5)"><g clip-path="url(#eaa6517787)"><g clip-path="url(#d5d47f5688)"><g clip-path="url(#ea7f6c0ef1)"><path fill="#ffffff" d="M 0.816406 0.851562 L 1.667969 0.851562 L 1.667969 1.90625 L 0.816406 1.90625 Z M 0.816406 0.851562 " fill-opacity="1" fill-rule="nonzero"/></g></g></g></g></g></g><g clip-path="url(#7ad9ef9df8)"><g clip-path="url(#218a184596)"><g transform="matrix(1, 0, 0, 1, 31, 5)"><g clip-path="url(#362b7248b3)"><g clip-path="url(#4c17faba25)"><g clip-path="url(#b706493a74)"><path fill="#ffffff" d="M 0.121094 0.851562 L 1.039062 0.851562 L 1.039062 1.910156 L 0.121094 1.910156 Z M 0.121094 0.851562 " fill-opacity="1" fill-rule="nonzero"/></g></g></g></g></g></g></g></g></svg>