<svg xmlns="http://www.w3.org/2000/svg" xmlns:xlink="http://www.w3.org/1999/xlink" width="50" zoomAndPan="magnify" viewBox="0 0 37.5 36.75" height="49" preserveAspectRatio="xMidYMid meet" version="1.0"><defs><clipPath id="ed9507e7e4"><path d="M 0 0.117188 L 37.007812 0.117188 L 37.007812 36.386719 L 0 36.386719 Z M 0 0.117188 " clip-rule="nonzero"/></clipPath><clipPath id="57f2620f42"><path d="M 22.628906 18.9375 L 23.25 18.9375 L 23.25 19.84375 L 22.628906 19.84375 Z M 22.628906 18.9375 " clip-rule="nonzero"/></clipPath><clipPath id="4f6861b246"><path d="M 0.628906 0.9375 L 1.25 0.9375 L 1.25 1.84375 L 0.628906 1.84375 Z M 0.628906 0.9375 " clip-rule="nonzero"/></clipPath><clipPath id="c88c455259"><rect x="0" width="2" y="0" height="2"/></clipPath><clipPath id="2695374841"><path d="M 0 9 L 6 9 L 6 20 L 0 20 Z M 0 9 " clip-rule="nonzero"/></clipPath><clipPath id="605598943d"><path d="M 0 4 L 6 4 L 6 16 L 0 16 Z M 0 4 " clip-rule="nonzero"/></clipPath><clipPath id="a71a7475db"><path d="M 0 22 L 7 22 L 7 33 L 0 33 Z M 0 22 " clip-rule="nonzero"/></clipPath><clipPath id="0be130d137"><path d="M 0 16 L 6 16 L 6 26 L 0 26 Z M 0 16 " clip-rule="nonzero"/></clipPath><clipPath id="f530f9e812"><path d="M 0 0.117188 L 36 0.117188 L 36 36.386719 L 0 36.386719 Z M 0 0.117188 " clip-rule="nonzero"/></clipPath><clipPath id="236d7b55fa"><path d="M 0 0.117188 L 37.007812 0.117188 L 37.007812 36.386719 L 0 36.386719 Z M 0 0.117188 " clip-rule="nonzero"/></clipPath><clipPath id="951125dc61"><path d="M 0 0.117188 L 35 0.117188 L 35 36.386719 L 0 36.386719 Z M 0 0.117188 " clip-rule="nonzero"/></clipPath><clipPath id="9f22db5248"><path d="M 0 0.117188 L 37.007812 0.117188 L 37.007812 36.386719 L 0 36.386719 Z M 0 0.117188 " clip-rule="nonzero"/></clipPath><clipPath id="41362daf12"><path d="M 17.078125 15.105469 L 19.976562 15.105469 L 19.976562 20.617188 L 17.078125 20.617188 Z M 17.078125 15.105469 " clip-rule="nonzero"/></clipPath><clipPath id="e3a50f9448"><path d="M 17.078125 20.617188 C 18.65625 20.617188 19.976562 19.359375 19.976562 17.859375 C 19.976562 16.359375 18.65625 15.105469 17.078125 15.105469 Z M 17.078125 20.617188 " clip-rule="nonzero"/></clipPath><clipPath id="3320d0726b"><path d="M 0.078125 0.105469 L 2.976562 0.105469 L 2.976562 5.617188 L 0.078125 5.617188 Z M 0.078125 0.105469 " clip-rule="nonzero"/></clipPath><clipPath id="42980a6669"><path d="M 0.078125 5.617188 C 1.65625 5.617188 2.976562 4.359375 2.976562 2.859375 C 2.976562 1.359375 1.65625 0.105469 0.078125 0.105469 Z M 0.078125 5.617188 " clip-rule="nonzero"/></clipPath><clipPath id="c3c544866e"><rect x="0" width="3" y="0" height="6"/></clipPath><clipPath id="e557f3bea6"><path d="M 6.292969 22.480469 L 6.6875 22.480469 L 6.6875 24.308594 L 6.292969 24.308594 Z M 6.292969 22.480469 " clip-rule="nonzero"/></clipPath><clipPath id="d8b01840ec"><path d="M 0.292969 0.480469 L 0.6875 0.480469 L 0.6875 2.308594 L 0.292969 2.308594 Z M 0.292969 0.480469 " clip-rule="nonzero"/></clipPath><clipPath id="3c40f3325a"><rect x="0" width="1" y="0" height="3"/></clipPath><clipPath id="73663b2282"><path d="M 6.292969 11.777344 L 6.6875 11.777344 L 6.6875 13.605469 L 6.292969 13.605469 Z M 6.292969 11.777344 " clip-rule="nonzero"/></clipPath><clipPath id="d3b5cd5ef5"><path d="M 0.292969 0.777344 L 0.6875 0.777344 L 0.6875 2.605469 L 0.292969 2.605469 Z M 0.292969 0.777344 " clip-rule="nonzero"/></clipPath><clipPath id="759b9c9e01"><rect x="0" width="1" y="0" height="3"/></clipPath><clipPath id="f076a4d227"><path d="M 8.183594 15.132812 L 9.164062 15.132812 L 9.164062 15.945312 L 8.183594 15.945312 Z M 8.183594 15.132812 " clip-rule="nonzero"/></clipPath><clipPath id="d53a3be0fe"><path d="M 0.183594 0.132812 L 1.164062 0.132812 L 1.164062 0.945312 L 0.183594 0.945312 Z M 0.183594 0.132812 " clip-rule="nonzero"/></clipPath><clipPath id="f5107db251"><rect x="0" width="2" y="0" height="1"/></clipPath><clipPath id="a4e6aa9f08"><path d="M 1.199219 24.308594 L 2.175781 24.308594 L 2.175781 25.121094 L 1.199219 25.121094 Z M 1.199219 24.308594 " clip-rule="nonzero"/></clipPath><clipPath id="b93d7a7d9e"><path d="M 0.199219 0.308594 L 1.175781 0.308594 L 1.175781 1.121094 L 0.199219 1.121094 Z M 0.199219 0.308594 " clip-rule="nonzero"/></clipPath><clipPath id="c40fc3ba11"><rect x="0" width="2" y="0" height="2"/></clipPath><clipPath id="1a46abb473"><path d="M 1 15 L 5 15 L 5 19 L 1 19 Z M 1 15 " clip-rule="nonzero"/></clipPath><clipPath id="eaabf14a50"><path d="M 2.6875 15.539062 L 4.074219 17.8125 L 3.378906 18.238281 L 1.992188 15.960938 Z M 2.6875 15.539062 " clip-rule="nonzero"/></clipPath><clipPath id="783c654582"><path d="M 0.894531 0.511719 L 3.261719 0.511719 L 3.261719 3.355469 L 0.894531 3.355469 Z M 0.894531 0.511719 " clip-rule="nonzero"/></clipPath><clipPath id="0273f3f78b"><path d="M 1.6875 0.539062 L 3.074219 2.8125 L 2.378906 3.238281 L 0.992188 0.960938 Z M 1.6875 0.539062 " clip-rule="nonzero"/></clipPath><clipPath id="cf343a78f9"><rect x="0" width="4" y="0" height="4"/></clipPath><clipPath id="1789a48d6d"><path d="M 6.492188 24.34375 L 6.859375 24.34375 L 6.859375 25.089844 L 6.492188 25.089844 Z M 6.492188 24.34375 " clip-rule="nonzero"/></clipPath><clipPath id="0ed798c91d"><path d="M 0.492188 0.34375 L 0.859375 0.34375 L 0.859375 1.089844 L 0.492188 1.089844 Z M 0.492188 0.34375 " clip-rule="nonzero"/></clipPath><clipPath id="69a61dc806"><rect x="0" width="1" y="0" height="2"/></clipPath><clipPath id="db4093201c"><path d="M 0 0.117188 L 37.007812 0.117188 L 37.007812 36.386719 L 0 36.386719 Z M 0 0.117188 " clip-rule="nonzero"/></clipPath><clipPath id="c1776b703f"><rect x="0" width="38" y="0" height="37"/></clipPath></defs><g clip-path="url(#ed9507e7e4)"><g transform="matrix(1, 0, 0, 1, 0, -0.000000000000002984)"><g clip-path="url(#c1776b703f)"><path stroke-linecap="butt" transform="matrix(0.00669341, 0.00315876, -0.00315876, 0.00669341, 21.816854, 15.288893)" fill="none" stroke-linejoin="miter" d="M -0.0124337 29.794661 L 485.621417 29.967385 " stroke="#ffffff" stroke-width="60" stroke-opacity="1" stroke-miterlimit="4"/><path stroke-linecap="butt" transform="matrix(-0.00664902, 0.00325116, -0.00325116, -0.00664902, 25.299458, 18.875018)" fill="none" stroke-linejoin="miter" d="M 0.0161956 19.985355 L 528.269002 19.787132 " stroke="#ffffff" stroke-width="40" stroke-opacity="1" stroke-miterlimit="4"/><path stroke-linecap="butt" transform="matrix(0.0000538594, 0.00740112, -0.00740112, 0.0000538594, 22.027804, 15.746489)" fill="none" stroke-linejoin="miter" d="M 21.294119 112.636788 C 198.713353 28.953422 375.521924 29.184508 552.779203 112.809965 " stroke="#ffffff" stroke-width="100" stroke-opacity="1" stroke-miterlimit="4"/><path stroke-linecap="butt" transform="matrix(-0.00578884, -0.00461181, 0.00461181, -0.00578884, 21.862754, 21.168052)" fill="none" stroke-linejoin="miter" d="M 89.807913 480.445091 C 123.176159 -40.084773 156.970357 -40.016113 190.11999 480.154344 " stroke="#ffffff" stroke-width="180" stroke-opacity="1" stroke-miterlimit="4"/><path stroke-linecap="butt" transform="matrix(0.00556237, -0.00488257, 0.00488257, 0.00556237, 20.212458, 16.040755)" fill="none" stroke-linejoin="miter" d="M 89.601275 480.041074 C 123.437542 -40.130157 157.09963 -40.077122 190.587541 480.200179 " stroke="#ffffff" stroke-width="180" stroke-opacity="1" stroke-miterlimit="4"/><path stroke-linecap="butt" transform="matrix(-0.0000157367, 0.0074013, -0.0074013, -0.0000157367, 25.979817, 16.064235)" fill="none" stroke-linejoin="miter" d="M 78.348458 469.996468 C 192.298428 -50.108127 306.299299 -49.822738 420.349947 470.32486 " stroke="#ffffff" stroke-width="160" stroke-opacity="1" stroke-miterlimit="4"/><path stroke-linecap="butt" transform="matrix(0.00556237, -0.00488257, 0.00488257, 0.00556237, 21.090636, 16.842504)" fill="none" stroke-linejoin="miter" d="M 89.761463 480.007728 C 123.59773 -40.163503 157.259818 -40.110469 190.747728 480.166833 " stroke="#ffffff" stroke-width="180" stroke-opacity="1" stroke-miterlimit="4"/><g clip-path="url(#57f2620f42)"><g transform="matrix(1, 0, 0, 1, 22, 18)"><g clip-path="url(#c88c455259)"><g clip-path="url(#4f6861b246)"><path fill="#ffffff" d="M 0.628906 0.9375 L 1.25 0.9375 L 1.25 1.84375 L 0.628906 1.84375 Z M 0.628906 0.9375 " fill-opacity="1" fill-rule="nonzero"/></g></g></g></g><path stroke-linecap="butt" transform="matrix(0.00740132, 0, 0, 0.00740132, 8.632606, 4.039848)" fill="none" stroke-linejoin="miter" d="M 0.0278495 19.949421 L 860.833441 19.949421 " stroke="#ffffff" stroke-width="40" stroke-opacity="1" stroke-miterlimit="4"/><path stroke-linecap="butt" transform="matrix(0.00740131, 0.00000439947, -0.00000439947, 0.00740131, 8.77923, 31.395471)" fill="none" stroke-linejoin="miter" d="M -0.243054 19.928787 L 841.034937 19.956495 " stroke="#ffffff" stroke-width="40" stroke-opacity="1" stroke-miterlimit="4"/><path stroke-linecap="butt" transform="matrix(0.00740128, 0.0000222374, -0.0000222374, 0.00740128, 8.850915, 31.67302)" fill="none" stroke-linejoin="miter" d="M 0.0917303 1.428371 L 831.873742 1.568153 " stroke="#ffffff" stroke-width="3" stroke-opacity="1" stroke-miterlimit="4"/><path stroke-linecap="butt" transform="matrix(0.00740132, 0, 0, 0.00740132, 6.647813, 9.327495)" fill="none" stroke-linejoin="miter" d="M 1438.806625 784.362902 L 329.945468 784.362902 C 158.945461 784.362902 20.1399 645.557341 20.1399 474.557334 L 20.1399 329.946217 C 20.1399 158.94621 158.945461 20.140648 329.945468 20.140648 L 1129.001057 20.140648 " stroke="#ffffff" stroke-width="40" stroke-opacity="1" stroke-miterlimit="4"/><path stroke-linecap="butt" transform="matrix(0.00740132, 0, 0, 0.00740132, 6.60736, 20.406152)" fill="none" stroke-linejoin="miter" d="M 1111.24453 784.291014 L 330.133386 784.291014 C 158.605601 784.291014 19.80004 645.485453 19.80004 474.485446 L 19.80004 329.874329 C 19.80004 158.874322 158.605601 20.06876 330.133386 20.06876 L 1444.272321 20.06876 " stroke="#ffffff" stroke-width="40" stroke-opacity="1" stroke-miterlimit="4"/><path stroke-linecap="butt" transform="matrix(-0.00528749, 0.00517898, -0.00517898, -0.00528749, 20.741816, 18.555596)" fill="none" stroke-linejoin="miter" d="M 13.767669 151.807213 C 198.552421 -24.026833 374.337292 -23.983156 540.745237 151.568936 " stroke="#ffffff" stroke-width="40" stroke-opacity="1" stroke-miterlimit="4"/><path stroke-linecap="butt" transform="matrix(0.00532308, 0.0051424, -0.0051424, 0.00532308, 17.77871, 14.277887)" fill="none" stroke-linejoin="miter" d="M 14.075971 147.009226 C 188.696314 -22.418086 362.630933 -22.401339 537.372385 147.085234 " stroke="#ffffff" stroke-width="40" stroke-opacity="1" stroke-miterlimit="4"/><path stroke-linecap="butt" transform="matrix(0, -0.00740132, 0.00740132, 0, 14.461188, 9.61654)" fill="none" stroke-linejoin="miter" d="M -0.087433 36.382787 L 733.523709 36.382787 " stroke="#ffffff" stroke-width="73" stroke-opacity="1" stroke-miterlimit="4"/><path stroke-linecap="butt" transform="matrix(0.0000215675, -0.00740128, 0.00740128, 0.0000215675, 14.714861, 31.711049)" fill="none" stroke-linejoin="miter" d="M 0.0735267 20.053152 L 763.243169 19.940384 " stroke="#ffffff" stroke-width="40" stroke-opacity="1" stroke-miterlimit="4"/><g clip-path="url(#2695374841)"><path stroke-linecap="butt" transform="matrix(-0.0020211, -0.00712002, 0.00712002, -0.0020211, 2.406631, 18.379654)" fill="none" stroke-linejoin="miter" d="M 8.904219 139.082722 C 333.848497 -19.950495 659.138181 -19.783163 984.409673 138.932875 " stroke="#ffffff" stroke-width="40" stroke-opacity="1" stroke-miterlimit="4"/></g><g clip-path="url(#605598943d)"><path stroke-linecap="butt" transform="matrix(0.00200387, -0.00712488, 0.00712488, 0.00200387, 0.245684, 13.898616)" fill="none" stroke-linejoin="miter" d="M 9.453315 160.230388 C 363.718086 -26.57907 718.443294 -26.563198 1073.120873 160.420898 " stroke="#ffffff" stroke-width="40" stroke-opacity="1" stroke-miterlimit="4"/></g><path stroke-linecap="butt" transform="matrix(0.00658565, -0.00337768, 0.00337768, 0.00658565, 2.499467, 6.351127)" fill="none" stroke-linejoin="miter" d="M 9.061608 132.833309 C 305.656187 -17.552138 602.833069 -17.572965 899.881781 132.999582 " stroke="#ffffff" stroke-width="40" stroke-opacity="1" stroke-miterlimit="4"/><path stroke-linecap="butt" transform="matrix(-0.00674941, -0.00303725, 0.00303725, -0.00674941, 8.614655, 32.260214)" fill="none" stroke-linejoin="miter" d="M 7.473881 102.325752 C 270.62001 -7.409349 552.440493 -7.482125 852.935328 102.107425 " stroke="#ffffff" stroke-width="40" stroke-opacity="1" stroke-miterlimit="4"/><g clip-path="url(#a71a7475db)"><path stroke-linecap="butt" transform="matrix(-0.00383063, -0.00633291, 0.00633291, -0.00383063, 4.127822, 31.219924)" fill="none" stroke-linejoin="miter" d="M 9.851829 172.671135 C 362.498028 -30.989954 715.320554 -30.994526 1067.594658 172.835854 " stroke="#ffffff" stroke-width="40" stroke-opacity="1" stroke-miterlimit="4"/></g><g clip-path="url(#0be130d137)"><path stroke-linecap="butt" transform="matrix(0.00273026, -0.00687933, 0.00687933, 0.00273026, 0.327899, 23.753368)" fill="none" stroke-linejoin="miter" d="M 7.774639 112.783469 C 305.0666 -10.883754 604.770393 -11.154633 906.590154 112.656079 " stroke="#ffffff" stroke-width="40" stroke-opacity="1" stroke-miterlimit="4"/></g><path stroke-linecap="butt" transform="matrix(0.00740132, -0.000000000000000002, 0.000000000000000002, 0.00740132, 8.981179, 4.288632)" fill="none" stroke-linejoin="miter" d="M -0.0959903 349.974875 L 769.404042 349.974875 " stroke="#ffffff" stroke-width="700" stroke-opacity="1" stroke-miterlimit="4"/><g clip-path="url(#f530f9e812)"><path stroke-linecap="butt" transform="matrix(0.00218107, -0.00707265, 0.00707265, 0.00218107, 0.455245, 13.786997)" fill="none" stroke-linejoin="miter" d="M 160.774269 456.030584 C 417.259101 327.780607 674.173985 328.084714 930.199181 456.24528 " stroke="#ffffff" stroke-width="720" stroke-opacity="1" stroke-miterlimit="4"/></g><g clip-path="url(#236d7b55fa)"><path stroke-linecap="butt" transform="matrix(0.00702378, -0.00233368, 0.00233368, 0.00702378, 2.887659, 5.891791)" fill="none" stroke-linejoin="miter" d="M 158.58715 451.282445 C 415.318659 323.022153 671.674187 323.106846 928.321002 451.202082 " stroke="#ffffff" stroke-width="710" stroke-opacity="1" stroke-miterlimit="4"/><path stroke-linecap="butt" transform="matrix(-0.00472495, -0.00569687, 0.00569687, -0.00472495, 5.751362, 20.667486)" fill="none" stroke-linejoin="miter" d="M 158.703337 450.917183 C 415.123147 322.805521 671.503661 322.884116 928.251112 451.489897 " stroke="#ffffff" stroke-width="710" stroke-opacity="1" stroke-miterlimit="4"/><path stroke-linecap="butt" transform="matrix(-0.00501184, -0.00544618, 0.00544618, -0.00501184, 5.923741, 31.876574)" fill="none" stroke-linejoin="miter" d="M 133.238711 475.154818 C 508.507232 328.464693 768.461029 328.126765 912.773687 475.275139 " stroke="#ffffff" stroke-width="730" stroke-opacity="1" stroke-miterlimit="4"/></g><g clip-path="url(#951125dc61)"><path stroke-linecap="butt" transform="matrix(0.000496766, -0.00738463, 0.00738463, 0.000496766, 1.028042, 26.247079)" fill="none" stroke-linejoin="miter" d="M 137.230621 426.016733 C 350.840607 338.120206 565.065053 337.99147 778.886207 426.227959 " stroke="#ffffff" stroke-width="720" stroke-opacity="1" stroke-miterlimit="4"/></g><g clip-path="url(#9f22db5248)"><path stroke-linecap="butt" transform="matrix(0.0046562, -0.0057532, 0.0057532, 0.0046562, 0.831792, 21.02815)" fill="none" stroke-linejoin="miter" d="M 146.204346 443.902432 C 397.385136 332.276791 648.454804 332.092225 899.003096 443.680763 " stroke="#ffffff" stroke-width="720" stroke-opacity="1" stroke-miterlimit="4"/><path stroke-linecap="butt" transform="matrix(-0.00730689, -0.00117847, 0.00117847, -0.00730689, 11.53194, 31.967114)" fill="none" stroke-linejoin="miter" d="M 119.422951 418.351075 C 356.481828 333.607685 593.35514 333.895309 830.479897 418.608866 " stroke="#ffffff" stroke-width="710" stroke-opacity="1" stroke-miterlimit="4"/><path stroke-linecap="butt" transform="matrix(0.00740131, 0.00000370636, -0.00000370636, 0.00740131, 9.927815, 26.319737)" fill="none" stroke-linejoin="miter" d="M -0.0994881 349.994593 L 651.706279 350.195966 " stroke="#ffffff" stroke-width="700" stroke-opacity="1" stroke-miterlimit="4"/></g><path stroke-linecap="butt" transform="matrix(0.00740132, -0.000000000000000004, 0.000000000000000004, 0.00740132, 3.762461, 15.268385)" fill="none" stroke-linejoin="miter" d="M -0.10035 354.821487 L 1822.84417 354.821487 " stroke="#ffffff" stroke-width="710" stroke-opacity="1" stroke-miterlimit="4"/><g clip-path="url(#41362daf12)"><g clip-path="url(#e3a50f9448)"><g transform="matrix(1, 0, 0, 1, 17, 15)"><g clip-path="url(#c3c544866e)"><g clip-path="url(#3320d0726b)"><g clip-path="url(#42980a6669)"><path fill="#ffffff" d="M 2.976562 0.105469 L 2.976562 5.617188 L 0.078125 5.617188 L 0.078125 0.105469 Z M 2.976562 0.105469 " fill-opacity="1" fill-rule="nonzero"/></g></g></g></g></g></g><g clip-path="url(#e557f3bea6)"><g transform="matrix(1, 0, 0, 1, 6, 22)"><g clip-path="url(#3c40f3325a)"><g clip-path="url(#d8b01840ec)"><path fill="#ffffff" d="M 0.292969 0.480469 L 0.6875 0.480469 L 0.6875 2.308594 L 0.292969 2.308594 Z M 0.292969 0.480469 " fill-opacity="1" fill-rule="nonzero"/></g></g></g></g><g clip-path="url(#73663b2282)"><g transform="matrix(1, 0, 0, 1, 6, 11)"><g clip-path="url(#759b9c9e01)"><g clip-path="url(#d3b5cd5ef5)"><path fill="#ffffff" d="M 0.292969 0.777344 L 0.6875 0.777344 L 0.6875 2.605469 L 0.292969 2.605469 Z M 0.292969 0.777344 " fill-opacity="1" fill-rule="nonzero"/></g></g></g></g><g clip-path="url(#f076a4d227)"><g transform="matrix(1, 0, 0, 1, 8, 15)"><g clip-path="url(#f5107db251)"><g clip-path="url(#d53a3be0fe)"><path fill="#ffffff" d="M 0.183594 0.132812 L 1.160156 0.132812 L 1.160156 0.945312 L 0.183594 0.945312 Z M 0.183594 0.132812 " fill-opacity="1" fill-rule="nonzero"/></g></g></g></g><g clip-path="url(#a4e6aa9f08)"><g transform="matrix(1, 0, 0, 1, 1, 24)"><g clip-path="url(#c40fc3ba11)"><g clip-path="url(#b93d7a7d9e)"><path fill="#ffffff" d="M 0.199219 0.308594 L 1.175781 0.308594 L 1.175781 1.121094 L 0.199219 1.121094 Z M 0.199219 0.308594 " fill-opacity="1" fill-rule="nonzero"/></g></g></g></g><g clip-path="url(#1a46abb473)"><g clip-path="url(#eaabf14a50)"><g transform="matrix(1, 0, 0, 1, 1, 15)"><g clip-path="url(#cf343a78f9)"><g clip-path="url(#783c654582)"><g clip-path="url(#0273f3f78b)"><path fill="#ffffff" d="M 1.6875 0.539062 L 3.074219 2.8125 L 2.378906 3.238281 L 0.992188 0.960938 Z M 1.6875 0.539062 " fill-opacity="1" fill-rule="nonzero"/></g></g></g></g></g></g><g clip-path="url(#1789a48d6d)"><g transform="matrix(1, 0, 0, 1, 6, 24)"><g clip-path="url(#69a61dc806)"><g clip-path="url(#0ed798c91d)"><path fill="#ffffff" d="M 0.492188 0.34375 L 0.859375 0.34375 L 0.859375 1.089844 L 0.492188 1.089844 Z M 0.492188 0.34375 " fill-opacity="1" fill-rule="nonzero"/></g></g></g></g><path stroke-linecap="butt" transform="matrix(0.0000097071, -0.00740131, 0.00740131, 0.0000097071, 16.736037, 31.698328)" fill="none" stroke-linejoin="miter" d="M -0.113699 5.053418 L 762.525977 5.108743 " stroke="#ffffff" stroke-width="10" stroke-opacity="1" stroke-miterlimit="4"/><path stroke-linecap="butt" transform="matrix(0, -0.00740132, 0.00740132, 0, 16.750861, 9.626784)" fill="none" stroke-linejoin="miter" d="M 0.241075 5.161431 L 757.07444 5.161431 " stroke="#ffffff" stroke-width="10" stroke-opacity="1" stroke-miterlimit="4"/><path stroke-linecap="butt" transform="matrix(0.00552513, 0.00492467, -0.00492467, 0.00552513, 20.267523, 0.118443)" fill="none" stroke-linejoin="miter" d="M 3.376804 710.122383 C 1105.203989 -230.246864 2061.039905 -230.273024 2870.13939 710.001085 " stroke="#ffffff" stroke-width="10" stroke-opacity="1" stroke-miterlimit="4"/><path stroke-linecap="butt" transform="matrix(-0.00563609, 0.00479729, -0.00479729, -0.00563609, 35.974394, 22.049532)" fill="none" stroke-linejoin="miter" d="M 3.93817 692.743405 C 769.24224 -224.286107 1706.75893 -224.029455 2816.830328 693.111461 " stroke="#ffffff" stroke-width="10" stroke-opacity="1" stroke-miterlimit="4"/><path stroke-linecap="butt" transform="matrix(0.00583543, -0.00455271, 0.00455271, 0.00583543, 16.752175, 26.079373)" fill="none" stroke-linejoin="miter" d="M 3.059259 4.18119 C 724.541585 548.326819 1305.101474 548.085232 1744.089633 4.288663 " stroke="#ffffff" stroke-width="10" stroke-opacity="1" stroke-miterlimit="4"/><path stroke-linecap="butt" transform="matrix(0.00565572, 0.00477413, -0.00477413, 0.00565572, 18.937879, 6.997184)" fill="none" stroke-linejoin="miter" d="M 3.167902 457.121394 C 733.902736 -145.896986 1333.508709 -145.776339 1802.389122 457.142897 " stroke="#ffffff" stroke-width="10" stroke-opacity="1" stroke-miterlimit="4"/><g clip-path="url(#db4093201c)"><path stroke-linecap="butt" transform="matrix(0.005775, 0.00462913, -0.00462913, 0.005775, 19.555479, 0.962828)" fill="none" stroke-linejoin="miter" d="M 156.139003 792.398979 C 1061.04649 69.071227 1831.473762 69.070746 2467.420821 792.397536 " stroke="#ffffff" stroke-width="500" stroke-opacity="1" stroke-miterlimit="4"/><path stroke-linecap="butt" transform="matrix(0.00561151, 0.00482601, -0.00482601, 0.00561151, 19.581805, 2.660619)" fill="none" stroke-linejoin="miter" d="M 163.085685 766.696603 C 964.929095 77.791522 1683.876572 77.631288 2320.616387 767.0162 " stroke="#ffffff" stroke-width="500" stroke-opacity="1" stroke-miterlimit="4"/><path stroke-linecap="butt" transform="matrix(0.00561151, 0.00482601, -0.00482601, 0.00561151, 19.834774, 0.547095)" fill="none" stroke-linejoin="miter" d="M 165.980736 819.243045 C 1018.026582 60.014447 1737.318195 60.254363 2323.911586 819.218506 " stroke="#ffffff" stroke-width="500" stroke-opacity="1" stroke-miterlimit="4"/><path stroke-linecap="butt" transform="matrix(-0.00495507, 0.00549788, -0.00549788, -0.00495507, 36.194724, 18.272336)" fill="none" stroke-linejoin="miter" d="M 191.766043 1000.096572 C 1025.867353 -0.328071 1897.310063 0.0814199 2806.916972 999.872979 " stroke="#ffffff" stroke-width="500" stroke-opacity="1" stroke-miterlimit="4"/><path stroke-linecap="butt" transform="matrix(-0.0048216, 0.00561531, -0.00561531, -0.0048216, 35.281843, 17.473692)" fill="none" stroke-linejoin="miter" d="M 187.414227 975.167164 C 1041.307128 8.234217 1879.668513 8.364071 2701.009901 975.443528 " stroke="#ffffff" stroke-width="500" stroke-opacity="1" stroke-miterlimit="4"/><path stroke-linecap="butt" transform="matrix(-0.00504267, 0.00541765, -0.00541765, -0.00504267, 36.799789, 19.584798)" fill="none" stroke-linejoin="miter" d="M 203.198069 1040.748291 C 959.482904 -13.608553 1841.91366 -13.717684 2851.209508 1041.193551 " stroke="#ffffff" stroke-width="500" stroke-opacity="1" stroke-miterlimit="4"/></g><path stroke-linecap="butt" transform="matrix(-0.00610064, 0.00419066, -0.00419066, -0.00610064, 28.436779, 22.112342)" fill="none" stroke-linejoin="miter" d="M 32.560759 289.858753 C 407.817784 -29.921106 877.304216 -30.132695 1441.156252 289.957847 " stroke="#ffffff" stroke-width="100" stroke-opacity="1" stroke-miterlimit="4"/><path stroke-linecap="butt" transform="matrix(-0.000421996, 0.00738928, -0.00738928, -0.000421996, 27.763037, 16.656157)" fill="none" stroke-linejoin="miter" d="M 10.784577 68.285455 C 123.576007 43.870334 304.38423 44.117263 553.179152 68.499323 " stroke="#ffffff" stroke-width="100" stroke-opacity="1" stroke-miterlimit="4"/><path stroke-linecap="butt" transform="matrix(0.00484862, 0.00559199, -0.00559199, 0.00484862, 26.049354, 4.509811)" fill="none" stroke-linejoin="miter" d="M 23.770129 245.286023 C 509.212465 -14.884257 994.436394 -15.385795 1479.946692 245.616169 " stroke="#ffffff" stroke-width="100" stroke-opacity="1" stroke-miterlimit="4"/><path stroke-linecap="butt" transform="matrix(-0.000451045, 0.00738756, -0.00738756, -0.000451045, 32.956652, 13.807582)" fill="none" stroke-linejoin="miter" d="M 11.214054 146.788189 C 575.451012 17.69077 1043.403056 17.673207 1414.016594 146.799825 " stroke="#ffffff" stroke-width="100" stroke-opacity="1" stroke-miterlimit="4"/></g></g></g></svg>