<svg xmlns="http://www.w3.org/2000/svg" xmlns:xlink="http://www.w3.org/1999/xlink" width="5139" zoomAndPan="magnify" viewBox="0 0 3854.25 1508.999938" height="2012" preserveAspectRatio="xMidYMid meet" version="1.0"><defs><g/><clipPath id="83d51a732e"><rect x="0" width="3223" y="0" height="1220"/></clipPath><clipPath id="ad9a8afb7b"><path d="M 661.226562 696.238281 L 747.679688 696.238281 L 747.679688 803.292969 L 661.226562 803.292969 Z M 661.226562 696.238281 " clip-rule="nonzero"/></clipPath><clipPath id="cc829638b1"><path d="M 704.453125 696.238281 C 680.582031 696.238281 661.226562 720.199219 661.226562 749.753906 C 661.226562 779.3125 680.582031 803.269531 704.453125 803.269531 C 728.328125 803.269531 747.679688 779.3125 747.679688 749.753906 C 747.679688 720.199219 728.328125 696.238281 704.453125 696.238281 Z M 704.453125 696.238281 " clip-rule="nonzero"/></clipPath><clipPath id="48e245ddb8"><path d="M 0.226562 0.238281 L 86.679688 0.238281 L 86.679688 107.292969 L 0.226562 107.292969 Z M 0.226562 0.238281 " clip-rule="nonzero"/></clipPath><clipPath id="4780a457d2"><path d="M 43.453125 0.238281 C 19.582031 0.238281 0.226562 24.199219 0.226562 53.753906 C 0.226562 83.3125 19.582031 107.269531 43.453125 107.269531 C 67.328125 107.269531 86.679688 83.3125 86.679688 53.753906 C 86.679688 24.199219 67.328125 0.238281 43.453125 0.238281 Z M 43.453125 0.238281 " clip-rule="nonzero"/></clipPath><clipPath id="586f004430"><rect x="0" width="87" y="0" height="108"/></clipPath><clipPath id="871661d4af"><path d="M 3434.757812 696.238281 L 3527.699219 696.238281 L 3527.699219 804 L 3434.757812 804 Z M 3434.757812 696.238281 " clip-rule="nonzero"/></clipPath><clipPath id="b147a853d6"><path d="M 3481.230469 696.238281 C 3455.5625 696.238281 3434.757812 720.320312 3434.757812 750.023438 C 3434.757812 779.726562 3455.5625 803.808594 3481.230469 803.808594 C 3506.894531 803.808594 3527.699219 779.726562 3527.699219 750.023438 C 3527.699219 720.320312 3506.894531 696.238281 3481.230469 696.238281 Z M 3481.230469 696.238281 " clip-rule="nonzero"/></clipPath><clipPath id="937497bdd9"><path d="M 0.757812 0.238281 L 93.699219 0.238281 L 93.699219 107.992188 L 0.757812 107.992188 Z M 0.757812 0.238281 " clip-rule="nonzero"/></clipPath><clipPath id="0e2108566e"><path d="M 47.230469 0.238281 C 21.5625 0.238281 0.757812 24.320312 0.757812 54.023438 C 0.757812 83.726562 21.5625 107.808594 47.230469 107.808594 C 72.894531 107.808594 93.699219 83.726562 93.699219 54.023438 C 93.699219 24.320312 72.894531 0.238281 47.230469 0.238281 Z M 47.230469 0.238281 " clip-rule="nonzero"/></clipPath><clipPath id="fb845d6962"><rect x="0" width="94" y="0" height="108"/></clipPath></defs><g transform="matrix(1, 0, 0, 1, 315, 144)"><g clip-path="url(#83d51a732e)"><g fill="#fefefe" fill-opacity="1"><g transform="translate(0.981914, 877.912187)"><g><path d="M 190.140625 0 C 159.984375 0 132.632812 -7.023438 108.09375 -21.078125 C 83.5625 -35.140625 64.007812 -54.050781 49.4375 -77.8125 C 34.875 -101.582031 27.59375 -128.546875 27.59375 -158.703125 C 27.59375 -181.191406 32.578125 -202.273438 42.546875 -221.953125 C 52.515625 -241.628906 65.929688 -258.625 82.796875 -272.9375 C 66.441406 -286.738281 53.535156 -303.09375 44.078125 -322 C 34.628906 -340.914062 29.90625 -360.851562 29.90625 -381.8125 C 29.90625 -411.457031 37.054688 -437.90625 51.359375 -461.15625 C 65.671875 -484.414062 84.835938 -502.816406 108.859375 -516.359375 C 132.890625 -529.898438 159.472656 -536.671875 188.609375 -536.671875 L 414.78125 -536.671875 L 414.78125 -429.34375 L 208.53125 -429.34375 C 198.820312 -429.34375 189.878906 -427.039062 181.703125 -422.4375 C 173.523438 -417.84375 167.007812 -411.710938 162.15625 -404.046875 C 157.300781 -396.378906 154.875 -387.429688 154.875 -377.203125 C 154.875 -367.492188 157.300781 -358.675781 162.15625 -350.75 C 167.007812 -342.832031 173.523438 -336.703125 181.703125 -332.359375 C 189.878906 -328.015625 198.820312 -325.84375 208.53125 -325.84375 L 388.703125 -325.84375 L 388.703125 -218.5 L 212.375 -218.5 C 201.632812 -218.5 191.921875 -215.941406 183.234375 -210.828125 C 174.546875 -205.722656 167.644531 -199.082031 162.53125 -190.90625 C 157.425781 -182.726562 154.875 -173.269531 154.875 -162.53125 C 154.875 -152.3125 157.425781 -142.984375 162.53125 -134.546875 C 167.644531 -126.117188 174.546875 -119.601562 183.234375 -115 C 191.921875 -110.40625 201.632812 -108.109375 212.375 -108.109375 L 414.78125 -108.109375 L 414.78125 0 Z M 190.140625 0 "/></g></g></g><g fill="#fefefe" fill-opacity="1"><g transform="translate(445.662993, 877.912187)"><g><path d="M 46.765625 0 L 46.765625 -536.671875 L 243.8125 -536.671875 C 300.539062 -536.671875 349.734375 -525.171875 391.390625 -502.171875 C 433.046875 -479.171875 465.5 -447.484375 488.75 -407.109375 C 512.007812 -366.734375 523.640625 -320.476562 523.640625 -268.34375 C 523.640625 -216.207031 512.007812 -169.945312 488.75 -129.5625 C 465.5 -89.1875 433.046875 -57.5 391.390625 -34.5 C 349.734375 -11.5 300.539062 0 243.8125 0 Z M 175.578125 -107.34375 L 240.734375 -107.34375 C 270.378906 -107.34375 296.828125 -113.859375 320.078125 -126.890625 C 343.335938 -139.921875 361.613281 -158.445312 374.90625 -182.46875 C 388.195312 -206.488281 394.84375 -235.113281 394.84375 -268.34375 C 394.84375 -301.5625 388.195312 -330.179688 374.90625 -354.203125 C 361.613281 -378.234375 343.335938 -396.765625 320.078125 -409.796875 C 296.828125 -422.828125 270.378906 -429.34375 240.734375 -429.34375 L 175.578125 -429.34375 Z M 175.578125 -107.34375 "/></g></g></g><g fill="#fefefe" fill-opacity="1"><g transform="translate(990.780695, 877.912187)"><g><path d="M 34.5 0 L 34.5 -107.34375 L 127.265625 -107.34375 L 127.265625 -429.34375 L 34.5 -429.34375 L 34.5 -536.671875 L 348.078125 -536.671875 L 348.078125 -429.34375 L 255.3125 -429.34375 L 255.3125 -107.34375 L 348.078125 -107.34375 L 348.078125 0 Z M 34.5 0 "/></g></g></g><g fill="#fefefe" fill-opacity="1"><g transform="translate(1373.359705, 877.912187)"><g><path d="M 424.75 9.203125 C 392.539062 9.203125 363.660156 2.175781 338.109375 -11.875 C 312.554688 -25.9375 292.367188 -45.488281 277.546875 -70.53125 C 262.722656 -95.582031 255.3125 -123.953125 255.3125 -155.640625 L 255.3125 -390.25 C 255.3125 -398.425781 253.265625 -405.832031 249.171875 -412.46875 C 245.085938 -419.113281 239.722656 -424.484375 233.078125 -428.578125 C 226.429688 -432.671875 219.019531 -434.71875 210.84375 -434.71875 C 202.664062 -434.71875 195.253906 -432.671875 188.609375 -428.578125 C 181.960938 -424.484375 176.722656 -419.113281 172.890625 -412.46875 C 169.054688 -405.832031 167.140625 -398.425781 167.140625 -390.25 L 167.140625 0 L 41.40625 0 L 41.40625 -381.046875 C 41.40625 -413.242188 48.6875 -441.609375 63.25 -466.140625 C 77.820312 -490.679688 98.007812 -510.101562 123.8125 -524.40625 C 149.625 -538.707031 178.632812 -545.859375 210.84375 -545.859375 C 243.550781 -545.859375 272.679688 -538.707031 298.234375 -524.40625 C 323.796875 -510.101562 343.988281 -490.679688 358.8125 -466.140625 C 373.632812 -441.609375 381.046875 -413.242188 381.046875 -381.046875 L 381.046875 -146.4375 C 381.046875 -138.257812 383.085938 -130.71875 387.171875 -123.8125 C 391.265625 -116.914062 396.503906 -111.550781 402.890625 -107.71875 C 409.285156 -103.882812 416.316406 -101.96875 423.984375 -101.96875 C 432.160156 -101.96875 439.695312 -103.882812 446.59375 -107.71875 C 453.5 -111.550781 458.992188 -116.914062 463.078125 -123.8125 C 467.171875 -130.71875 469.21875 -138.257812 469.21875 -146.4375 L 469.21875 -536.671875 L 594.1875 -536.671875 L 594.1875 -155.640625 C 594.1875 -123.953125 586.773438 -95.582031 571.953125 -70.53125 C 557.128906 -45.488281 536.9375 -25.9375 511.375 -11.875 C 485.820312 2.175781 456.945312 9.203125 424.75 9.203125 Z M 424.75 9.203125 "/></g></g></g><g fill="#fefefe" fill-opacity="1"><g transform="translate(2009.713586, 877.912187)"><g><path d="M 34.5 0 L 34.5 -107.34375 L 127.265625 -107.34375 L 127.265625 -429.34375 L 34.5 -429.34375 L 34.5 -536.671875 L 348.078125 -536.671875 L 348.078125 -429.34375 L 255.3125 -429.34375 L 255.3125 -107.34375 L 348.078125 -107.34375 L 348.078125 0 Z M 34.5 0 "/></g></g></g><g fill="#fefefe" fill-opacity="1"><g transform="translate(2334.790754, 877.912187)"><g><path d="M 322.78125 0 C 290.0625 0 261.304688 -7.28125 236.515625 -21.84375 C 211.734375 -36.414062 192.3125 -55.96875 178.25 -80.5 C 164.195312 -105.03125 157.171875 -132.375 157.171875 -162.53125 L 157.171875 -429.34375 L 11.5 -429.34375 L 11.5 -536.671875 L 430.875 -536.671875 L 430.875 -429.34375 L 285.96875 -429.34375 L 285.96875 -151.03125 C 285.96875 -139.28125 290.054688 -129.0625 298.234375 -120.375 C 306.421875 -111.6875 316.644531 -107.34375 328.90625 -107.34375 L 371.078125 -107.34375 L 371.078125 0 Z M 322.78125 0 "/></g></g></g><g fill="#fefefe" fill-opacity="1"><g transform="translate(2777.171824, 877.912187)"><g><path d="M 190.140625 0 C 159.984375 0 132.632812 -7.023438 108.09375 -21.078125 C 83.5625 -35.140625 64.007812 -54.050781 49.4375 -77.8125 C 34.875 -101.582031 27.59375 -128.546875 27.59375 -158.703125 C 27.59375 -181.191406 32.578125 -202.273438 42.546875 -221.953125 C 52.515625 -241.628906 65.929688 -258.625 82.796875 -272.9375 C 66.441406 -286.738281 53.535156 -303.09375 44.078125 -322 C 34.628906 -340.914062 29.90625 -360.851562 29.90625 -381.8125 C 29.90625 -411.457031 37.054688 -437.90625 51.359375 -461.15625 C 65.671875 -484.414062 84.835938 -502.816406 108.859375 -516.359375 C 132.890625 -529.898438 159.472656 -536.671875 188.609375 -536.671875 L 414.78125 -536.671875 L 414.78125 -429.34375 L 208.53125 -429.34375 C 198.820312 -429.34375 189.878906 -427.039062 181.703125 -422.4375 C 173.523438 -417.84375 167.007812 -411.710938 162.15625 -404.046875 C 157.300781 -396.378906 154.875 -387.429688 154.875 -377.203125 C 154.875 -367.492188 157.300781 -358.675781 162.15625 -350.75 C 167.007812 -342.832031 173.523438 -336.703125 181.703125 -332.359375 C 189.878906 -328.015625 198.820312 -325.84375 208.53125 -325.84375 L 388.703125 -325.84375 L 388.703125 -218.5 L 212.375 -218.5 C 201.632812 -218.5 191.921875 -215.941406 183.234375 -210.828125 C 174.546875 -205.722656 167.644531 -199.082031 162.53125 -190.90625 C 157.425781 -182.726562 154.875 -173.269531 154.875 -162.53125 C 154.875 -152.3125 157.425781 -142.984375 162.53125 -134.546875 C 167.644531 -126.117188 174.546875 -119.601562 183.234375 -115 C 191.921875 -110.40625 201.632812 -108.109375 212.375 -108.109375 L 414.78125 -108.109375 L 414.78125 0 Z M 190.140625 0 "/></g></g></g></g></g><g clip-path="url(#ad9a8afb7b)"><g clip-path="url(#cc829638b1)"><g transform="matrix(1, 0, 0, 1, 661, 696)"><g clip-path="url(#586f004430)"><g clip-path="url(#48e245ddb8)"><g clip-path="url(#4780a457d2)"><path fill="#ffffff" d="M 0.226562 0.238281 L 86.679688 0.238281 L 86.679688 107.292969 L 0.226562 107.292969 Z M 0.226562 0.238281 " fill-opacity="1" fill-rule="nonzero"/></g></g></g></g></g></g><g clip-path="url(#871661d4af)"><g clip-path="url(#b147a853d6)"><g transform="matrix(1, 0, 0, 1, 3434, 696)"><g clip-path="url(#fb845d6962)"><g clip-path="url(#937497bdd9)"><g clip-path="url(#0e2108566e)"><path fill="#ffffff" d="M 0.757812 0.238281 L 93.699219 0.238281 L 93.699219 107.707031 L 0.757812 107.707031 Z M 0.757812 0.238281 " fill-opacity="1" fill-rule="nonzero"/></g></g></g></g></g></g><g fill="#fefefe" fill-opacity="1"><g transform="translate(742.602433, 1267.59834)"><g><path d="M 4.75 -110.859375 L 17.421875 -110.859375 L 46.71875 -18.21875 L 76.8125 -110.859375 L 87.890625 -110.859375 L 117.984375 -18.21875 L 147.28125 -110.859375 L 159.953125 -110.859375 L 123.53125 0 L 111.65625 0 L 82.359375 -92.65625 L 53.0625 0 L 41.171875 0 Z M 4.75 -110.859375 "/></g></g></g><g fill="#fefefe" fill-opacity="1"><g transform="translate(904.141264, 1267.59834)"><g><path d="M 13.46875 -110.859375 L 24.546875 -110.859375 L 24.546875 -64.9375 C 26.128906 -67.257812 28.132812 -69.367188 30.5625 -71.265625 C 32.675781 -72.847656 35.238281 -74.300781 38.25 -75.625 C 41.257812 -76.945312 44.875 -77.609375 49.09375 -77.609375 C 53.632812 -77.609375 57.804688 -76.84375 61.609375 -75.3125 C 65.410156 -73.78125 68.65625 -71.613281 71.34375 -68.8125 C 74.039062 -66.007812 76.15625 -62.601562 77.6875 -58.59375 C 79.21875 -54.582031 79.984375 -50.097656 79.984375 -45.140625 L 79.984375 0 L 68.890625 0 L 68.890625 -45.140625 C 68.890625 -51.890625 66.960938 -57.269531 63.109375 -61.28125 C 59.253906 -65.300781 54.316406 -67.3125 48.296875 -67.3125 C 44.921875 -67.3125 41.78125 -66.703125 38.875 -65.484375 C 35.976562 -64.273438 33.472656 -62.5625 31.359375 -60.34375 C 29.242188 -58.125 27.578125 -55.457031 26.359375 -52.34375 C 25.148438 -49.226562 24.546875 -45.769531 24.546875 -41.96875 L 24.546875 0 L 13.46875 0 Z M 13.46875 -110.859375 "/></g></g></g><g fill="#fefefe" fill-opacity="1"><g transform="translate(996.788584, 1267.59834)"><g><path d="M 45.140625 1.578125 C 39.960938 1.578125 35.078125 0.550781 30.484375 -1.5 C 25.890625 -3.5625 21.847656 -6.359375 18.359375 -9.890625 C 14.878906 -13.429688 12.132812 -17.601562 10.125 -22.40625 C 8.125 -27.207031 7.125 -32.410156 7.125 -38.015625 C 7.125 -43.503906 8.125 -48.675781 10.125 -53.53125 C 12.132812 -58.382812 14.851562 -62.578125 18.28125 -66.109375 C 21.71875 -69.648438 25.679688 -72.453125 30.171875 -74.515625 C 34.660156 -76.578125 39.382812 -77.609375 44.34375 -77.609375 C 49.519531 -77.609375 54.320312 -76.65625 58.75 -74.75 C 63.1875 -72.851562 67.039062 -70.238281 70.3125 -66.90625 C 73.59375 -63.582031 76.15625 -59.570312 78 -54.875 C 79.84375 -50.175781 80.765625 -45.082031 80.765625 -39.59375 C 80.765625 -38.75 80.710938 -37.984375 80.609375 -37.296875 C 80.503906 -36.609375 80.398438 -36 80.296875 -35.46875 C 80.191406 -34.84375 80.085938 -34.316406 79.984375 -33.890625 L 18.21875 -34.046875 C 18.425781 -30.671875 19.269531 -27.453125 20.75 -24.390625 C 22.226562 -21.328125 24.179688 -18.632812 26.609375 -16.3125 C 29.035156 -13.988281 31.832031 -12.140625 35 -10.765625 C 38.164062 -9.390625 41.546875 -8.703125 45.140625 -8.703125 C 49.148438 -8.703125 52.660156 -9.363281 55.671875 -10.6875 C 58.679688 -12.007812 61.238281 -13.460938 63.34375 -15.046875 C 65.78125 -16.941406 67.894531 -19.050781 69.6875 -21.375 L 76.8125 -14.25 C 74.59375 -11.289062 71.898438 -8.648438 68.734375 -6.328125 C 65.984375 -4.328125 62.65625 -2.507812 58.75 -0.875 C 54.84375 0.757812 50.304688 1.578125 45.140625 1.578125 Z M 69.6875 -43.546875 C 69.257812 -46.929688 68.332031 -50.070312 66.90625 -52.96875 C 65.488281 -55.875 63.671875 -58.382812 61.453125 -60.5 C 59.234375 -62.613281 56.671875 -64.273438 53.765625 -65.484375 C 50.859375 -66.703125 47.71875 -67.3125 44.34375 -67.3125 C 40.96875 -67.3125 37.773438 -66.675781 34.765625 -65.40625 C 31.753906 -64.144531 29.085938 -62.40625 26.765625 -60.1875 C 24.441406 -57.96875 22.539062 -55.429688 21.0625 -52.578125 C 19.582031 -49.722656 18.632812 -46.710938 18.21875 -43.546875 Z M 69.6875 -43.546875 "/></g></g></g><g fill="#fefefe" fill-opacity="1"><g transform="translate(1084.68476, 1267.59834)"><g><path d="M 12.671875 -76.015625 L 23.75 -76.015625 L 23.75 -65.71875 C 25.445312 -67.832031 27.507812 -69.785156 29.9375 -71.578125 C 32.039062 -73.054688 34.648438 -74.429688 37.765625 -75.703125 C 40.878906 -76.972656 44.65625 -77.609375 49.09375 -77.609375 L 52.265625 -77.609375 L 52.265625 -66.515625 L 47.515625 -66.515625 C 44.347656 -66.515625 41.335938 -65.929688 38.484375 -64.765625 C 35.628906 -63.609375 33.09375 -61.972656 30.875 -59.859375 C 28.664062 -57.753906 26.925781 -55.195312 25.65625 -52.1875 C 24.382812 -49.175781 23.75 -45.769531 23.75 -41.96875 L 23.75 0 L 12.671875 0 Z M 12.671875 -76.015625 "/></g></g></g><g fill="#fefefe" fill-opacity="1"><g transform="translate(1137.739177, 1267.59834)"><g><path d="M 45.140625 1.578125 C 39.960938 1.578125 35.078125 0.550781 30.484375 -1.5 C 25.890625 -3.5625 21.847656 -6.359375 18.359375 -9.890625 C 14.878906 -13.429688 12.132812 -17.601562 10.125 -22.40625 C 8.125 -27.207031 7.125 -32.410156 7.125 -38.015625 C 7.125 -43.503906 8.125 -48.675781 10.125 -53.53125 C 12.132812 -58.382812 14.851562 -62.578125 18.28125 -66.109375 C 21.71875 -69.648438 25.679688 -72.453125 30.171875 -74.515625 C 34.660156 -76.578125 39.382812 -77.609375 44.34375 -77.609375 C 49.519531 -77.609375 54.320312 -76.65625 58.75 -74.75 C 63.1875 -72.851562 67.039062 -70.238281 70.3125 -66.90625 C 73.59375 -63.582031 76.15625 -59.570312 78 -54.875 C 79.84375 -50.175781 80.765625 -45.082031 80.765625 -39.59375 C 80.765625 -38.75 80.710938 -37.984375 80.609375 -37.296875 C 80.503906 -36.609375 80.398438 -36 80.296875 -35.46875 C 80.191406 -34.84375 80.085938 -34.316406 79.984375 -33.890625 L 18.21875 -34.046875 C 18.425781 -30.671875 19.269531 -27.453125 20.75 -24.390625 C 22.226562 -21.328125 24.179688 -18.632812 26.609375 -16.3125 C 29.035156 -13.988281 31.832031 -12.140625 35 -10.765625 C 38.164062 -9.390625 41.546875 -8.703125 45.140625 -8.703125 C 49.148438 -8.703125 52.660156 -9.363281 55.671875 -10.6875 C 58.679688 -12.007812 61.238281 -13.460938 63.34375 -15.046875 C 65.78125 -16.941406 67.894531 -19.050781 69.6875 -21.375 L 76.8125 -14.25 C 74.59375 -11.289062 71.898438 -8.648438 68.734375 -6.328125 C 65.984375 -4.328125 62.65625 -2.507812 58.75 -0.875 C 54.84375 0.757812 50.304688 1.578125 45.140625 1.578125 Z M 69.6875 -43.546875 C 69.257812 -46.929688 68.332031 -50.070312 66.90625 -52.96875 C 65.488281 -55.875 63.671875 -58.382812 61.453125 -60.5 C 59.234375 -62.613281 56.671875 -64.273438 53.765625 -65.484375 C 50.859375 -66.703125 47.71875 -67.3125 44.34375 -67.3125 C 40.96875 -67.3125 37.773438 -66.675781 34.765625 -65.40625 C 31.753906 -64.144531 29.085938 -62.40625 26.765625 -60.1875 C 24.441406 -57.96875 22.539062 -55.429688 21.0625 -52.578125 C 19.582031 -49.722656 18.632812 -46.710938 18.21875 -43.546875 Z M 69.6875 -43.546875 "/></g></g></g><g fill="#fefefe" fill-opacity="1"><g transform="translate(1225.635354, 1267.59834)"><g/></g></g><g fill="#fefefe" fill-opacity="1"><g transform="translate(1258.893331, 1267.59834)"><g><path d="M 16.625 -110.859375 L 51.46875 -110.859375 C 59.601562 -110.859375 67.179688 -109.378906 74.203125 -106.421875 C 81.222656 -103.472656 87.34375 -99.460938 92.5625 -94.390625 C 97.789062 -89.328125 101.882812 -83.441406 104.84375 -76.734375 C 107.800781 -70.023438 109.28125 -62.925781 109.28125 -55.4375 C 109.28125 -47.9375 107.800781 -40.832031 104.84375 -34.125 C 101.882812 -27.425781 97.789062 -21.539062 92.5625 -16.46875 C 87.34375 -11.40625 81.222656 -7.394531 74.203125 -4.4375 C 67.179688 -1.476562 59.601562 0 51.46875 0 L 16.625 0 Z M 51.46875 -11.09375 C 58.019531 -11.09375 64.09375 -12.253906 69.6875 -14.578125 C 75.28125 -16.898438 80.132812 -20.066406 84.25 -24.078125 C 88.375 -28.085938 91.597656 -32.785156 93.921875 -38.171875 C 96.242188 -43.554688 97.40625 -49.3125 97.40625 -55.4375 C 97.40625 -61.550781 96.242188 -67.300781 93.921875 -72.6875 C 91.597656 -78.070312 88.375 -82.769531 84.25 -86.78125 C 80.132812 -90.800781 75.28125 -93.972656 69.6875 -96.296875 C 64.09375 -98.617188 58.019531 -99.78125 51.46875 -99.78125 L 28.5 -99.78125 L 28.5 -11.09375 Z M 51.46875 -11.09375 "/></g></g></g><g fill="#fefefe" fill-opacity="1"><g transform="translate(1377.671971, 1267.59834)"><g><path d="M 12.671875 -76.015625 L 23.75 -76.015625 L 23.75 -65.71875 C 25.445312 -67.832031 27.507812 -69.785156 29.9375 -71.578125 C 32.039062 -73.054688 34.648438 -74.429688 37.765625 -75.703125 C 40.878906 -76.972656 44.65625 -77.609375 49.09375 -77.609375 L 52.265625 -77.609375 L 52.265625 -66.515625 L 47.515625 -66.515625 C 44.347656 -66.515625 41.335938 -65.929688 38.484375 -64.765625 C 35.628906 -63.609375 33.09375 -61.972656 30.875 -59.859375 C 28.664062 -57.753906 26.925781 -55.195312 25.65625 -52.1875 C 24.382812 -49.175781 23.75 -45.769531 23.75 -41.96875 L 23.75 0 L 12.671875 0 Z M 12.671875 -76.015625 "/></g></g></g><g fill="#fefefe" fill-opacity="1"><g transform="translate(1430.726388, 1267.59834)"><g><path d="M 45.140625 1.578125 C 39.960938 1.578125 35.078125 0.550781 30.484375 -1.5 C 25.890625 -3.5625 21.847656 -6.359375 18.359375 -9.890625 C 14.878906 -13.429688 12.132812 -17.601562 10.125 -22.40625 C 8.125 -27.207031 7.125 -32.410156 7.125 -38.015625 C 7.125 -43.503906 8.125 -48.675781 10.125 -53.53125 C 12.132812 -58.382812 14.851562 -62.578125 18.28125 -66.109375 C 21.71875 -69.648438 25.679688 -72.453125 30.171875 -74.515625 C 34.660156 -76.578125 39.382812 -77.609375 44.34375 -77.609375 C 49.519531 -77.609375 54.320312 -76.65625 58.75 -74.75 C 63.1875 -72.851562 67.039062 -70.238281 70.3125 -66.90625 C 73.59375 -63.582031 76.15625 -59.570312 78 -54.875 C 79.84375 -50.175781 80.765625 -45.082031 80.765625 -39.59375 C 80.765625 -38.75 80.710938 -37.984375 80.609375 -37.296875 C 80.503906 -36.609375 80.398438 -36 80.296875 -35.46875 C 80.191406 -34.84375 80.085938 -34.316406 79.984375 -33.890625 L 18.21875 -34.046875 C 18.425781 -30.671875 19.269531 -27.453125 20.75 -24.390625 C 22.226562 -21.328125 24.179688 -18.632812 26.609375 -16.3125 C 29.035156 -13.988281 31.832031 -12.140625 35 -10.765625 C 38.164062 -9.390625 41.546875 -8.703125 45.140625 -8.703125 C 49.148438 -8.703125 52.660156 -9.363281 55.671875 -10.6875 C 58.679688 -12.007812 61.238281 -13.460938 63.34375 -15.046875 C 65.78125 -16.941406 67.894531 -19.050781 69.6875 -21.375 L 76.8125 -14.25 C 74.59375 -11.289062 71.898438 -8.648438 68.734375 -6.328125 C 65.984375 -4.328125 62.65625 -2.507812 58.75 -0.875 C 54.84375 0.757812 50.304688 1.578125 45.140625 1.578125 Z M 69.6875 -43.546875 C 69.257812 -46.929688 68.332031 -50.070312 66.90625 -52.96875 C 65.488281 -55.875 63.671875 -58.382812 61.453125 -60.5 C 59.234375 -62.613281 56.671875 -64.273438 53.765625 -65.484375 C 50.859375 -66.703125 47.71875 -67.3125 44.34375 -67.3125 C 40.96875 -67.3125 37.773438 -66.675781 34.765625 -65.40625 C 31.753906 -64.144531 29.085938 -62.40625 26.765625 -60.1875 C 24.441406 -57.96875 22.539062 -55.429688 21.0625 -52.578125 C 19.582031 -49.722656 18.632812 -46.710938 18.21875 -43.546875 Z M 69.6875 -43.546875 "/></g></g></g><g fill="#fefefe" fill-opacity="1"><g transform="translate(1518.622565, 1267.59834)"><g><path d="M 34.046875 1.578125 C 30.035156 1.578125 26.394531 0.945312 23.125 -0.3125 C 19.851562 -1.582031 17.03125 -3.242188 14.65625 -5.296875 C 12.28125 -7.359375 10.429688 -9.734375 9.109375 -12.421875 C 7.785156 -15.117188 7.125 -17.84375 7.125 -20.59375 C 7.125 -26.925781 9.023438 -32.046875 12.828125 -35.953125 C 16.628906 -39.859375 22.117188 -42.390625 29.296875 -43.546875 L 58.59375 -48.296875 C 58.59375 -53.898438 56.820312 -58.46875 53.28125 -62 C 49.75 -65.539062 45.1875 -67.3125 39.59375 -67.3125 C 36.21875 -67.3125 33.207031 -66.726562 30.5625 -65.5625 C 27.925781 -64.40625 25.710938 -63.140625 23.921875 -61.765625 C 21.804688 -60.078125 19.90625 -58.226562 18.21875 -56.21875 L 11.09375 -63.34375 C 13.195312 -65.988281 15.675781 -68.367188 18.53125 -70.484375 C 20.957031 -72.273438 23.910156 -73.910156 27.390625 -75.390625 C 30.878906 -76.867188 34.945312 -77.609375 39.59375 -77.609375 C 43.925781 -77.609375 47.9375 -76.867188 51.625 -75.390625 C 55.320312 -73.910156 58.515625 -71.847656 61.203125 -69.203125 C 63.898438 -66.566406 65.988281 -63.453125 67.46875 -59.859375 C 68.945312 -56.273438 69.6875 -52.421875 69.6875 -48.296875 L 69.6875 0 L 58.59375 0 L 58.59375 -10.296875 C 57.007812 -8.078125 55.003906 -6.070312 52.578125 -4.28125 C 50.460938 -2.800781 47.875 -1.453125 44.8125 -0.234375 C 41.757812 0.972656 38.171875 1.578125 34.046875 1.578125 Z M 34.046875 -8.703125 C 37.640625 -8.703125 40.941406 -9.3125 43.953125 -10.53125 C 46.960938 -11.75 49.546875 -13.460938 51.703125 -15.671875 C 53.867188 -17.890625 55.554688 -20.554688 56.765625 -23.671875 C 57.984375 -26.785156 58.59375 -30.242188 58.59375 -34.046875 L 58.59375 -38.796875 L 32.46875 -34.046875 C 22.96875 -32.253906 18.21875 -27.769531 18.21875 -20.59375 C 18.21875 -17.425781 19.5625 -14.648438 22.25 -12.265625 C 24.945312 -9.890625 28.878906 -8.703125 34.046875 -8.703125 Z M 34.046875 -8.703125 "/></g></g></g><g fill="#fefefe" fill-opacity="1"><g transform="translate(1600.975708, 1267.59834)"><g><path d="M 12.671875 -76.015625 L 23.75 -76.015625 L 23.75 -66.515625 C 25.125 -68.523438 26.816406 -70.375 28.828125 -72.0625 C 30.617188 -73.4375 32.832031 -74.703125 35.46875 -75.859375 C 38.113281 -77.023438 41.335938 -77.609375 45.140625 -77.609375 C 49.679688 -77.609375 53.535156 -76.894531 56.703125 -75.46875 C 59.867188 -74.039062 62.398438 -72.484375 64.296875 -70.796875 C 66.515625 -68.890625 68.3125 -66.671875 69.6875 -64.140625 C 71.164062 -66.671875 73.117188 -68.890625 75.546875 -70.796875 C 77.660156 -72.484375 80.378906 -74.039062 83.703125 -75.46875 C 87.023438 -76.894531 91.0625 -77.609375 95.8125 -77.609375 C 99.9375 -77.609375 103.789062 -76.921875 107.375 -75.546875 C 110.96875 -74.171875 114.082031 -72.109375 116.71875 -69.359375 C 119.363281 -66.617188 121.421875 -63.21875 122.890625 -59.15625 C 124.367188 -55.09375 125.109375 -50.421875 125.109375 -45.140625 L 125.109375 0 L 114.03125 0 L 114.03125 -45.140625 C 114.03125 -52.421875 112.257812 -57.9375 108.71875 -61.6875 C 105.1875 -65.4375 100.625 -67.3125 95.03125 -67.3125 C 92.28125 -67.3125 89.664062 -66.726562 87.1875 -65.5625 C 84.707031 -64.40625 82.515625 -62.742188 80.609375 -60.578125 C 78.710938 -58.410156 77.207031 -55.742188 76.09375 -52.578125 C 74.988281 -49.410156 74.4375 -45.875 74.4375 -41.96875 L 74.4375 0 L 63.34375 0 L 63.34375 -45.140625 C 63.34375 -52.316406 61.570312 -57.804688 58.03125 -61.609375 C 54.5 -65.410156 49.9375 -67.3125 44.34375 -67.3125 C 41.601562 -67.3125 38.988281 -66.726562 36.5 -65.5625 C 34.019531 -64.40625 31.828125 -62.742188 29.921875 -60.578125 C 28.023438 -58.410156 26.519531 -55.742188 25.40625 -52.578125 C 24.300781 -49.410156 23.75 -45.875 23.75 -41.96875 L 23.75 0 L 12.671875 0 Z M 12.671875 -76.015625 "/></g></g></g><g fill="#fefefe" fill-opacity="1"><g transform="translate(1738.758916, 1267.59834)"><g><path d="M 45.140625 1.578125 C 39.960938 1.578125 35.078125 0.550781 30.484375 -1.5 C 25.890625 -3.5625 21.847656 -6.359375 18.359375 -9.890625 C 14.878906 -13.429688 12.132812 -17.601562 10.125 -22.40625 C 8.125 -27.207031 7.125 -32.410156 7.125 -38.015625 C 7.125 -43.503906 8.125 -48.675781 10.125 -53.53125 C 12.132812 -58.382812 14.851562 -62.578125 18.28125 -66.109375 C 21.71875 -69.648438 25.679688 -72.453125 30.171875 -74.515625 C 34.660156 -76.578125 39.382812 -77.609375 44.34375 -77.609375 C 49.519531 -77.609375 54.320312 -76.65625 58.75 -74.75 C 63.1875 -72.851562 67.039062 -70.238281 70.3125 -66.90625 C 73.59375 -63.582031 76.15625 -59.570312 78 -54.875 C 79.84375 -50.175781 80.765625 -45.082031 80.765625 -39.59375 C 80.765625 -38.75 80.710938 -37.984375 80.609375 -37.296875 C 80.503906 -36.609375 80.398438 -36 80.296875 -35.46875 C 80.191406 -34.84375 80.085938 -34.316406 79.984375 -33.890625 L 18.21875 -34.046875 C 18.425781 -30.671875 19.269531 -27.453125 20.75 -24.390625 C 22.226562 -21.328125 24.179688 -18.632812 26.609375 -16.3125 C 29.035156 -13.988281 31.832031 -12.140625 35 -10.765625 C 38.164062 -9.390625 41.546875 -8.703125 45.140625 -8.703125 C 49.148438 -8.703125 52.660156 -9.363281 55.671875 -10.6875 C 58.679688 -12.007812 61.238281 -13.460938 63.34375 -15.046875 C 65.78125 -16.941406 67.894531 -19.050781 69.6875 -21.375 L 76.8125 -14.25 C 74.59375 -11.289062 71.898438 -8.648438 68.734375 -6.328125 C 65.984375 -4.328125 62.65625 -2.507812 58.75 -0.875 C 54.84375 0.757812 50.304688 1.578125 45.140625 1.578125 Z M 69.6875 -43.546875 C 69.257812 -46.929688 68.332031 -50.070312 66.90625 -52.96875 C 65.488281 -55.875 63.671875 -58.382812 61.453125 -60.5 C 59.234375 -62.613281 56.671875 -64.273438 53.765625 -65.484375 C 50.859375 -66.703125 47.71875 -67.3125 44.34375 -67.3125 C 40.96875 -67.3125 37.773438 -66.675781 34.765625 -65.40625 C 31.753906 -64.144531 29.085938 -62.40625 26.765625 -60.1875 C 24.441406 -57.96875 22.539062 -55.429688 21.0625 -52.578125 C 19.582031 -49.722656 18.632812 -46.710938 18.21875 -43.546875 Z M 69.6875 -43.546875 "/></g></g></g><g fill="#fefefe" fill-opacity="1"><g transform="translate(1826.655138, 1267.59834)"><g><path d="M 12.671875 -76.015625 L 23.75 -76.015625 L 23.75 -65.71875 C 25.445312 -67.832031 27.507812 -69.785156 29.9375 -71.578125 C 32.039062 -73.054688 34.648438 -74.429688 37.765625 -75.703125 C 40.878906 -76.972656 44.65625 -77.609375 49.09375 -77.609375 L 52.265625 -77.609375 L 52.265625 -66.515625 L 47.515625 -66.515625 C 44.347656 -66.515625 41.335938 -65.929688 38.484375 -64.765625 C 35.628906 -63.609375 33.09375 -61.972656 30.875 -59.859375 C 28.664062 -57.753906 26.925781 -55.195312 25.65625 -52.1875 C 24.382812 -49.175781 23.75 -45.769531 23.75 -41.96875 L 23.75 0 L 12.671875 0 Z M 12.671875 -76.015625 "/></g></g></g><g fill="#fefefe" fill-opacity="1"><g transform="translate(1881.293246, 1267.59834)"><g><path d="M 33.265625 1.578125 C 28.503906 1.578125 24.378906 0.894531 20.890625 -0.46875 C 17.410156 -1.84375 14.507812 -3.375 12.1875 -5.0625 C 9.445312 -6.96875 7.234375 -9.238281 5.546875 -11.875 L 13.46875 -19.796875 C 14.9375 -17.679688 16.625 -15.832031 18.53125 -14.25 C 20.21875 -12.769531 22.300781 -11.472656 24.78125 -10.359375 C 27.257812 -9.253906 30.085938 -8.703125 33.265625 -8.703125 C 38.859375 -8.703125 43.023438 -9.914062 45.765625 -12.34375 C 48.515625 -14.78125 49.890625 -17.789062 49.890625 -21.375 C 49.890625 -24.226562 48.859375 -26.5 46.796875 -28.1875 C 44.742188 -29.875 42.210938 -31.269531 39.203125 -32.375 C 36.191406 -33.488281 32.890625 -34.546875 29.296875 -35.546875 C 25.710938 -36.554688 22.414062 -37.851562 19.40625 -39.4375 C 16.394531 -41.019531 13.859375 -43.128906 11.796875 -45.765625 C 9.734375 -48.410156 8.703125 -51.894531 8.703125 -56.21875 C 8.703125 -58.96875 9.3125 -61.632812 10.53125 -64.21875 C 11.75 -66.800781 13.460938 -69.070312 15.671875 -71.03125 C 17.890625 -72.988281 20.554688 -74.570312 23.671875 -75.78125 C 26.785156 -77 30.242188 -77.609375 34.046875 -77.609375 C 38.054688 -77.609375 41.566406 -77.050781 44.578125 -75.9375 C 47.585938 -74.832031 50.148438 -73.644531 52.265625 -72.375 C 54.691406 -70.894531 56.800781 -69.207031 58.59375 -67.3125 L 50.6875 -59.390625 C 49.519531 -60.867188 48.144531 -62.1875 46.5625 -63.34375 C 45.082031 -64.300781 43.3125 -65.203125 41.25 -66.046875 C 39.195312 -66.890625 36.796875 -67.3125 34.046875 -67.3125 C 29.722656 -67.3125 26.265625 -66.148438 23.671875 -63.828125 C 21.085938 -61.503906 19.796875 -58.96875 19.796875 -56.21875 C 19.796875 -53.476562 20.820312 -51.316406 22.875 -49.734375 C 24.9375 -48.148438 27.472656 -46.828125 30.484375 -45.765625 C 33.492188 -44.710938 36.789062 -43.679688 40.375 -42.671875 C 43.96875 -41.671875 47.269531 -40.351562 50.28125 -38.71875 C 53.289062 -37.082031 55.820312 -34.890625 57.875 -32.140625 C 59.9375 -29.398438 60.96875 -25.8125 60.96875 -21.375 C 60.96875 -18.207031 60.332031 -15.222656 59.0625 -12.421875 C 57.800781 -9.628906 55.984375 -7.203125 53.609375 -5.140625 C 51.234375 -3.085938 48.328125 -1.453125 44.890625 -0.234375 C 41.460938 0.972656 37.585938 1.578125 33.265625 1.578125 Z M 33.265625 1.578125 "/></g></g></g><g fill="#fefefe" fill-opacity="1"><g transform="translate(1949.393029, 1267.59834)"><g/></g></g><g fill="#fefefe" fill-opacity="1"><g transform="translate(1982.651052, 1267.59834)"><g><path d="M 16.625 -110.859375 L 26.921875 -110.859375 L 72.859375 -50.6875 L 118.78125 -110.859375 L 129.078125 -110.859375 L 129.078125 0 L 117.203125 0 L 117.203125 -90.28125 L 72.859375 -31.671875 L 28.5 -90.28125 L 28.5 0 L 16.625 0 Z M 16.625 -110.859375 "/></g></g></g><g fill="#fefefe" fill-opacity="1"><g transform="translate(2128.352853, 1267.59834)"><g><path d="M 45.140625 1.578125 C 39.960938 1.578125 35.078125 0.550781 30.484375 -1.5 C 25.890625 -3.5625 21.847656 -6.359375 18.359375 -9.890625 C 14.878906 -13.429688 12.132812 -17.601562 10.125 -22.40625 C 8.125 -27.207031 7.125 -32.410156 7.125 -38.015625 C 7.125 -43.503906 8.125 -48.675781 10.125 -53.53125 C 12.132812 -58.382812 14.851562 -62.578125 18.28125 -66.109375 C 21.71875 -69.648438 25.679688 -72.453125 30.171875 -74.515625 C 34.660156 -76.578125 39.382812 -77.609375 44.34375 -77.609375 C 49.519531 -77.609375 54.320312 -76.65625 58.75 -74.75 C 63.1875 -72.851562 67.039062 -70.238281 70.3125 -66.90625 C 73.59375 -63.582031 76.15625 -59.570312 78 -54.875 C 79.84375 -50.175781 80.765625 -45.082031 80.765625 -39.59375 C 80.765625 -38.75 80.710938 -37.984375 80.609375 -37.296875 C 80.503906 -36.609375 80.398438 -36 80.296875 -35.46875 C 80.191406 -34.84375 80.085938 -34.316406 79.984375 -33.890625 L 18.21875 -34.046875 C 18.425781 -30.671875 19.269531 -27.453125 20.75 -24.390625 C 22.226562 -21.328125 24.179688 -18.632812 26.609375 -16.3125 C 29.035156 -13.988281 31.832031 -12.140625 35 -10.765625 C 38.164062 -9.390625 41.546875 -8.703125 45.140625 -8.703125 C 49.148438 -8.703125 52.660156 -9.363281 55.671875 -10.6875 C 58.679688 -12.007812 61.238281 -13.460938 63.34375 -15.046875 C 65.78125 -16.941406 67.894531 -19.050781 69.6875 -21.375 L 76.8125 -14.25 C 74.59375 -11.289062 71.898438 -8.648438 68.734375 -6.328125 C 65.984375 -4.328125 62.65625 -2.507812 58.75 -0.875 C 54.84375 0.757812 50.304688 1.578125 45.140625 1.578125 Z M 69.6875 -43.546875 C 69.257812 -46.929688 68.332031 -50.070312 66.90625 -52.96875 C 65.488281 -55.875 63.671875 -58.382812 61.453125 -60.5 C 59.234375 -62.613281 56.671875 -64.273438 53.765625 -65.484375 C 50.859375 -66.703125 47.71875 -67.3125 44.34375 -67.3125 C 40.96875 -67.3125 37.773438 -66.675781 34.765625 -65.40625 C 31.753906 -64.144531 29.085938 -62.40625 26.765625 -60.1875 C 24.441406 -57.96875 22.539062 -55.429688 21.0625 -52.578125 C 19.582031 -49.722656 18.632812 -46.710938 18.21875 -43.546875 Z M 69.6875 -43.546875 "/></g></g></g><g fill="#fefefe" fill-opacity="1"><g transform="translate(2216.248984, 1267.59834)"><g><path d="M 45.140625 1.578125 C 39.960938 1.578125 35.078125 0.550781 30.484375 -1.5 C 25.890625 -3.5625 21.847656 -6.359375 18.359375 -9.890625 C 14.878906 -13.429688 12.132812 -17.601562 10.125 -22.40625 C 8.125 -27.207031 7.125 -32.410156 7.125 -38.015625 C 7.125 -43.503906 8.125 -48.675781 10.125 -53.53125 C 12.132812 -58.382812 14.851562 -62.578125 18.28125 -66.109375 C 21.71875 -69.648438 25.679688 -72.453125 30.171875 -74.515625 C 34.660156 -76.578125 39.382812 -77.609375 44.34375 -77.609375 C 49.519531 -77.609375 54.320312 -76.65625 58.75 -74.75 C 63.1875 -72.851562 67.039062 -70.238281 70.3125 -66.90625 C 73.59375 -63.582031 76.15625 -59.570312 78 -54.875 C 79.84375 -50.175781 80.765625 -45.082031 80.765625 -39.59375 C 80.765625 -38.75 80.710938 -37.984375 80.609375 -37.296875 C 80.503906 -36.609375 80.398438 -36 80.296875 -35.46875 C 80.191406 -34.84375 80.085938 -34.316406 79.984375 -33.890625 L 18.21875 -34.046875 C 18.425781 -30.671875 19.269531 -27.453125 20.75 -24.390625 C 22.226562 -21.328125 24.179688 -18.632812 26.609375 -16.3125 C 29.035156 -13.988281 31.832031 -12.140625 35 -10.765625 C 38.164062 -9.390625 41.546875 -8.703125 45.140625 -8.703125 C 49.148438 -8.703125 52.660156 -9.363281 55.671875 -10.6875 C 58.679688 -12.007812 61.238281 -13.460938 63.34375 -15.046875 C 65.78125 -16.941406 67.894531 -19.050781 69.6875 -21.375 L 76.8125 -14.25 C 74.59375 -11.289062 71.898438 -8.648438 68.734375 -6.328125 C 65.984375 -4.328125 62.65625 -2.507812 58.75 -0.875 C 54.84375 0.757812 50.304688 1.578125 45.140625 1.578125 Z M 69.6875 -43.546875 C 69.257812 -46.929688 68.332031 -50.070312 66.90625 -52.96875 C 65.488281 -55.875 63.671875 -58.382812 61.453125 -60.5 C 59.234375 -62.613281 56.671875 -64.273438 53.765625 -65.484375 C 50.859375 -66.703125 47.71875 -67.3125 44.34375 -67.3125 C 40.96875 -67.3125 37.773438 -66.675781 34.765625 -65.40625 C 31.753906 -64.144531 29.085938 -62.40625 26.765625 -60.1875 C 24.441406 -57.96875 22.539062 -55.429688 21.0625 -52.578125 C 19.582031 -49.722656 18.632812 -46.710938 18.21875 -43.546875 Z M 69.6875 -43.546875 "/></g></g></g><g fill="#fefefe" fill-opacity="1"><g transform="translate(2304.145115, 1267.59834)"><g><path d="M 39.90625 1.578125 C 33.363281 1.578125 28.242188 -0.316406 24.546875 -4.109375 C 20.847656 -7.910156 19 -13.40625 19 -20.59375 L 19 -65.71875 L 4.75 -65.71875 L 4.75 -76.015625 L 13.46875 -76.015625 C 17.6875 -76.015625 19.796875 -78.65625 19.796875 -83.9375 L 19.796875 -101.359375 L 30.09375 -101.359375 L 30.09375 -76.015625 L 46.71875 -76.015625 L 46.71875 -65.71875 L 30.09375 -65.71875 L 30.09375 -20.59375 C 30.09375 -16.582031 31.015625 -13.597656 32.859375 -11.640625 C 34.710938 -9.679688 37.222656 -8.703125 40.390625 -8.703125 C 41.753906 -8.703125 43.070312 -8.804688 44.34375 -9.015625 C 45.613281 -9.234375 46.722656 -9.5 47.671875 -9.8125 C 48.828125 -10.238281 49.832031 -10.664062 50.6875 -11.09375 L 50.6875 -0.796875 C 49.726562 -0.367188 48.671875 0.0507812 47.515625 0.46875 C 46.566406 0.789062 45.429688 1.054688 44.109375 1.265625 C 42.785156 1.472656 41.382812 1.578125 39.90625 1.578125 Z M 39.90625 1.578125 "/></g></g></g><g fill="#fefefe" fill-opacity="1"><g transform="translate(2361.158921, 1267.59834)"><g><path d="M 33.265625 1.578125 C 28.503906 1.578125 24.378906 0.894531 20.890625 -0.46875 C 17.410156 -1.84375 14.507812 -3.375 12.1875 -5.0625 C 9.445312 -6.96875 7.234375 -9.238281 5.546875 -11.875 L 13.46875 -19.796875 C 14.9375 -17.679688 16.625 -15.832031 18.53125 -14.25 C 20.21875 -12.769531 22.300781 -11.472656 24.78125 -10.359375 C 27.257812 -9.253906 30.085938 -8.703125 33.265625 -8.703125 C 38.859375 -8.703125 43.023438 -9.914062 45.765625 -12.34375 C 48.515625 -14.78125 49.890625 -17.789062 49.890625 -21.375 C 49.890625 -24.226562 48.859375 -26.5 46.796875 -28.1875 C 44.742188 -29.875 42.210938 -31.269531 39.203125 -32.375 C 36.191406 -33.488281 32.890625 -34.546875 29.296875 -35.546875 C 25.710938 -36.554688 22.414062 -37.851562 19.40625 -39.4375 C 16.394531 -41.019531 13.859375 -43.128906 11.796875 -45.765625 C 9.734375 -48.410156 8.703125 -51.894531 8.703125 -56.21875 C 8.703125 -58.96875 9.3125 -61.632812 10.53125 -64.21875 C 11.75 -66.800781 13.460938 -69.070312 15.671875 -71.03125 C 17.890625 -72.988281 20.554688 -74.570312 23.671875 -75.78125 C 26.785156 -77 30.242188 -77.609375 34.046875 -77.609375 C 38.054688 -77.609375 41.566406 -77.050781 44.578125 -75.9375 C 47.585938 -74.832031 50.148438 -73.644531 52.265625 -72.375 C 54.691406 -70.894531 56.800781 -69.207031 58.59375 -67.3125 L 50.6875 -59.390625 C 49.519531 -60.867188 48.144531 -62.1875 46.5625 -63.34375 C 45.082031 -64.300781 43.3125 -65.203125 41.25 -66.046875 C 39.195312 -66.890625 36.796875 -67.3125 34.046875 -67.3125 C 29.722656 -67.3125 26.265625 -66.148438 23.671875 -63.828125 C 21.085938 -61.503906 19.796875 -58.96875 19.796875 -56.21875 C 19.796875 -53.476562 20.820312 -51.316406 22.875 -49.734375 C 24.9375 -48.148438 27.472656 -46.828125 30.484375 -45.765625 C 33.492188 -44.710938 36.789062 -43.679688 40.375 -42.671875 C 43.96875 -41.671875 47.269531 -40.351562 50.28125 -38.71875 C 53.289062 -37.082031 55.820312 -34.890625 57.875 -32.140625 C 59.9375 -29.398438 60.96875 -25.8125 60.96875 -21.375 C 60.96875 -18.207031 60.332031 -15.222656 59.0625 -12.421875 C 57.800781 -9.628906 55.984375 -7.203125 53.609375 -5.140625 C 51.234375 -3.085938 48.328125 -1.453125 44.890625 -0.234375 C 41.460938 0.972656 37.585938 1.578125 33.265625 1.578125 Z M 33.265625 1.578125 "/></g></g></g><g fill="#fefefe" fill-opacity="1"><g transform="translate(2429.258703, 1267.59834)"><g/></g></g><g fill="#fefefe" fill-opacity="1"><g transform="translate(2462.516635, 1267.59834)"><g><path d="M 16.625 -110.859375 L 92.65625 -110.859375 L 92.65625 -99.78125 L 28.5 -99.78125 L 28.5 -63.34375 L 79.984375 -63.34375 L 79.984375 -52.265625 L 28.5 -52.265625 L 28.5 -11.09375 L 94.234375 -11.09375 L 94.234375 0 L 16.625 0 Z M 16.625 -110.859375 "/></g></g></g><g fill="#fefefe" fill-opacity="1"><g transform="translate(2563.874349, 1267.59834)"><g><path d="M 12.671875 -76.015625 L 23.75 -76.015625 L 23.75 -64.9375 C 25.332031 -67.257812 27.34375 -69.367188 29.78125 -71.265625 C 31.882812 -72.847656 34.441406 -74.300781 37.453125 -75.625 C 40.460938 -76.945312 44.078125 -77.609375 48.296875 -77.609375 C 52.835938 -77.609375 57.007812 -76.84375 60.8125 -75.3125 C 64.613281 -73.78125 67.859375 -71.613281 70.546875 -68.8125 C 73.242188 -66.007812 75.359375 -62.601562 76.890625 -58.59375 C 78.421875 -54.582031 79.1875 -50.097656 79.1875 -45.140625 L 79.1875 0 L 68.09375 0 L 68.09375 -45.140625 C 68.09375 -51.890625 66.164062 -57.269531 62.3125 -61.28125 C 58.46875 -65.300781 53.535156 -67.3125 47.515625 -67.3125 C 44.128906 -67.3125 40.984375 -66.703125 38.078125 -65.484375 C 35.179688 -64.273438 32.675781 -62.5625 30.5625 -60.34375 C 28.457031 -58.125 26.796875 -55.457031 25.578125 -52.34375 C 24.359375 -49.226562 23.75 -45.769531 23.75 -41.96875 L 23.75 0 L 12.671875 0 Z M 12.671875 -76.015625 "/></g></g></g><g fill="#fefefe" fill-opacity="1"><g transform="translate(2655.729823, 1267.59834)"><g><path d="M 41.96875 33.265625 C 36.582031 33.265625 31.910156 32.441406 27.953125 30.796875 C 23.992188 29.160156 20.695312 27.34375 18.0625 25.34375 C 15 23.019531 12.410156 20.378906 10.296875 17.421875 L 17.421875 10.296875 C 19.210938 12.617188 21.320312 14.726562 23.75 16.625 C 25.863281 18.207031 28.425781 19.660156 31.4375 20.984375 C 34.445312 22.304688 37.957031 22.96875 41.96875 22.96875 C 45.5625 22.96875 48.941406 22.253906 52.109375 20.828125 C 55.273438 19.398438 58.046875 17.472656 60.421875 15.046875 C 62.796875 12.617188 64.664062 9.710938 66.03125 6.328125 C 67.40625 2.953125 68.09375 -0.738281 68.09375 -4.75 L 68.09375 -13.46875 C 66.625 -11.25 64.671875 -9.238281 62.234375 -7.4375 C 60.128906 -5.957031 57.492188 -4.609375 54.328125 -3.390625 C 51.160156 -2.179688 47.304688 -1.578125 42.765625 -1.578125 C 37.796875 -1.578125 33.144531 -2.550781 28.8125 -4.5 C 24.488281 -6.457031 20.71875 -9.148438 17.5 -12.578125 C 14.28125 -16.015625 11.742188 -20.03125 9.890625 -24.625 C 8.046875 -29.21875 7.125 -34.207031 7.125 -39.59375 C 7.125 -44.976562 8.046875 -49.96875 9.890625 -54.5625 C 11.742188 -59.15625 14.28125 -63.164062 17.5 -66.59375 C 20.71875 -70.03125 24.488281 -72.722656 28.8125 -74.671875 C 33.144531 -76.628906 37.796875 -77.609375 42.765625 -77.609375 C 47.304688 -77.609375 51.160156 -76.972656 54.328125 -75.703125 C 57.492188 -74.429688 60.128906 -73.054688 62.234375 -71.578125 C 64.671875 -69.785156 66.625 -67.832031 68.09375 -65.71875 L 68.09375 -76.015625 L 79.1875 -76.015625 L 79.1875 -4.75 C 79.1875 0.632812 78.207031 5.625 76.25 10.21875 C 74.300781 14.8125 71.632812 18.820312 68.25 22.25 C 64.875 25.6875 60.941406 28.378906 56.453125 30.328125 C 51.972656 32.285156 47.144531 33.265625 41.96875 33.265625 Z M 42.765625 -11.875 C 46.347656 -11.875 49.671875 -12.585938 52.734375 -14.015625 C 55.796875 -15.441406 58.460938 -17.367188 60.734375 -19.796875 C 63.003906 -22.222656 64.796875 -25.125 66.109375 -28.5 C 67.429688 -31.882812 68.09375 -35.582031 68.09375 -39.59375 C 68.09375 -43.5 67.429688 -47.164062 66.109375 -50.59375 C 64.796875 -54.03125 63.003906 -56.960938 60.734375 -59.390625 C 58.460938 -61.816406 55.796875 -63.742188 52.734375 -65.171875 C 49.671875 -66.597656 46.347656 -67.3125 42.765625 -67.3125 C 39.378906 -67.3125 36.207031 -66.597656 33.25 -65.171875 C 30.300781 -63.742188 27.71875 -61.816406 25.5 -59.390625 C 23.28125 -56.960938 21.507812 -54.03125 20.1875 -50.59375 C 18.875 -47.164062 18.21875 -43.5 18.21875 -39.59375 C 18.21875 -35.582031 18.875 -31.882812 20.1875 -28.5 C 21.507812 -25.125 23.28125 -22.222656 25.5 -19.796875 C 27.71875 -17.367188 30.300781 -15.441406 33.25 -14.015625 C 36.207031 -12.585938 39.378906 -11.875 42.765625 -11.875 Z M 42.765625 -11.875 "/></g></g></g><g fill="#fefefe" fill-opacity="1"><g transform="translate(2747.585297, 1267.59834)"><g><path d="M 12.671875 -76.015625 L 23.75 -76.015625 L 23.75 0 L 12.671875 0 Z M 18.21875 -94.234375 C 16.207031 -94.234375 14.515625 -94.914062 13.140625 -96.28125 C 11.773438 -97.65625 11.09375 -99.347656 11.09375 -101.359375 C 11.09375 -103.367188 11.773438 -105.054688 13.140625 -106.421875 C 14.515625 -107.796875 16.207031 -108.484375 18.21875 -108.484375 C 20.21875 -108.484375 21.90625 -107.796875 23.28125 -106.421875 C 24.65625 -105.054688 25.34375 -103.367188 25.34375 -101.359375 C 25.34375 -99.347656 24.65625 -97.65625 23.28125 -96.28125 C 21.90625 -94.914062 20.21875 -94.234375 18.21875 -94.234375 Z M 18.21875 -94.234375 "/></g></g></g><g fill="#fefefe" fill-opacity="1"><g transform="translate(2784.010885, 1267.59834)"><g><path d="M 12.671875 -76.015625 L 23.75 -76.015625 L 23.75 -64.9375 C 25.332031 -67.257812 27.34375 -69.367188 29.78125 -71.265625 C 31.882812 -72.847656 34.441406 -74.300781 37.453125 -75.625 C 40.460938 -76.945312 44.078125 -77.609375 48.296875 -77.609375 C 52.835938 -77.609375 57.007812 -76.84375 60.8125 -75.3125 C 64.613281 -73.78125 67.859375 -71.613281 70.546875 -68.8125 C 73.242188 -66.007812 75.359375 -62.601562 76.890625 -58.59375 C 78.421875 -54.582031 79.1875 -50.097656 79.1875 -45.140625 L 79.1875 0 L 68.09375 0 L 68.09375 -45.140625 C 68.09375 -51.890625 66.164062 -57.269531 62.3125 -61.28125 C 58.46875 -65.300781 53.535156 -67.3125 47.515625 -67.3125 C 44.128906 -67.3125 40.984375 -66.703125 38.078125 -65.484375 C 35.179688 -64.273438 32.675781 -62.5625 30.5625 -60.34375 C 28.457031 -58.125 26.796875 -55.457031 25.578125 -52.34375 C 24.359375 -49.226562 23.75 -45.769531 23.75 -41.96875 L 23.75 0 L 12.671875 0 Z M 12.671875 -76.015625 "/></g></g></g><g fill="#fefefe" fill-opacity="1"><g transform="translate(2875.86636, 1267.59834)"><g><path d="M 45.140625 1.578125 C 39.960938 1.578125 35.078125 0.550781 30.484375 -1.5 C 25.890625 -3.5625 21.847656 -6.359375 18.359375 -9.890625 C 14.878906 -13.429688 12.132812 -17.601562 10.125 -22.40625 C 8.125 -27.207031 7.125 -32.410156 7.125 -38.015625 C 7.125 -43.503906 8.125 -48.675781 10.125 -53.53125 C 12.132812 -58.382812 14.851562 -62.578125 18.28125 -66.109375 C 21.71875 -69.648438 25.679688 -72.453125 30.171875 -74.515625 C 34.660156 -76.578125 39.382812 -77.609375 44.34375 -77.609375 C 49.519531 -77.609375 54.320312 -76.65625 58.75 -74.75 C 63.1875 -72.851562 67.039062 -70.238281 70.3125 -66.90625 C 73.59375 -63.582031 76.15625 -59.570312 78 -54.875 C 79.84375 -50.175781 80.765625 -45.082031 80.765625 -39.59375 C 80.765625 -38.75 80.710938 -37.984375 80.609375 -37.296875 C 80.503906 -36.609375 80.398438 -36 80.296875 -35.46875 C 80.191406 -34.84375 80.085938 -34.316406 79.984375 -33.890625 L 18.21875 -34.046875 C 18.425781 -30.671875 19.269531 -27.453125 20.75 -24.390625 C 22.226562 -21.328125 24.179688 -18.632812 26.609375 -16.3125 C 29.035156 -13.988281 31.832031 -12.140625 35 -10.765625 C 38.164062 -9.390625 41.546875 -8.703125 45.140625 -8.703125 C 49.148438 -8.703125 52.660156 -9.363281 55.671875 -10.6875 C 58.679688 -12.007812 61.238281 -13.460938 63.34375 -15.046875 C 65.78125 -16.941406 67.894531 -19.050781 69.6875 -21.375 L 76.8125 -14.25 C 74.59375 -11.289062 71.898438 -8.648438 68.734375 -6.328125 C 65.984375 -4.328125 62.65625 -2.507812 58.75 -0.875 C 54.84375 0.757812 50.304688 1.578125 45.140625 1.578125 Z M 69.6875 -43.546875 C 69.257812 -46.929688 68.332031 -50.070312 66.90625 -52.96875 C 65.488281 -55.875 63.671875 -58.382812 61.453125 -60.5 C 59.234375 -62.613281 56.671875 -64.273438 53.765625 -65.484375 C 50.859375 -66.703125 47.71875 -67.3125 44.34375 -67.3125 C 40.96875 -67.3125 37.773438 -66.675781 34.765625 -65.40625 C 31.753906 -64.144531 29.085938 -62.40625 26.765625 -60.1875 C 24.441406 -57.96875 22.539062 -55.429688 21.0625 -52.578125 C 19.582031 -49.722656 18.632812 -46.710938 18.21875 -43.546875 Z M 69.6875 -43.546875 "/></g></g></g><g fill="#fefefe" fill-opacity="1"><g transform="translate(2963.762399, 1267.59834)"><g><path d="M 45.140625 1.578125 C 39.960938 1.578125 35.078125 0.550781 30.484375 -1.5 C 25.890625 -3.5625 21.847656 -6.359375 18.359375 -9.890625 C 14.878906 -13.429688 12.132812 -17.601562 10.125 -22.40625 C 8.125 -27.207031 7.125 -32.410156 7.125 -38.015625 C 7.125 -43.503906 8.125 -48.675781 10.125 -53.53125 C 12.132812 -58.382812 14.851562 -62.578125 18.28125 -66.109375 C 21.71875 -69.648438 25.679688 -72.453125 30.171875 -74.515625 C 34.660156 -76.578125 39.382812 -77.609375 44.34375 -77.609375 C 49.519531 -77.609375 54.320312 -76.65625 58.75 -74.75 C 63.1875 -72.851562 67.039062 -70.238281 70.3125 -66.90625 C 73.59375 -63.582031 76.15625 -59.570312 78 -54.875 C 79.84375 -50.175781 80.765625 -45.082031 80.765625 -39.59375 C 80.765625 -38.75 80.710938 -37.984375 80.609375 -37.296875 C 80.503906 -36.609375 80.398438 -36 80.296875 -35.46875 C 80.191406 -34.84375 80.085938 -34.316406 79.984375 -33.890625 L 18.21875 -34.046875 C 18.425781 -30.671875 19.269531 -27.453125 20.75 -24.390625 C 22.226562 -21.328125 24.179688 -18.632812 26.609375 -16.3125 C 29.035156 -13.988281 31.832031 -12.140625 35 -10.765625 C 38.164062 -9.390625 41.546875 -8.703125 45.140625 -8.703125 C 49.148438 -8.703125 52.660156 -9.363281 55.671875 -10.6875 C 58.679688 -12.007812 61.238281 -13.460938 63.34375 -15.046875 C 65.78125 -16.941406 67.894531 -19.050781 69.6875 -21.375 L 76.8125 -14.25 C 74.59375 -11.289062 71.898438 -8.648438 68.734375 -6.328125 C 65.984375 -4.328125 62.65625 -2.507812 58.75 -0.875 C 54.84375 0.757812 50.304688 1.578125 45.140625 1.578125 Z M 69.6875 -43.546875 C 69.257812 -46.929688 68.332031 -50.070312 66.90625 -52.96875 C 65.488281 -55.875 63.671875 -58.382812 61.453125 -60.5 C 59.234375 -62.613281 56.671875 -64.273438 53.765625 -65.484375 C 50.859375 -66.703125 47.71875 -67.3125 44.34375 -67.3125 C 40.96875 -67.3125 37.773438 -66.675781 34.765625 -65.40625 C 31.753906 -64.144531 29.085938 -62.40625 26.765625 -60.1875 C 24.441406 -57.96875 22.539062 -55.429688 21.0625 -52.578125 C 19.582031 -49.722656 18.632812 -46.710938 18.21875 -43.546875 Z M 69.6875 -43.546875 "/></g></g></g><g fill="#fefefe" fill-opacity="1"><g transform="translate(3051.658621, 1267.59834)"><g><path d="M 12.671875 -76.015625 L 23.75 -76.015625 L 23.75 -65.71875 C 25.445312 -67.832031 27.507812 -69.785156 29.9375 -71.578125 C 32.039062 -73.054688 34.648438 -74.429688 37.765625 -75.703125 C 40.878906 -76.972656 44.65625 -77.609375 49.09375 -77.609375 L 52.265625 -77.609375 L 52.265625 -66.515625 L 47.515625 -66.515625 C 44.347656 -66.515625 41.335938 -65.929688 38.484375 -64.765625 C 35.628906 -63.609375 33.09375 -61.972656 30.875 -59.859375 C 28.664062 -57.753906 26.925781 -55.195312 25.65625 -52.1875 C 24.382812 -49.175781 23.75 -45.769531 23.75 -41.96875 L 23.75 0 L 12.671875 0 Z M 12.671875 -76.015625 "/></g></g></g><g fill="#fefefe" fill-opacity="1"><g transform="translate(3106.29673, 1267.59834)"><g><path d="M 33.265625 1.578125 C 28.503906 1.578125 24.378906 0.894531 20.890625 -0.46875 C 17.410156 -1.84375 14.507812 -3.375 12.1875 -5.0625 C 9.445312 -6.96875 7.234375 -9.238281 5.546875 -11.875 L 13.46875 -19.796875 C 14.9375 -17.679688 16.625 -15.832031 18.53125 -14.25 C 20.21875 -12.769531 22.300781 -11.472656 24.78125 -10.359375 C 27.257812 -9.253906 30.085938 -8.703125 33.265625 -8.703125 C 38.859375 -8.703125 43.023438 -9.914062 45.765625 -12.34375 C 48.515625 -14.78125 49.890625 -17.789062 49.890625 -21.375 C 49.890625 -24.226562 48.859375 -26.5 46.796875 -28.1875 C 44.742188 -29.875 42.210938 -31.269531 39.203125 -32.375 C 36.191406 -33.488281 32.890625 -34.546875 29.296875 -35.546875 C 25.710938 -36.554688 22.414062 -37.851562 19.40625 -39.4375 C 16.394531 -41.019531 13.859375 -43.128906 11.796875 -45.765625 C 9.734375 -48.410156 8.703125 -51.894531 8.703125 -56.21875 C 8.703125 -58.96875 9.3125 -61.632812 10.53125 -64.21875 C 11.75 -66.800781 13.460938 -69.070312 15.671875 -71.03125 C 17.890625 -72.988281 20.554688 -74.570312 23.671875 -75.78125 C 26.785156 -77 30.242188 -77.609375 34.046875 -77.609375 C 38.054688 -77.609375 41.566406 -77.050781 44.578125 -75.9375 C 47.585938 -74.832031 50.148438 -73.644531 52.265625 -72.375 C 54.691406 -70.894531 56.800781 -69.207031 58.59375 -67.3125 L 50.6875 -59.390625 C 49.519531 -60.867188 48.144531 -62.1875 46.5625 -63.34375 C 45.082031 -64.300781 43.3125 -65.203125 41.25 -66.046875 C 39.195312 -66.890625 36.796875 -67.3125 34.046875 -67.3125 C 29.722656 -67.3125 26.265625 -66.148438 23.671875 -63.828125 C 21.085938 -61.503906 19.796875 -58.96875 19.796875 -56.21875 C 19.796875 -53.476562 20.820312 -51.316406 22.875 -49.734375 C 24.9375 -48.148438 27.472656 -46.828125 30.484375 -45.765625 C 33.492188 -44.710938 36.789062 -43.679688 40.375 -42.671875 C 43.96875 -41.671875 47.269531 -40.351562 50.28125 -38.71875 C 53.289062 -37.082031 55.820312 -34.890625 57.875 -32.140625 C 59.9375 -29.398438 60.96875 -25.8125 60.96875 -21.375 C 60.96875 -18.207031 60.332031 -15.222656 59.0625 -12.421875 C 57.800781 -9.628906 55.984375 -7.203125 53.609375 -5.140625 C 51.234375 -3.085938 48.328125 -1.453125 44.890625 -0.234375 C 41.460938 0.972656 37.585938 1.578125 33.265625 1.578125 Z M 33.265625 1.578125 "/></g></g></g></svg>