<svg xmlns="http://www.w3.org/2000/svg" xmlns:xlink="http://www.w3.org/1999/xlink" width="52" zoomAndPan="magnify" viewBox="0 0 39 15.75" height="21" preserveAspectRatio="xMidYMid meet" version="1.0"><defs><g/><clipPath id="b9b19439a1"><path d="M 0.375 0.417969 L 32.269531 0.417969 L 32.269531 12.464844 L 0.375 12.464844 Z M 0.375 0.417969 " clip-rule="nonzero"/></clipPath><clipPath id="c5c5760949"><path d="M 0.375 3 L 5 3 L 5 10 L 0.375 10 Z M 0.375 3 " clip-rule="nonzero"/></clipPath><clipPath id="773376ae5e"><rect x="0" width="33" y="0" height="13"/></clipPath><clipPath id="679ece410b"><path d="M 3.816406 5.851562 L 4.667969 5.851562 L 4.667969 6.90625 L 3.816406 6.90625 Z M 3.816406 5.851562 " clip-rule="nonzero"/></clipPath><clipPath id="988051b459"><path d="M 4.242188 5.851562 C 4.003906 5.851562 3.816406 6.089844 3.816406 6.378906 C 3.816406 6.671875 4.003906 6.90625 4.242188 6.90625 C 4.476562 6.90625 4.667969 6.671875 4.667969 6.378906 C 4.667969 6.089844 4.476562 5.851562 4.242188 5.851562 Z M 4.242188 5.851562 " clip-rule="nonzero"/></clipPath><clipPath id="cd739f2f68"><path d="M 0.816406 0.851562 L 1.667969 0.851562 L 1.667969 1.90625 L 0.816406 1.90625 Z M 0.816406 0.851562 " clip-rule="nonzero"/></clipPath><clipPath id="baaae0520f"><path d="M 1.242188 0.851562 C 1.003906 0.851562 0.816406 1.089844 0.816406 1.378906 C 0.816406 1.671875 1.003906 1.90625 1.242188 1.90625 C 1.476562 1.90625 1.667969 1.671875 1.667969 1.378906 C 1.667969 1.089844 1.476562 0.851562 1.242188 0.851562 Z M 1.242188 0.851562 " clip-rule="nonzero"/></clipPath><clipPath id="8a82258718"><rect x="0" width="2" y="0" height="2"/></clipPath><clipPath id="b835245f33"><path d="M 31.121094 5.851562 L 32.039062 5.851562 L 32.039062 6.914062 L 31.121094 6.914062 Z M 31.121094 5.851562 " clip-rule="nonzero"/></clipPath><clipPath id="b59fdee1f4"><path d="M 31.578125 5.851562 C 31.328125 5.851562 31.121094 6.089844 31.121094 6.382812 C 31.121094 6.675781 31.328125 6.914062 31.578125 6.914062 C 31.832031 6.914062 32.039062 6.675781 32.039062 6.382812 C 32.039062 6.089844 31.832031 5.851562 31.578125 5.851562 Z M 31.578125 5.851562 " clip-rule="nonzero"/></clipPath><clipPath id="ea68fdb8c1"><path d="M 0.121094 0.851562 L 1.039062 0.851562 L 1.039062 1.914062 L 0.121094 1.914062 Z M 0.121094 0.851562 " clip-rule="nonzero"/></clipPath><clipPath id="cd7f7df4b7"><path d="M 0.578125 0.851562 C 0.328125 0.851562 0.121094 1.089844 0.121094 1.382812 C 0.121094 1.675781 0.328125 1.914062 0.578125 1.914062 C 0.832031 1.914062 1.039062 1.675781 1.039062 1.382812 C 1.039062 1.089844 0.832031 0.851562 0.578125 0.851562 Z M 0.578125 0.851562 " clip-rule="nonzero"/></clipPath><clipPath id="b5e96a5163"><rect x="0" width="2" y="0" height="2"/></clipPath><clipPath id="9fd1525c9b"><rect x="0" width="33" y="0" height="13"/></clipPath><clipPath id="0838dabb93"><path d="M 0.390625 1 L 3 1 L 3 3 L 0.390625 3 Z M 0.390625 1 " clip-rule="nonzero"/></clipPath><clipPath id="584dbe7d71"><path d="M 23 1 L 24.726562 1 L 24.726562 3 L 23 3 Z M 23 1 " clip-rule="nonzero"/></clipPath><clipPath id="194c196596"><rect x="0" width="25" y="0" height="4"/></clipPath></defs><g transform="matrix(1, 0, 0, 1, 3, 1)"><g clip-path="url(#9fd1525c9b)"><g clip-path="url(#b9b19439a1)"><g transform="matrix(1, 0, 0, 1, 0.000000000000000444, 0)"><g clip-path="url(#773376ae5e)"><g clip-path="url(#c5c5760949)"><g fill="#fefefe" fill-opacity="1"><g transform="translate(0.41574, 9.059961)"><g><path d="M 1.875 0 C 1.570312 0 1.300781 -0.0664062 1.0625 -0.203125 C 0.820312 -0.347656 0.628906 -0.535156 0.484375 -0.765625 C 0.335938 -0.992188 0.265625 -1.257812 0.265625 -1.5625 C 0.265625 -1.78125 0.3125 -1.984375 0.40625 -2.171875 C 0.507812 -2.367188 0.644531 -2.539062 0.8125 -2.6875 C 0.65625 -2.820312 0.53125 -2.984375 0.4375 -3.171875 C 0.34375 -3.359375 0.296875 -3.554688 0.296875 -3.765625 C 0.296875 -4.054688 0.363281 -4.316406 0.5 -4.546875 C 0.644531 -4.773438 0.832031 -4.953125 1.0625 -5.078125 C 1.300781 -5.210938 1.566406 -5.28125 1.859375 -5.28125 L 4.078125 -5.28125 L 4.078125 -4.21875 L 2.046875 -4.21875 C 1.953125 -4.21875 1.863281 -4.195312 1.78125 -4.15625 C 1.707031 -4.113281 1.644531 -4.050781 1.59375 -3.96875 C 1.550781 -3.894531 1.53125 -3.8125 1.53125 -3.71875 C 1.53125 -3.613281 1.550781 -3.519531 1.59375 -3.4375 C 1.644531 -3.363281 1.707031 -3.304688 1.78125 -3.265625 C 1.863281 -3.222656 1.953125 -3.203125 2.046875 -3.203125 L 3.828125 -3.203125 L 3.828125 -2.15625 L 2.09375 -2.15625 C 1.988281 -2.15625 1.890625 -2.128906 1.796875 -2.078125 C 1.710938 -2.023438 1.644531 -1.957031 1.59375 -1.875 C 1.550781 -1.800781 1.53125 -1.707031 1.53125 -1.59375 C 1.53125 -1.5 1.550781 -1.410156 1.59375 -1.328125 C 1.644531 -1.242188 1.710938 -1.175781 1.796875 -1.125 C 1.890625 -1.082031 1.988281 -1.0625 2.09375 -1.0625 L 4.078125 -1.0625 L 4.078125 0 Z M 1.875 0 "/></g></g></g></g><g fill="#fefefe" fill-opacity="1"><g transform="translate(4.793921, 9.059961)"><g><path d="M 0.453125 0 L 0.453125 -5.28125 L 2.40625 -5.28125 C 2.957031 -5.28125 3.4375 -5.164062 3.84375 -4.9375 C 4.257812 -4.71875 4.582031 -4.40625 4.8125 -4 C 5.039062 -3.601562 5.15625 -3.148438 5.15625 -2.640625 C 5.15625 -2.128906 5.039062 -1.671875 4.8125 -1.265625 C 4.582031 -0.867188 4.257812 -0.554688 3.84375 -0.328125 C 3.4375 -0.109375 2.957031 0 2.40625 0 Z M 1.734375 -1.0625 L 2.375 -1.0625 C 2.664062 -1.0625 2.925781 -1.125 3.15625 -1.25 C 3.382812 -1.375 3.5625 -1.554688 3.6875 -1.796875 C 3.820312 -2.035156 3.890625 -2.316406 3.890625 -2.640625 C 3.890625 -2.960938 3.820312 -3.242188 3.6875 -3.484375 C 3.5625 -3.722656 3.382812 -3.90625 3.15625 -4.03125 C 2.925781 -4.15625 2.664062 -4.21875 2.375 -4.21875 L 1.734375 -4.21875 Z M 1.734375 -1.0625 "/></g></g></g><g fill="#fefefe" fill-opacity="1"><g transform="translate(10.160968, 9.059961)"><g><path d="M 0.34375 0 L 0.34375 -1.0625 L 1.25 -1.0625 L 1.25 -4.21875 L 0.34375 -4.21875 L 0.34375 -5.28125 L 3.421875 -5.28125 L 3.421875 -4.21875 L 2.515625 -4.21875 L 2.515625 -1.0625 L 3.421875 -1.0625 L 3.421875 0 Z M 0.34375 0 "/></g></g></g><g fill="#fefefe" fill-opacity="1"><g transform="translate(13.927712, 9.059961)"><g><path d="M 4.1875 0.09375 C 3.863281 0.09375 3.578125 0.0234375 3.328125 -0.109375 C 3.078125 -0.253906 2.878906 -0.445312 2.734375 -0.6875 C 2.585938 -0.9375 2.515625 -1.21875 2.515625 -1.53125 L 2.515625 -3.84375 C 2.515625 -3.925781 2.492188 -4 2.453125 -4.0625 C 2.410156 -4.125 2.359375 -4.175781 2.296875 -4.21875 C 2.234375 -4.257812 2.160156 -4.28125 2.078125 -4.28125 C 1.992188 -4.28125 1.921875 -4.257812 1.859375 -4.21875 C 1.796875 -4.175781 1.742188 -4.125 1.703125 -4.0625 C 1.660156 -4 1.640625 -3.925781 1.640625 -3.84375 L 1.640625 0 L 0.40625 0 L 0.40625 -3.75 C 0.40625 -4.0625 0.476562 -4.335938 0.625 -4.578125 C 0.769531 -4.828125 0.96875 -5.019531 1.21875 -5.15625 C 1.46875 -5.300781 1.753906 -5.375 2.078125 -5.375 C 2.398438 -5.375 2.6875 -5.300781 2.9375 -5.15625 C 3.1875 -5.019531 3.382812 -4.828125 3.53125 -4.578125 C 3.675781 -4.335938 3.75 -4.0625 3.75 -3.75 L 3.75 -1.4375 C 3.75 -1.363281 3.769531 -1.289062 3.8125 -1.21875 C 3.851562 -1.144531 3.90625 -1.085938 3.96875 -1.046875 C 4.03125 -1.015625 4.097656 -1 4.171875 -1 C 4.253906 -1 4.328125 -1.015625 4.390625 -1.046875 C 4.460938 -1.085938 4.519531 -1.144531 4.5625 -1.21875 C 4.601562 -1.289062 4.625 -1.363281 4.625 -1.4375 L 4.625 -5.28125 L 5.84375 -5.28125 L 5.84375 -1.53125 C 5.84375 -1.21875 5.769531 -0.9375 5.625 -0.6875 C 5.476562 -0.445312 5.28125 -0.253906 5.03125 -0.109375 C 4.78125 0.0234375 4.5 0.09375 4.1875 0.09375 Z M 4.1875 0.09375 "/></g></g></g><g fill="#fefefe" fill-opacity="1"><g transform="translate(20.19304, 9.059961)"><g><path d="M 0.34375 0 L 0.34375 -1.0625 L 1.25 -1.0625 L 1.25 -4.21875 L 0.34375 -4.21875 L 0.34375 -5.28125 L 3.421875 -5.28125 L 3.421875 -4.21875 L 2.515625 -4.21875 L 2.515625 -1.0625 L 3.421875 -1.0625 L 3.421875 0 Z M 0.34375 0 "/></g></g></g><g fill="#fefefe" fill-opacity="1"><g transform="translate(23.393641, 9.059961)"><g><path d="M 3.171875 0 C 2.847656 0 2.566406 -0.0703125 2.328125 -0.21875 C 2.085938 -0.363281 1.894531 -0.554688 1.75 -0.796875 C 1.613281 -1.035156 1.546875 -1.300781 1.546875 -1.59375 L 1.546875 -4.21875 L 0.109375 -4.21875 L 0.109375 -5.28125 L 4.234375 -5.28125 L 4.234375 -4.21875 L 2.8125 -4.21875 L 2.8125 -1.484375 C 2.8125 -1.367188 2.851562 -1.269531 2.9375 -1.1875 C 3.019531 -1.101562 3.117188 -1.0625 3.234375 -1.0625 L 3.65625 -1.0625 L 3.65625 0 Z M 3.171875 0 "/></g></g></g><g fill="#fefefe" fill-opacity="1"><g transform="translate(27.749177, 9.059961)"><g><path d="M 1.875 0 C 1.570312 0 1.300781 -0.0664062 1.0625 -0.203125 C 0.820312 -0.347656 0.628906 -0.535156 0.484375 -0.765625 C 0.335938 -0.992188 0.265625 -1.257812 0.265625 -1.5625 C 0.265625 -1.78125 0.3125 -1.984375 0.40625 -2.171875 C 0.507812 -2.367188 0.644531 -2.539062 0.8125 -2.6875 C 0.65625 -2.820312 0.53125 -2.984375 0.4375 -3.171875 C 0.34375 -3.359375 0.296875 -3.554688 0.296875 -3.765625 C 0.296875 -4.054688 0.363281 -4.316406 0.5 -4.546875 C 0.644531 -4.773438 0.832031 -4.953125 1.0625 -5.078125 C 1.300781 -5.210938 1.566406 -5.28125 1.859375 -5.28125 L 4.078125 -5.28125 L 4.078125 -4.21875 L 2.046875 -4.21875 C 1.953125 -4.21875 1.863281 -4.195312 1.78125 -4.15625 C 1.707031 -4.113281 1.644531 -4.050781 1.59375 -3.96875 C 1.550781 -3.894531 1.53125 -3.8125 1.53125 -3.71875 C 1.53125 -3.613281 1.550781 -3.519531 1.59375 -3.4375 C 1.644531 -3.363281 1.707031 -3.304688 1.78125 -3.265625 C 1.863281 -3.222656 1.953125 -3.203125 2.046875 -3.203125 L 3.828125 -3.203125 L 3.828125 -2.15625 L 2.09375 -2.15625 C 1.988281 -2.15625 1.890625 -2.128906 1.796875 -2.078125 C 1.710938 -2.023438 1.644531 -1.957031 1.59375 -1.875 C 1.550781 -1.800781 1.53125 -1.707031 1.53125 -1.59375 C 1.53125 -1.5 1.550781 -1.410156 1.59375 -1.328125 C 1.644531 -1.242188 1.710938 -1.175781 1.796875 -1.125 C 1.890625 -1.082031 1.988281 -1.0625 2.09375 -1.0625 L 4.078125 -1.0625 L 4.078125 0 Z M 1.875 0 "/></g></g></g></g></g></g><g clip-path="url(#679ece410b)"><g clip-path="url(#988051b459)"><g transform="matrix(1, 0, 0, 1, 3, 5)"><g clip-path="url(#8a82258718)"><g clip-path="url(#cd739f2f68)"><g clip-path="url(#baaae0520f)"><path fill="#ffffff" d="M 0.816406 0.851562 L 1.667969 0.851562 L 1.667969 1.90625 L 0.816406 1.90625 Z M 0.816406 0.851562 " fill-opacity="1" fill-rule="nonzero"/></g></g></g></g></g></g><g clip-path="url(#b835245f33)"><g clip-path="url(#b59fdee1f4)"><g transform="matrix(1, 0, 0, 1, 31, 5)"><g clip-path="url(#b5e96a5163)"><g clip-path="url(#ea68fdb8c1)"><g clip-path="url(#cd7f7df4b7)"><path fill="#ffffff" d="M 0.121094 0.851562 L 1.039062 0.851562 L 1.039062 1.910156 L 0.121094 1.910156 Z M 0.121094 0.851562 " fill-opacity="1" fill-rule="nonzero"/></g></g></g></g></g></g></g></g><g transform="matrix(1, 0, 0, 1, 7, 10)"><g clip-path="url(#194c196596)"><g clip-path="url(#0838dabb93)"><g fill="#fefefe" fill-opacity="1"><g transform="translate(0.616103, 2.478904)"><g><path d="M 0.046875 -1.09375 L 0.171875 -1.09375 L 0.46875 -0.1875 L 0.765625 -1.09375 L 0.875 -1.09375 L 1.171875 -0.1875 L 1.453125 -1.09375 L 1.578125 -1.09375 L 1.21875 0 L 1.109375 0 L 0.8125 -0.921875 L 0.53125 0 L 0.40625 0 Z M 0.046875 -1.09375 "/></g></g></g></g><g fill="#fefefe" fill-opacity="1"><g transform="translate(2.206561, 2.478904)"><g><path d="M 0.140625 -1.09375 L 0.25 -1.09375 L 0.25 -0.640625 C 0.257812 -0.660156 0.273438 -0.679688 0.296875 -0.703125 C 0.316406 -0.722656 0.34375 -0.738281 0.375 -0.75 C 0.40625 -0.757812 0.441406 -0.765625 0.484375 -0.765625 C 0.523438 -0.765625 0.566406 -0.753906 0.609375 -0.734375 C 0.648438 -0.722656 0.679688 -0.703125 0.703125 -0.671875 C 0.734375 -0.648438 0.753906 -0.617188 0.765625 -0.578125 C 0.785156 -0.535156 0.796875 -0.492188 0.796875 -0.453125 L 0.796875 0 L 0.6875 0 L 0.6875 -0.453125 C 0.6875 -0.515625 0.664062 -0.566406 0.625 -0.609375 C 0.582031 -0.648438 0.535156 -0.671875 0.484375 -0.671875 C 0.441406 -0.671875 0.40625 -0.660156 0.375 -0.640625 C 0.351562 -0.628906 0.332031 -0.613281 0.3125 -0.59375 C 0.289062 -0.570312 0.273438 -0.546875 0.265625 -0.515625 C 0.253906 -0.484375 0.25 -0.453125 0.25 -0.421875 L 0.25 0 L 0.140625 0 Z M 0.140625 -1.09375 "/></g></g></g><g fill="#fefefe" fill-opacity="1"><g transform="translate(3.118735, 2.478904)"><g><path d="M 0.453125 0.015625 C 0.398438 0.015625 0.347656 0.00390625 0.296875 -0.015625 C 0.253906 -0.0351562 0.210938 -0.0625 0.171875 -0.09375 C 0.140625 -0.132812 0.113281 -0.175781 0.09375 -0.21875 C 0.0820312 -0.269531 0.078125 -0.320312 0.078125 -0.375 C 0.078125 -0.425781 0.0820312 -0.472656 0.09375 -0.515625 C 0.113281 -0.566406 0.140625 -0.609375 0.171875 -0.640625 C 0.210938 -0.679688 0.253906 -0.710938 0.296875 -0.734375 C 0.335938 -0.753906 0.382812 -0.765625 0.4375 -0.765625 C 0.488281 -0.765625 0.535156 -0.753906 0.578125 -0.734375 C 0.617188 -0.710938 0.65625 -0.6875 0.6875 -0.65625 C 0.726562 -0.625 0.753906 -0.582031 0.765625 -0.53125 C 0.785156 -0.488281 0.796875 -0.441406 0.796875 -0.390625 C 0.796875 -0.378906 0.796875 -0.367188 0.796875 -0.359375 C 0.796875 -0.359375 0.796875 -0.351562 0.796875 -0.34375 C 0.796875 -0.34375 0.796875 -0.335938 0.796875 -0.328125 L 0.1875 -0.34375 C 0.1875 -0.300781 0.191406 -0.265625 0.203125 -0.234375 C 0.222656 -0.210938 0.242188 -0.1875 0.265625 -0.15625 C 0.285156 -0.132812 0.3125 -0.117188 0.34375 -0.109375 C 0.375 -0.0976562 0.410156 -0.09375 0.453125 -0.09375 C 0.484375 -0.09375 0.515625 -0.0976562 0.546875 -0.109375 C 0.578125 -0.117188 0.601562 -0.132812 0.625 -0.15625 C 0.644531 -0.164062 0.664062 -0.1875 0.6875 -0.21875 L 0.765625 -0.140625 C 0.734375 -0.109375 0.703125 -0.0820312 0.671875 -0.0625 C 0.648438 -0.0390625 0.617188 -0.0195312 0.578125 0 C 0.535156 0.0078125 0.492188 0.015625 0.453125 0.015625 Z M 0.6875 -0.4375 C 0.6875 -0.46875 0.675781 -0.492188 0.65625 -0.515625 C 0.644531 -0.546875 0.628906 -0.570312 0.609375 -0.59375 C 0.585938 -0.613281 0.5625 -0.628906 0.53125 -0.640625 C 0.5 -0.660156 0.46875 -0.671875 0.4375 -0.671875 C 0.40625 -0.671875 0.375 -0.660156 0.34375 -0.640625 C 0.3125 -0.628906 0.285156 -0.613281 0.265625 -0.59375 C 0.242188 -0.570312 0.222656 -0.546875 0.203125 -0.515625 C 0.191406 -0.492188 0.1875 -0.46875 0.1875 -0.4375 Z M 0.6875 -0.4375 "/></g></g></g><g fill="#fefefe" fill-opacity="1"><g transform="translate(3.984132, 2.478904)"><g><path d="M 0.125 -0.75 L 0.234375 -0.75 L 0.234375 -0.65625 C 0.253906 -0.675781 0.273438 -0.691406 0.296875 -0.703125 C 0.316406 -0.722656 0.34375 -0.738281 0.375 -0.75 C 0.40625 -0.757812 0.441406 -0.765625 0.484375 -0.765625 L 0.515625 -0.765625 L 0.515625 -0.65625 L 0.46875 -0.65625 C 0.4375 -0.65625 0.40625 -0.648438 0.375 -0.640625 C 0.351562 -0.628906 0.328125 -0.613281 0.296875 -0.59375 C 0.273438 -0.570312 0.257812 -0.546875 0.25 -0.515625 C 0.238281 -0.484375 0.234375 -0.453125 0.234375 -0.421875 L 0.234375 0 L 0.125 0 Z M 0.125 -0.75 "/></g></g></g><g fill="#fefefe" fill-opacity="1"><g transform="translate(4.506488, 2.478904)"><g><path d="M 0.453125 0.015625 C 0.398438 0.015625 0.347656 0.00390625 0.296875 -0.015625 C 0.253906 -0.0351562 0.210938 -0.0625 0.171875 -0.09375 C 0.140625 -0.132812 0.113281 -0.175781 0.09375 -0.21875 C 0.0820312 -0.269531 0.078125 -0.320312 0.078125 -0.375 C 0.078125 -0.425781 0.0820312 -0.472656 0.09375 -0.515625 C 0.113281 -0.566406 0.140625 -0.609375 0.171875 -0.640625 C 0.210938 -0.679688 0.253906 -0.710938 0.296875 -0.734375 C 0.335938 -0.753906 0.382812 -0.765625 0.4375 -0.765625 C 0.488281 -0.765625 0.535156 -0.753906 0.578125 -0.734375 C 0.617188 -0.710938 0.65625 -0.6875 0.6875 -0.65625 C 0.726562 -0.625 0.753906 -0.582031 0.765625 -0.53125 C 0.785156 -0.488281 0.796875 -0.441406 0.796875 -0.390625 C 0.796875 -0.378906 0.796875 -0.367188 0.796875 -0.359375 C 0.796875 -0.359375 0.796875 -0.351562 0.796875 -0.34375 C 0.796875 -0.34375 0.796875 -0.335938 0.796875 -0.328125 L 0.1875 -0.34375 C 0.1875 -0.300781 0.191406 -0.265625 0.203125 -0.234375 C 0.222656 -0.210938 0.242188 -0.1875 0.265625 -0.15625 C 0.285156 -0.132812 0.3125 -0.117188 0.34375 -0.109375 C 0.375 -0.0976562 0.410156 -0.09375 0.453125 -0.09375 C 0.484375 -0.09375 0.515625 -0.0976562 0.546875 -0.109375 C 0.578125 -0.117188 0.601562 -0.132812 0.625 -0.15625 C 0.644531 -0.164062 0.664062 -0.1875 0.6875 -0.21875 L 0.765625 -0.140625 C 0.734375 -0.109375 0.703125 -0.0820312 0.671875 -0.0625 C 0.648438 -0.0390625 0.617188 -0.0195312 0.578125 0 C 0.535156 0.0078125 0.492188 0.015625 0.453125 0.015625 Z M 0.6875 -0.4375 C 0.6875 -0.46875 0.675781 -0.492188 0.65625 -0.515625 C 0.644531 -0.546875 0.628906 -0.570312 0.609375 -0.59375 C 0.585938 -0.613281 0.5625 -0.628906 0.53125 -0.640625 C 0.5 -0.660156 0.46875 -0.671875 0.4375 -0.671875 C 0.40625 -0.671875 0.375 -0.660156 0.34375 -0.640625 C 0.3125 -0.628906 0.285156 -0.613281 0.265625 -0.59375 C 0.242188 -0.570312 0.222656 -0.546875 0.203125 -0.515625 C 0.191406 -0.492188 0.1875 -0.46875 0.1875 -0.4375 Z M 0.6875 -0.4375 "/></g></g></g><g fill="#fefefe" fill-opacity="1"><g transform="translate(5.371884, 2.478904)"><g/></g></g><g fill="#fefefe" fill-opacity="1"><g transform="translate(5.699331, 2.478904)"><g><path d="M 0.171875 -1.09375 L 0.515625 -1.09375 C 0.585938 -1.09375 0.660156 -1.078125 0.734375 -1.046875 C 0.804688 -1.015625 0.863281 -0.972656 0.90625 -0.921875 C 0.957031 -0.878906 1 -0.820312 1.03125 -0.75 C 1.0625 -0.6875 1.078125 -0.617188 1.078125 -0.546875 C 1.078125 -0.472656 1.0625 -0.398438 1.03125 -0.328125 C 1 -0.265625 0.957031 -0.207031 0.90625 -0.15625 C 0.863281 -0.113281 0.804688 -0.078125 0.734375 -0.046875 C 0.660156 -0.015625 0.585938 0 0.515625 0 L 0.171875 0 Z M 0.515625 -0.109375 C 0.578125 -0.109375 0.632812 -0.117188 0.6875 -0.140625 C 0.738281 -0.160156 0.785156 -0.191406 0.828125 -0.234375 C 0.867188 -0.273438 0.898438 -0.320312 0.921875 -0.375 C 0.953125 -0.425781 0.96875 -0.484375 0.96875 -0.546875 C 0.96875 -0.609375 0.953125 -0.664062 0.921875 -0.71875 C 0.898438 -0.769531 0.867188 -0.816406 0.828125 -0.859375 C 0.785156 -0.898438 0.738281 -0.929688 0.6875 -0.953125 C 0.632812 -0.972656 0.578125 -0.984375 0.515625 -0.984375 L 0.28125 -0.984375 L 0.28125 -0.109375 Z M 0.515625 -0.109375 "/></g></g></g><g fill="#fefefe" fill-opacity="1"><g transform="translate(6.868785, 2.478904)"><g><path d="M 0.125 -0.75 L 0.234375 -0.75 L 0.234375 -0.65625 C 0.253906 -0.675781 0.273438 -0.691406 0.296875 -0.703125 C 0.316406 -0.722656 0.34375 -0.738281 0.375 -0.75 C 0.40625 -0.757812 0.441406 -0.765625 0.484375 -0.765625 L 0.515625 -0.765625 L 0.515625 -0.65625 L 0.46875 -0.65625 C 0.4375 -0.65625 0.40625 -0.648438 0.375 -0.640625 C 0.351562 -0.628906 0.328125 -0.613281 0.296875 -0.59375 C 0.273438 -0.570312 0.257812 -0.546875 0.25 -0.515625 C 0.238281 -0.484375 0.234375 -0.453125 0.234375 -0.421875 L 0.234375 0 L 0.125 0 Z M 0.125 -0.75 "/></g></g></g><g fill="#fefefe" fill-opacity="1"><g transform="translate(7.391142, 2.478904)"><g><path d="M 0.453125 0.015625 C 0.398438 0.015625 0.347656 0.00390625 0.296875 -0.015625 C 0.253906 -0.0351562 0.210938 -0.0625 0.171875 -0.09375 C 0.140625 -0.132812 0.113281 -0.175781 0.09375 -0.21875 C 0.0820312 -0.269531 0.078125 -0.320312 0.078125 -0.375 C 0.078125 -0.425781 0.0820312 -0.472656 0.09375 -0.515625 C 0.113281 -0.566406 0.140625 -0.609375 0.171875 -0.640625 C 0.210938 -0.679688 0.253906 -0.710938 0.296875 -0.734375 C 0.335938 -0.753906 0.382812 -0.765625 0.4375 -0.765625 C 0.488281 -0.765625 0.535156 -0.753906 0.578125 -0.734375 C 0.617188 -0.710938 0.65625 -0.6875 0.6875 -0.65625 C 0.726562 -0.625 0.753906 -0.582031 0.765625 -0.53125 C 0.785156 -0.488281 0.796875 -0.441406 0.796875 -0.390625 C 0.796875 -0.378906 0.796875 -0.367188 0.796875 -0.359375 C 0.796875 -0.359375 0.796875 -0.351562 0.796875 -0.34375 C 0.796875 -0.34375 0.796875 -0.335938 0.796875 -0.328125 L 0.1875 -0.34375 C 0.1875 -0.300781 0.191406 -0.265625 0.203125 -0.234375 C 0.222656 -0.210938 0.242188 -0.1875 0.265625 -0.15625 C 0.285156 -0.132812 0.3125 -0.117188 0.34375 -0.109375 C 0.375 -0.0976562 0.410156 -0.09375 0.453125 -0.09375 C 0.484375 -0.09375 0.515625 -0.0976562 0.546875 -0.109375 C 0.578125 -0.117188 0.601562 -0.132812 0.625 -0.15625 C 0.644531 -0.164062 0.664062 -0.1875 0.6875 -0.21875 L 0.765625 -0.140625 C 0.734375 -0.109375 0.703125 -0.0820312 0.671875 -0.0625 C 0.648438 -0.0390625 0.617188 -0.0195312 0.578125 0 C 0.535156 0.0078125 0.492188 0.015625 0.453125 0.015625 Z M 0.6875 -0.4375 C 0.6875 -0.46875 0.675781 -0.492188 0.65625 -0.515625 C 0.644531 -0.546875 0.628906 -0.570312 0.609375 -0.59375 C 0.585938 -0.613281 0.5625 -0.628906 0.53125 -0.640625 C 0.5 -0.660156 0.46875 -0.671875 0.4375 -0.671875 C 0.40625 -0.671875 0.375 -0.660156 0.34375 -0.640625 C 0.3125 -0.628906 0.285156 -0.613281 0.265625 -0.59375 C 0.242188 -0.570312 0.222656 -0.546875 0.203125 -0.515625 C 0.191406 -0.492188 0.1875 -0.46875 0.1875 -0.4375 Z M 0.6875 -0.4375 "/></g></g></g><g fill="#fefefe" fill-opacity="1"><g transform="translate(8.256538, 2.478904)"><g><path d="M 0.34375 0.015625 C 0.300781 0.015625 0.265625 0.0078125 0.234375 0 C 0.203125 -0.0078125 0.171875 -0.0234375 0.140625 -0.046875 C 0.117188 -0.0664062 0.101562 -0.0859375 0.09375 -0.109375 C 0.0820312 -0.140625 0.078125 -0.171875 0.078125 -0.203125 C 0.078125 -0.265625 0.09375 -0.3125 0.125 -0.34375 C 0.164062 -0.382812 0.222656 -0.414062 0.296875 -0.4375 L 0.578125 -0.484375 C 0.578125 -0.535156 0.554688 -0.578125 0.515625 -0.609375 C 0.484375 -0.648438 0.441406 -0.671875 0.390625 -0.671875 C 0.359375 -0.671875 0.328125 -0.660156 0.296875 -0.640625 C 0.273438 -0.628906 0.253906 -0.617188 0.234375 -0.609375 C 0.210938 -0.585938 0.195312 -0.570312 0.1875 -0.5625 L 0.109375 -0.625 C 0.128906 -0.65625 0.15625 -0.679688 0.1875 -0.703125 C 0.207031 -0.710938 0.234375 -0.722656 0.265625 -0.734375 C 0.304688 -0.753906 0.347656 -0.765625 0.390625 -0.765625 C 0.429688 -0.765625 0.46875 -0.753906 0.5 -0.734375 C 0.539062 -0.722656 0.570312 -0.703125 0.59375 -0.671875 C 0.625 -0.648438 0.644531 -0.617188 0.65625 -0.578125 C 0.675781 -0.546875 0.6875 -0.515625 0.6875 -0.484375 L 0.6875 0 L 0.578125 0 L 0.578125 -0.109375 C 0.566406 -0.078125 0.546875 -0.0546875 0.515625 -0.046875 C 0.492188 -0.0234375 0.46875 -0.0078125 0.4375 0 C 0.40625 0.0078125 0.375 0.015625 0.34375 0.015625 Z M 0.34375 -0.09375 C 0.375 -0.09375 0.40625 -0.0976562 0.4375 -0.109375 C 0.46875 -0.117188 0.492188 -0.132812 0.515625 -0.15625 C 0.535156 -0.175781 0.550781 -0.203125 0.5625 -0.234375 C 0.570312 -0.265625 0.578125 -0.300781 0.578125 -0.34375 L 0.578125 -0.390625 L 0.328125 -0.34375 C 0.234375 -0.320312 0.1875 -0.273438 0.1875 -0.203125 C 0.1875 -0.171875 0.195312 -0.144531 0.21875 -0.125 C 0.25 -0.101562 0.289062 -0.09375 0.34375 -0.09375 Z M 0.34375 -0.09375 "/></g></g></g><g fill="#fefefe" fill-opacity="1"><g transform="translate(9.067359, 2.478904)"><g><path d="M 0.125 -0.75 L 0.234375 -0.75 L 0.234375 -0.65625 C 0.242188 -0.675781 0.257812 -0.695312 0.28125 -0.71875 C 0.300781 -0.726562 0.320312 -0.738281 0.34375 -0.75 C 0.375 -0.757812 0.410156 -0.765625 0.453125 -0.765625 C 0.492188 -0.765625 0.53125 -0.753906 0.5625 -0.734375 C 0.59375 -0.722656 0.617188 -0.710938 0.640625 -0.703125 C 0.660156 -0.679688 0.675781 -0.660156 0.6875 -0.640625 C 0.695312 -0.660156 0.71875 -0.679688 0.75 -0.703125 C 0.769531 -0.710938 0.796875 -0.722656 0.828125 -0.734375 C 0.859375 -0.753906 0.898438 -0.765625 0.953125 -0.765625 C 0.984375 -0.765625 1.015625 -0.753906 1.046875 -0.734375 C 1.085938 -0.722656 1.117188 -0.703125 1.140625 -0.671875 C 1.171875 -0.648438 1.191406 -0.617188 1.203125 -0.578125 C 1.222656 -0.546875 1.234375 -0.503906 1.234375 -0.453125 L 1.234375 0 L 1.125 0 L 1.125 -0.453125 C 1.125 -0.515625 1.101562 -0.566406 1.0625 -0.609375 C 1.03125 -0.648438 0.988281 -0.671875 0.9375 -0.671875 C 0.90625 -0.671875 0.878906 -0.660156 0.859375 -0.640625 C 0.835938 -0.628906 0.816406 -0.613281 0.796875 -0.59375 C 0.773438 -0.570312 0.757812 -0.546875 0.75 -0.515625 C 0.738281 -0.484375 0.734375 -0.453125 0.734375 -0.421875 L 0.734375 0 L 0.625 0 L 0.625 -0.453125 C 0.625 -0.515625 0.601562 -0.566406 0.5625 -0.609375 C 0.53125 -0.648438 0.488281 -0.671875 0.4375 -0.671875 C 0.40625 -0.671875 0.378906 -0.660156 0.359375 -0.640625 C 0.335938 -0.628906 0.316406 -0.613281 0.296875 -0.59375 C 0.273438 -0.570312 0.257812 -0.546875 0.25 -0.515625 C 0.238281 -0.484375 0.234375 -0.453125 0.234375 -0.421875 L 0.234375 0 L 0.125 0 Z M 0.125 -0.75 "/></g></g></g><g fill="#fefefe" fill-opacity="1"><g transform="translate(10.423927, 2.478904)"><g><path d="M 0.453125 0.015625 C 0.398438 0.015625 0.347656 0.00390625 0.296875 -0.015625 C 0.253906 -0.0351562 0.210938 -0.0625 0.171875 -0.09375 C 0.140625 -0.132812 0.113281 -0.175781 0.09375 -0.21875 C 0.0820312 -0.269531 0.078125 -0.320312 0.078125 -0.375 C 0.078125 -0.425781 0.0820312 -0.472656 0.09375 -0.515625 C 0.113281 -0.566406 0.140625 -0.609375 0.171875 -0.640625 C 0.210938 -0.679688 0.253906 -0.710938 0.296875 -0.734375 C 0.335938 -0.753906 0.382812 -0.765625 0.4375 -0.765625 C 0.488281 -0.765625 0.535156 -0.753906 0.578125 -0.734375 C 0.617188 -0.710938 0.65625 -0.6875 0.6875 -0.65625 C 0.726562 -0.625 0.753906 -0.582031 0.765625 -0.53125 C 0.785156 -0.488281 0.796875 -0.441406 0.796875 -0.390625 C 0.796875 -0.378906 0.796875 -0.367188 0.796875 -0.359375 C 0.796875 -0.359375 0.796875 -0.351562 0.796875 -0.34375 C 0.796875 -0.34375 0.796875 -0.335938 0.796875 -0.328125 L 0.1875 -0.34375 C 0.1875 -0.300781 0.191406 -0.265625 0.203125 -0.234375 C 0.222656 -0.210938 0.242188 -0.1875 0.265625 -0.15625 C 0.285156 -0.132812 0.3125 -0.117188 0.34375 -0.109375 C 0.375 -0.0976562 0.410156 -0.09375 0.453125 -0.09375 C 0.484375 -0.09375 0.515625 -0.0976562 0.546875 -0.109375 C 0.578125 -0.117188 0.601562 -0.132812 0.625 -0.15625 C 0.644531 -0.164062 0.664062 -0.1875 0.6875 -0.21875 L 0.765625 -0.140625 C 0.734375 -0.109375 0.703125 -0.0820312 0.671875 -0.0625 C 0.648438 -0.0390625 0.617188 -0.0195312 0.578125 0 C 0.535156 0.0078125 0.492188 0.015625 0.453125 0.015625 Z M 0.6875 -0.4375 C 0.6875 -0.46875 0.675781 -0.492188 0.65625 -0.515625 C 0.644531 -0.546875 0.628906 -0.570312 0.609375 -0.59375 C 0.585938 -0.613281 0.5625 -0.628906 0.53125 -0.640625 C 0.5 -0.660156 0.46875 -0.671875 0.4375 -0.671875 C 0.40625 -0.671875 0.375 -0.660156 0.34375 -0.640625 C 0.3125 -0.628906 0.285156 -0.613281 0.265625 -0.59375 C 0.242188 -0.570312 0.222656 -0.546875 0.203125 -0.515625 C 0.191406 -0.492188 0.1875 -0.46875 0.1875 -0.4375 Z M 0.6875 -0.4375 "/></g></g></g><g fill="#fefefe" fill-opacity="1"><g transform="translate(11.289323, 2.478904)"><g><path d="M 0.125 -0.75 L 0.234375 -0.75 L 0.234375 -0.65625 C 0.253906 -0.675781 0.273438 -0.691406 0.296875 -0.703125 C 0.316406 -0.722656 0.34375 -0.738281 0.375 -0.75 C 0.40625 -0.757812 0.441406 -0.765625 0.484375 -0.765625 L 0.515625 -0.765625 L 0.515625 -0.65625 L 0.46875 -0.65625 C 0.4375 -0.65625 0.40625 -0.648438 0.375 -0.640625 C 0.351562 -0.628906 0.328125 -0.613281 0.296875 -0.59375 C 0.273438 -0.570312 0.257812 -0.546875 0.25 -0.515625 C 0.238281 -0.484375 0.234375 -0.453125 0.234375 -0.421875 L 0.234375 0 L 0.125 0 Z M 0.125 -0.75 "/></g></g></g><g fill="#fefefe" fill-opacity="1"><g transform="translate(11.827272, 2.478904)"><g><path d="M 0.328125 0.015625 C 0.285156 0.015625 0.242188 0.0078125 0.203125 0 C 0.171875 -0.0195312 0.144531 -0.0351562 0.125 -0.046875 C 0.09375 -0.0664062 0.0703125 -0.09375 0.0625 -0.125 L 0.140625 -0.203125 C 0.148438 -0.179688 0.164062 -0.160156 0.1875 -0.140625 C 0.195312 -0.128906 0.210938 -0.117188 0.234375 -0.109375 C 0.265625 -0.0976562 0.296875 -0.09375 0.328125 -0.09375 C 0.378906 -0.09375 0.421875 -0.101562 0.453125 -0.125 C 0.484375 -0.144531 0.5 -0.175781 0.5 -0.21875 C 0.5 -0.238281 0.488281 -0.253906 0.46875 -0.265625 C 0.445312 -0.285156 0.421875 -0.300781 0.390625 -0.3125 C 0.359375 -0.332031 0.320312 -0.34375 0.28125 -0.34375 C 0.25 -0.351562 0.21875 -0.363281 0.1875 -0.375 C 0.15625 -0.394531 0.128906 -0.414062 0.109375 -0.4375 C 0.0976562 -0.46875 0.09375 -0.507812 0.09375 -0.5625 C 0.09375 -0.582031 0.0976562 -0.601562 0.109375 -0.625 C 0.117188 -0.65625 0.132812 -0.679688 0.15625 -0.703125 C 0.175781 -0.722656 0.203125 -0.738281 0.234375 -0.75 C 0.265625 -0.757812 0.300781 -0.765625 0.34375 -0.765625 C 0.375 -0.765625 0.40625 -0.757812 0.4375 -0.75 C 0.46875 -0.738281 0.492188 -0.726562 0.515625 -0.71875 C 0.535156 -0.695312 0.554688 -0.679688 0.578125 -0.671875 L 0.5 -0.59375 C 0.488281 -0.601562 0.472656 -0.613281 0.453125 -0.625 C 0.441406 -0.632812 0.425781 -0.644531 0.40625 -0.65625 C 0.382812 -0.664062 0.363281 -0.671875 0.34375 -0.671875 C 0.289062 -0.671875 0.253906 -0.65625 0.234375 -0.625 C 0.210938 -0.601562 0.203125 -0.582031 0.203125 -0.5625 C 0.203125 -0.53125 0.207031 -0.503906 0.21875 -0.484375 C 0.238281 -0.472656 0.265625 -0.460938 0.296875 -0.453125 C 0.328125 -0.441406 0.359375 -0.429688 0.390625 -0.421875 C 0.429688 -0.410156 0.46875 -0.394531 0.5 -0.375 C 0.53125 -0.363281 0.554688 -0.34375 0.578125 -0.3125 C 0.597656 -0.289062 0.609375 -0.257812 0.609375 -0.21875 C 0.609375 -0.1875 0.597656 -0.15625 0.578125 -0.125 C 0.566406 -0.09375 0.550781 -0.0664062 0.53125 -0.046875 C 0.507812 -0.0234375 0.476562 -0.0078125 0.4375 0 C 0.40625 0.0078125 0.367188 0.015625 0.328125 0.015625 Z M 0.328125 0.015625 "/></g></g></g><g fill="#fefefe" fill-opacity="1"><g transform="translate(12.49776, 2.478904)"><g/></g></g><g fill="#fefefe" fill-opacity="1"><g transform="translate(12.825207, 2.478904)"><g><path d="M 0.171875 -1.09375 L 0.265625 -1.09375 L 0.71875 -0.5 L 1.171875 -1.09375 L 1.28125 -1.09375 L 1.28125 0 L 1.15625 0 L 1.15625 -0.890625 L 0.71875 -0.3125 L 0.28125 -0.890625 L 0.28125 0 L 0.171875 0 Z M 0.171875 -1.09375 "/></g></g></g><g fill="#fefefe" fill-opacity="1"><g transform="translate(14.259738, 2.478904)"><g><path d="M 0.453125 0.015625 C 0.398438 0.015625 0.347656 0.00390625 0.296875 -0.015625 C 0.253906 -0.0351562 0.210938 -0.0625 0.171875 -0.09375 C 0.140625 -0.132812 0.113281 -0.175781 0.09375 -0.21875 C 0.0820312 -0.269531 0.078125 -0.320312 0.078125 -0.375 C 0.078125 -0.425781 0.0820312 -0.472656 0.09375 -0.515625 C 0.113281 -0.566406 0.140625 -0.609375 0.171875 -0.640625 C 0.210938 -0.679688 0.253906 -0.710938 0.296875 -0.734375 C 0.335938 -0.753906 0.382812 -0.765625 0.4375 -0.765625 C 0.488281 -0.765625 0.535156 -0.753906 0.578125 -0.734375 C 0.617188 -0.710938 0.65625 -0.6875 0.6875 -0.65625 C 0.726562 -0.625 0.753906 -0.582031 0.765625 -0.53125 C 0.785156 -0.488281 0.796875 -0.441406 0.796875 -0.390625 C 0.796875 -0.378906 0.796875 -0.367188 0.796875 -0.359375 C 0.796875 -0.359375 0.796875 -0.351562 0.796875 -0.34375 C 0.796875 -0.34375 0.796875 -0.335938 0.796875 -0.328125 L 0.1875 -0.34375 C 0.1875 -0.300781 0.191406 -0.265625 0.203125 -0.234375 C 0.222656 -0.210938 0.242188 -0.1875 0.265625 -0.15625 C 0.285156 -0.132812 0.3125 -0.117188 0.34375 -0.109375 C 0.375 -0.0976562 0.410156 -0.09375 0.453125 -0.09375 C 0.484375 -0.09375 0.515625 -0.0976562 0.546875 -0.109375 C 0.578125 -0.117188 0.601562 -0.132812 0.625 -0.15625 C 0.644531 -0.164062 0.664062 -0.1875 0.6875 -0.21875 L 0.765625 -0.140625 C 0.734375 -0.109375 0.703125 -0.0820312 0.671875 -0.0625 C 0.648438 -0.0390625 0.617188 -0.0195312 0.578125 0 C 0.535156 0.0078125 0.492188 0.015625 0.453125 0.015625 Z M 0.6875 -0.4375 C 0.6875 -0.46875 0.675781 -0.492188 0.65625 -0.515625 C 0.644531 -0.546875 0.628906 -0.570312 0.609375 -0.59375 C 0.585938 -0.613281 0.5625 -0.628906 0.53125 -0.640625 C 0.5 -0.660156 0.46875 -0.671875 0.4375 -0.671875 C 0.40625 -0.671875 0.375 -0.660156 0.34375 -0.640625 C 0.3125 -0.628906 0.285156 -0.613281 0.265625 -0.59375 C 0.242188 -0.570312 0.222656 -0.546875 0.203125 -0.515625 C 0.191406 -0.492188 0.1875 -0.46875 0.1875 -0.4375 Z M 0.6875 -0.4375 "/></g></g></g><g fill="#fefefe" fill-opacity="1"><g transform="translate(15.125134, 2.478904)"><g><path d="M 0.453125 0.015625 C 0.398438 0.015625 0.347656 0.00390625 0.296875 -0.015625 C 0.253906 -0.0351562 0.210938 -0.0625 0.171875 -0.09375 C 0.140625 -0.132812 0.113281 -0.175781 0.09375 -0.21875 C 0.0820312 -0.269531 0.078125 -0.320312 0.078125 -0.375 C 0.078125 -0.425781 0.0820312 -0.472656 0.09375 -0.515625 C 0.113281 -0.566406 0.140625 -0.609375 0.171875 -0.640625 C 0.210938 -0.679688 0.253906 -0.710938 0.296875 -0.734375 C 0.335938 -0.753906 0.382812 -0.765625 0.4375 -0.765625 C 0.488281 -0.765625 0.535156 -0.753906 0.578125 -0.734375 C 0.617188 -0.710938 0.65625 -0.6875 0.6875 -0.65625 C 0.726562 -0.625 0.753906 -0.582031 0.765625 -0.53125 C 0.785156 -0.488281 0.796875 -0.441406 0.796875 -0.390625 C 0.796875 -0.378906 0.796875 -0.367188 0.796875 -0.359375 C 0.796875 -0.359375 0.796875 -0.351562 0.796875 -0.34375 C 0.796875 -0.34375 0.796875 -0.335938 0.796875 -0.328125 L 0.1875 -0.34375 C 0.1875 -0.300781 0.191406 -0.265625 0.203125 -0.234375 C 0.222656 -0.210938 0.242188 -0.1875 0.265625 -0.15625 C 0.285156 -0.132812 0.3125 -0.117188 0.34375 -0.109375 C 0.375 -0.0976562 0.410156 -0.09375 0.453125 -0.09375 C 0.484375 -0.09375 0.515625 -0.0976562 0.546875 -0.109375 C 0.578125 -0.117188 0.601562 -0.132812 0.625 -0.15625 C 0.644531 -0.164062 0.664062 -0.1875 0.6875 -0.21875 L 0.765625 -0.140625 C 0.734375 -0.109375 0.703125 -0.0820312 0.671875 -0.0625 C 0.648438 -0.0390625 0.617188 -0.0195312 0.578125 0 C 0.535156 0.0078125 0.492188 0.015625 0.453125 0.015625 Z M 0.6875 -0.4375 C 0.6875 -0.46875 0.675781 -0.492188 0.65625 -0.515625 C 0.644531 -0.546875 0.628906 -0.570312 0.609375 -0.59375 C 0.585938 -0.613281 0.5625 -0.628906 0.53125 -0.640625 C 0.5 -0.660156 0.46875 -0.671875 0.4375 -0.671875 C 0.40625 -0.671875 0.375 -0.660156 0.34375 -0.640625 C 0.3125 -0.628906 0.285156 -0.613281 0.265625 -0.59375 C 0.242188 -0.570312 0.222656 -0.546875 0.203125 -0.515625 C 0.191406 -0.492188 0.1875 -0.46875 0.1875 -0.4375 Z M 0.6875 -0.4375 "/></g></g></g><g fill="#fefefe" fill-opacity="1"><g transform="translate(15.99053, 2.478904)"><g><path d="M 0.390625 0.015625 C 0.328125 0.015625 0.273438 0 0.234375 -0.03125 C 0.203125 -0.0703125 0.1875 -0.128906 0.1875 -0.203125 L 0.1875 -0.65625 L 0.046875 -0.65625 L 0.046875 -0.75 L 0.140625 -0.75 C 0.179688 -0.75 0.203125 -0.773438 0.203125 -0.828125 L 0.203125 -1 L 0.296875 -1 L 0.296875 -0.75 L 0.46875 -0.75 L 0.46875 -0.65625 L 0.296875 -0.65625 L 0.296875 -0.203125 C 0.296875 -0.160156 0.304688 -0.128906 0.328125 -0.109375 C 0.347656 -0.0976562 0.375 -0.09375 0.40625 -0.09375 C 0.414062 -0.09375 0.425781 -0.09375 0.4375 -0.09375 C 0.445312 -0.09375 0.457031 -0.09375 0.46875 -0.09375 C 0.476562 -0.101562 0.488281 -0.109375 0.5 -0.109375 L 0.5 -0.015625 C 0.488281 -0.00390625 0.476562 0 0.46875 0 C 0.457031 0.0078125 0.445312 0.015625 0.4375 0.015625 C 0.425781 0.015625 0.410156 0.015625 0.390625 0.015625 Z M 0.390625 0.015625 "/></g></g></g><g fill="#fefefe" fill-opacity="1"><g transform="translate(16.551869, 2.478904)"><g><path d="M 0.328125 0.015625 C 0.285156 0.015625 0.242188 0.0078125 0.203125 0 C 0.171875 -0.0195312 0.144531 -0.0351562 0.125 -0.046875 C 0.09375 -0.0664062 0.0703125 -0.09375 0.0625 -0.125 L 0.140625 -0.203125 C 0.148438 -0.179688 0.164062 -0.160156 0.1875 -0.140625 C 0.195312 -0.128906 0.210938 -0.117188 0.234375 -0.109375 C 0.265625 -0.0976562 0.296875 -0.09375 0.328125 -0.09375 C 0.378906 -0.09375 0.421875 -0.101562 0.453125 -0.125 C 0.484375 -0.144531 0.5 -0.175781 0.5 -0.21875 C 0.5 -0.238281 0.488281 -0.253906 0.46875 -0.265625 C 0.445312 -0.285156 0.421875 -0.300781 0.390625 -0.3125 C 0.359375 -0.332031 0.320312 -0.34375 0.28125 -0.34375 C 0.25 -0.351562 0.21875 -0.363281 0.1875 -0.375 C 0.15625 -0.394531 0.128906 -0.414062 0.109375 -0.4375 C 0.0976562 -0.46875 0.09375 -0.507812 0.09375 -0.5625 C 0.09375 -0.582031 0.0976562 -0.601562 0.109375 -0.625 C 0.117188 -0.65625 0.132812 -0.679688 0.15625 -0.703125 C 0.175781 -0.722656 0.203125 -0.738281 0.234375 -0.75 C 0.265625 -0.757812 0.300781 -0.765625 0.34375 -0.765625 C 0.375 -0.765625 0.40625 -0.757812 0.4375 -0.75 C 0.46875 -0.738281 0.492188 -0.726562 0.515625 -0.71875 C 0.535156 -0.695312 0.554688 -0.679688 0.578125 -0.671875 L 0.5 -0.59375 C 0.488281 -0.601562 0.472656 -0.613281 0.453125 -0.625 C 0.441406 -0.632812 0.425781 -0.644531 0.40625 -0.65625 C 0.382812 -0.664062 0.363281 -0.671875 0.34375 -0.671875 C 0.289062 -0.671875 0.253906 -0.65625 0.234375 -0.625 C 0.210938 -0.601562 0.203125 -0.582031 0.203125 -0.5625 C 0.203125 -0.53125 0.207031 -0.503906 0.21875 -0.484375 C 0.238281 -0.472656 0.265625 -0.460938 0.296875 -0.453125 C 0.328125 -0.441406 0.359375 -0.429688 0.390625 -0.421875 C 0.429688 -0.410156 0.46875 -0.394531 0.5 -0.375 C 0.53125 -0.363281 0.554688 -0.34375 0.578125 -0.3125 C 0.597656 -0.289062 0.609375 -0.257812 0.609375 -0.21875 C 0.609375 -0.1875 0.597656 -0.15625 0.578125 -0.125 C 0.566406 -0.09375 0.550781 -0.0664062 0.53125 -0.046875 C 0.507812 -0.0234375 0.476562 -0.0078125 0.4375 0 C 0.40625 0.0078125 0.367188 0.015625 0.328125 0.015625 Z M 0.328125 0.015625 "/></g></g></g><g fill="#fefefe" fill-opacity="1"><g transform="translate(17.222356, 2.478904)"><g/></g></g><g fill="#fefefe" fill-opacity="1"><g transform="translate(17.549803, 2.478904)"><g><path d="M 0.171875 -1.09375 L 0.921875 -1.09375 L 0.921875 -0.984375 L 0.28125 -0.984375 L 0.28125 -0.625 L 0.796875 -0.625 L 0.796875 -0.515625 L 0.28125 -0.515625 L 0.28125 -0.109375 L 0.9375 -0.109375 L 0.9375 0 L 0.171875 0 Z M 0.171875 -1.09375 "/></g></g></g><g fill="#fefefe" fill-opacity="1"><g transform="translate(18.547737, 2.478904)"><g><path d="M 0.125 -0.75 L 0.234375 -0.75 L 0.234375 -0.640625 C 0.253906 -0.660156 0.273438 -0.679688 0.296875 -0.703125 C 0.316406 -0.722656 0.34375 -0.738281 0.375 -0.75 C 0.40625 -0.757812 0.441406 -0.765625 0.484375 -0.765625 C 0.523438 -0.765625 0.5625 -0.753906 0.59375 -0.734375 C 0.632812 -0.722656 0.664062 -0.703125 0.6875 -0.671875 C 0.71875 -0.648438 0.738281 -0.617188 0.75 -0.578125 C 0.769531 -0.535156 0.78125 -0.492188 0.78125 -0.453125 L 0.78125 0 L 0.671875 0 L 0.671875 -0.453125 C 0.671875 -0.515625 0.648438 -0.566406 0.609375 -0.609375 C 0.578125 -0.648438 0.53125 -0.671875 0.46875 -0.671875 C 0.4375 -0.671875 0.40625 -0.660156 0.375 -0.640625 C 0.34375 -0.628906 0.316406 -0.613281 0.296875 -0.59375 C 0.273438 -0.570312 0.257812 -0.546875 0.25 -0.515625 C 0.238281 -0.484375 0.234375 -0.453125 0.234375 -0.421875 L 0.234375 0 L 0.125 0 Z M 0.125 -0.75 "/></g></g></g><g fill="#fefefe" fill-opacity="1"><g transform="translate(19.452115, 2.478904)"><g><path d="M 0.421875 0.328125 C 0.359375 0.328125 0.304688 0.316406 0.265625 0.296875 C 0.234375 0.285156 0.203125 0.269531 0.171875 0.25 C 0.148438 0.226562 0.128906 0.203125 0.109375 0.171875 L 0.171875 0.109375 C 0.191406 0.128906 0.210938 0.148438 0.234375 0.171875 C 0.253906 0.179688 0.28125 0.191406 0.3125 0.203125 C 0.34375 0.222656 0.378906 0.234375 0.421875 0.234375 C 0.453125 0.234375 0.484375 0.222656 0.515625 0.203125 C 0.546875 0.191406 0.570312 0.171875 0.59375 0.140625 C 0.613281 0.117188 0.628906 0.09375 0.640625 0.0625 C 0.660156 0.03125 0.671875 -0.00390625 0.671875 -0.046875 L 0.671875 -0.140625 C 0.660156 -0.109375 0.640625 -0.0859375 0.609375 -0.078125 C 0.585938 -0.0546875 0.5625 -0.0390625 0.53125 -0.03125 C 0.5 -0.0195312 0.460938 -0.015625 0.421875 -0.015625 C 0.367188 -0.015625 0.320312 -0.0234375 0.28125 -0.046875 C 0.238281 -0.0664062 0.203125 -0.09375 0.171875 -0.125 C 0.140625 -0.15625 0.113281 -0.191406 0.09375 -0.234375 C 0.0820312 -0.285156 0.078125 -0.335938 0.078125 -0.390625 C 0.078125 -0.441406 0.0820312 -0.488281 0.09375 -0.53125 C 0.113281 -0.582031 0.140625 -0.625 0.171875 -0.65625 C 0.203125 -0.6875 0.238281 -0.710938 0.28125 -0.734375 C 0.320312 -0.753906 0.367188 -0.765625 0.421875 -0.765625 C 0.460938 -0.765625 0.5 -0.757812 0.53125 -0.75 C 0.5625 -0.738281 0.585938 -0.722656 0.609375 -0.703125 C 0.640625 -0.691406 0.660156 -0.675781 0.671875 -0.65625 L 0.671875 -0.75 L 0.78125 -0.75 L 0.78125 -0.046875 C 0.78125 0.00390625 0.769531 0.0507812 0.75 0.09375 C 0.726562 0.144531 0.703125 0.1875 0.671875 0.21875 C 0.640625 0.25 0.597656 0.273438 0.546875 0.296875 C 0.503906 0.316406 0.460938 0.328125 0.421875 0.328125 Z M 0.421875 -0.125 C 0.453125 -0.125 0.484375 -0.128906 0.515625 -0.140625 C 0.546875 -0.148438 0.570312 -0.164062 0.59375 -0.1875 C 0.625 -0.21875 0.644531 -0.25 0.65625 -0.28125 C 0.664062 -0.3125 0.671875 -0.347656 0.671875 -0.390625 C 0.671875 -0.429688 0.664062 -0.46875 0.65625 -0.5 C 0.644531 -0.53125 0.625 -0.554688 0.59375 -0.578125 C 0.570312 -0.609375 0.546875 -0.628906 0.515625 -0.640625 C 0.484375 -0.660156 0.453125 -0.671875 0.421875 -0.671875 C 0.390625 -0.671875 0.359375 -0.660156 0.328125 -0.640625 C 0.296875 -0.628906 0.269531 -0.609375 0.25 -0.578125 C 0.226562 -0.554688 0.210938 -0.53125 0.203125 -0.5 C 0.191406 -0.46875 0.1875 -0.429688 0.1875 -0.390625 C 0.1875 -0.347656 0.191406 -0.3125 0.203125 -0.28125 C 0.210938 -0.25 0.226562 -0.21875 0.25 -0.1875 C 0.269531 -0.164062 0.296875 -0.148438 0.328125 -0.140625 C 0.359375 -0.128906 0.390625 -0.125 0.421875 -0.125 Z M 0.421875 -0.125 "/></g></g></g><g fill="#fefefe" fill-opacity="1"><g transform="translate(20.356493, 2.478904)"><g><path d="M 0.125 -0.75 L 0.234375 -0.75 L 0.234375 0 L 0.125 0 Z M 0.1875 -0.9375 C 0.164062 -0.9375 0.144531 -0.941406 0.125 -0.953125 C 0.113281 -0.960938 0.109375 -0.976562 0.109375 -1 C 0.109375 -1.019531 0.113281 -1.035156 0.125 -1.046875 C 0.144531 -1.066406 0.164062 -1.078125 0.1875 -1.078125 C 0.195312 -1.078125 0.207031 -1.066406 0.21875 -1.046875 C 0.238281 -1.035156 0.25 -1.019531 0.25 -1 C 0.25 -0.976562 0.238281 -0.960938 0.21875 -0.953125 C 0.207031 -0.941406 0.195312 -0.9375 0.1875 -0.9375 Z M 0.1875 -0.9375 "/></g></g></g><g fill="#fefefe" fill-opacity="1"><g transform="translate(20.715128, 2.478904)"><g><path d="M 0.125 -0.75 L 0.234375 -0.75 L 0.234375 -0.640625 C 0.253906 -0.660156 0.273438 -0.679688 0.296875 -0.703125 C 0.316406 -0.722656 0.34375 -0.738281 0.375 -0.75 C 0.40625 -0.757812 0.441406 -0.765625 0.484375 -0.765625 C 0.523438 -0.765625 0.5625 -0.753906 0.59375 -0.734375 C 0.632812 -0.722656 0.664062 -0.703125 0.6875 -0.671875 C 0.71875 -0.648438 0.738281 -0.617188 0.75 -0.578125 C 0.769531 -0.535156 0.78125 -0.492188 0.78125 -0.453125 L 0.78125 0 L 0.671875 0 L 0.671875 -0.453125 C 0.671875 -0.515625 0.648438 -0.566406 0.609375 -0.609375 C 0.578125 -0.648438 0.53125 -0.671875 0.46875 -0.671875 C 0.4375 -0.671875 0.40625 -0.660156 0.375 -0.640625 C 0.34375 -0.628906 0.316406 -0.613281 0.296875 -0.59375 C 0.273438 -0.570312 0.257812 -0.546875 0.25 -0.515625 C 0.238281 -0.484375 0.234375 -0.453125 0.234375 -0.421875 L 0.234375 0 L 0.125 0 Z M 0.125 -0.75 "/></g></g></g><g fill="#fefefe" fill-opacity="1"><g transform="translate(21.619506, 2.478904)"><g><path d="M 0.453125 0.015625 C 0.398438 0.015625 0.347656 0.00390625 0.296875 -0.015625 C 0.253906 -0.0351562 0.210938 -0.0625 0.171875 -0.09375 C 0.140625 -0.132812 0.113281 -0.175781 0.09375 -0.21875 C 0.0820312 -0.269531 0.078125 -0.320312 0.078125 -0.375 C 0.078125 -0.425781 0.0820312 -0.472656 0.09375 -0.515625 C 0.113281 -0.566406 0.140625 -0.609375 0.171875 -0.640625 C 0.210938 -0.679688 0.253906 -0.710938 0.296875 -0.734375 C 0.335938 -0.753906 0.382812 -0.765625 0.4375 -0.765625 C 0.488281 -0.765625 0.535156 -0.753906 0.578125 -0.734375 C 0.617188 -0.710938 0.65625 -0.6875 0.6875 -0.65625 C 0.726562 -0.625 0.753906 -0.582031 0.765625 -0.53125 C 0.785156 -0.488281 0.796875 -0.441406 0.796875 -0.390625 C 0.796875 -0.378906 0.796875 -0.367188 0.796875 -0.359375 C 0.796875 -0.359375 0.796875 -0.351562 0.796875 -0.34375 C 0.796875 -0.34375 0.796875 -0.335938 0.796875 -0.328125 L 0.1875 -0.34375 C 0.1875 -0.300781 0.191406 -0.265625 0.203125 -0.234375 C 0.222656 -0.210938 0.242188 -0.1875 0.265625 -0.15625 C 0.285156 -0.132812 0.3125 -0.117188 0.34375 -0.109375 C 0.375 -0.0976562 0.410156 -0.09375 0.453125 -0.09375 C 0.484375 -0.09375 0.515625 -0.0976562 0.546875 -0.109375 C 0.578125 -0.117188 0.601562 -0.132812 0.625 -0.15625 C 0.644531 -0.164062 0.664062 -0.1875 0.6875 -0.21875 L 0.765625 -0.140625 C 0.734375 -0.109375 0.703125 -0.0820312 0.671875 -0.0625 C 0.648438 -0.0390625 0.617188 -0.0195312 0.578125 0 C 0.535156 0.0078125 0.492188 0.015625 0.453125 0.015625 Z M 0.6875 -0.4375 C 0.6875 -0.46875 0.675781 -0.492188 0.65625 -0.515625 C 0.644531 -0.546875 0.628906 -0.570312 0.609375 -0.59375 C 0.585938 -0.613281 0.5625 -0.628906 0.53125 -0.640625 C 0.5 -0.660156 0.46875 -0.671875 0.4375 -0.671875 C 0.40625 -0.671875 0.375 -0.660156 0.34375 -0.640625 C 0.3125 -0.628906 0.285156 -0.613281 0.265625 -0.59375 C 0.242188 -0.570312 0.222656 -0.546875 0.203125 -0.515625 C 0.191406 -0.492188 0.1875 -0.46875 0.1875 -0.4375 Z M 0.6875 -0.4375 "/></g></g></g><g fill="#fefefe" fill-opacity="1"><g transform="translate(22.484901, 2.478904)"><g><path d="M 0.453125 0.015625 C 0.398438 0.015625 0.347656 0.00390625 0.296875 -0.015625 C 0.253906 -0.0351562 0.210938 -0.0625 0.171875 -0.09375 C 0.140625 -0.132812 0.113281 -0.175781 0.09375 -0.21875 C 0.0820312 -0.269531 0.078125 -0.320312 0.078125 -0.375 C 0.078125 -0.425781 0.0820312 -0.472656 0.09375 -0.515625 C 0.113281 -0.566406 0.140625 -0.609375 0.171875 -0.640625 C 0.210938 -0.679688 0.253906 -0.710938 0.296875 -0.734375 C 0.335938 -0.753906 0.382812 -0.765625 0.4375 -0.765625 C 0.488281 -0.765625 0.535156 -0.753906 0.578125 -0.734375 C 0.617188 -0.710938 0.65625 -0.6875 0.6875 -0.65625 C 0.726562 -0.625 0.753906 -0.582031 0.765625 -0.53125 C 0.785156 -0.488281 0.796875 -0.441406 0.796875 -0.390625 C 0.796875 -0.378906 0.796875 -0.367188 0.796875 -0.359375 C 0.796875 -0.359375 0.796875 -0.351562 0.796875 -0.34375 C 0.796875 -0.34375 0.796875 -0.335938 0.796875 -0.328125 L 0.1875 -0.34375 C 0.1875 -0.300781 0.191406 -0.265625 0.203125 -0.234375 C 0.222656 -0.210938 0.242188 -0.1875 0.265625 -0.15625 C 0.285156 -0.132812 0.3125 -0.117188 0.34375 -0.109375 C 0.375 -0.0976562 0.410156 -0.09375 0.453125 -0.09375 C 0.484375 -0.09375 0.515625 -0.0976562 0.546875 -0.109375 C 0.578125 -0.117188 0.601562 -0.132812 0.625 -0.15625 C 0.644531 -0.164062 0.664062 -0.1875 0.6875 -0.21875 L 0.765625 -0.140625 C 0.734375 -0.109375 0.703125 -0.0820312 0.671875 -0.0625 C 0.648438 -0.0390625 0.617188 -0.0195312 0.578125 0 C 0.535156 0.0078125 0.492188 0.015625 0.453125 0.015625 Z M 0.6875 -0.4375 C 0.6875 -0.46875 0.675781 -0.492188 0.65625 -0.515625 C 0.644531 -0.546875 0.628906 -0.570312 0.609375 -0.59375 C 0.585938 -0.613281 0.5625 -0.628906 0.53125 -0.640625 C 0.5 -0.660156 0.46875 -0.671875 0.4375 -0.671875 C 0.40625 -0.671875 0.375 -0.660156 0.34375 -0.640625 C 0.3125 -0.628906 0.285156 -0.613281 0.265625 -0.59375 C 0.242188 -0.570312 0.222656 -0.546875 0.203125 -0.515625 C 0.191406 -0.492188 0.1875 -0.46875 0.1875 -0.4375 Z M 0.6875 -0.4375 "/></g></g></g><g fill="#fefefe" fill-opacity="1"><g transform="translate(23.350298, 2.478904)"><g><path d="M 0.125 -0.75 L 0.234375 -0.75 L 0.234375 -0.65625 C 0.253906 -0.675781 0.273438 -0.691406 0.296875 -0.703125 C 0.316406 -0.722656 0.34375 -0.738281 0.375 -0.75 C 0.40625 -0.757812 0.441406 -0.765625 0.484375 -0.765625 L 0.515625 -0.765625 L 0.515625 -0.65625 L 0.46875 -0.65625 C 0.4375 -0.65625 0.40625 -0.648438 0.375 -0.640625 C 0.351562 -0.628906 0.328125 -0.613281 0.296875 -0.59375 C 0.273438 -0.570312 0.257812 -0.546875 0.25 -0.515625 C 0.238281 -0.484375 0.234375 -0.453125 0.234375 -0.421875 L 0.234375 0 L 0.125 0 Z M 0.125 -0.75 "/></g></g></g><g clip-path="url(#584dbe7d71)"><g fill="#fefefe" fill-opacity="1"><g transform="translate(23.888246, 2.478904)"><g><path d="M 0.328125 0.015625 C 0.285156 0.015625 0.242188 0.0078125 0.203125 0 C 0.171875 -0.0195312 0.144531 -0.0351562 0.125 -0.046875 C 0.09375 -0.0664062 0.0703125 -0.09375 0.0625 -0.125 L 0.140625 -0.203125 C 0.148438 -0.179688 0.164062 -0.160156 0.1875 -0.140625 C 0.195312 -0.128906 0.210938 -0.117188 0.234375 -0.109375 C 0.265625 -0.0976562 0.296875 -0.09375 0.328125 -0.09375 C 0.378906 -0.09375 0.421875 -0.101562 0.453125 -0.125 C 0.484375 -0.144531 0.5 -0.175781 0.5 -0.21875 C 0.5 -0.238281 0.488281 -0.253906 0.46875 -0.265625 C 0.445312 -0.285156 0.421875 -0.300781 0.390625 -0.3125 C 0.359375 -0.332031 0.320312 -0.34375 0.28125 -0.34375 C 0.25 -0.351562 0.21875 -0.363281 0.1875 -0.375 C 0.15625 -0.394531 0.128906 -0.414062 0.109375 -0.4375 C 0.0976562 -0.46875 0.09375 -0.507812 0.09375 -0.5625 C 0.09375 -0.582031 0.0976562 -0.601562 0.109375 -0.625 C 0.117188 -0.65625 0.132812 -0.679688 0.15625 -0.703125 C 0.175781 -0.722656 0.203125 -0.738281 0.234375 -0.75 C 0.265625 -0.757812 0.300781 -0.765625 0.34375 -0.765625 C 0.375 -0.765625 0.40625 -0.757812 0.4375 -0.75 C 0.46875 -0.738281 0.492188 -0.726562 0.515625 -0.71875 C 0.535156 -0.695312 0.554688 -0.679688 0.578125 -0.671875 L 0.5 -0.59375 C 0.488281 -0.601562 0.472656 -0.613281 0.453125 -0.625 C 0.441406 -0.632812 0.425781 -0.644531 0.40625 -0.65625 C 0.382812 -0.664062 0.363281 -0.671875 0.34375 -0.671875 C 0.289062 -0.671875 0.253906 -0.65625 0.234375 -0.625 C 0.210938 -0.601562 0.203125 -0.582031 0.203125 -0.5625 C 0.203125 -0.53125 0.207031 -0.503906 0.21875 -0.484375 C 0.238281 -0.472656 0.265625 -0.460938 0.296875 -0.453125 C 0.328125 -0.441406 0.359375 -0.429688 0.390625 -0.421875 C 0.429688 -0.410156 0.46875 -0.394531 0.5 -0.375 C 0.53125 -0.363281 0.554688 -0.34375 0.578125 -0.3125 C 0.597656 -0.289062 0.609375 -0.257812 0.609375 -0.21875 C 0.609375 -0.1875 0.597656 -0.15625 0.578125 -0.125 C 0.566406 -0.09375 0.550781 -0.0664062 0.53125 -0.046875 C 0.507812 -0.0234375 0.476562 -0.0078125 0.4375 0 C 0.40625 0.0078125 0.367188 0.015625 0.328125 0.015625 Z M 0.328125 0.015625 "/></g></g></g></g></g></g></svg>