<svg xmlns="http://www.w3.org/2000/svg" xmlns:xlink="http://www.w3.org/1999/xlink" width="4973" zoomAndPan="magnify" viewBox="0 0 3729.75 3637.500009" height="4850" preserveAspectRatio="xMidYMid meet" version="1.0"><defs><clipPath id="ff3d9d5b7b"><path d="M 2292.707031 1906.867188 L 2355.820312 1906.867188 L 2355.820312 1998.636719 L 2292.707031 1998.636719 Z M 2292.707031 1906.867188 " clip-rule="nonzero"/></clipPath><clipPath id="dc142bb0ff"><path d="M 0.707031 0.867188 L 63.820312 0.867188 L 63.820312 92.636719 L 0.707031 92.636719 Z M 0.707031 0.867188 " clip-rule="nonzero"/></clipPath><clipPath id="0ea13957f8"><rect x="0" width="64" y="0" height="93"/></clipPath><clipPath id="de86b98c01"><path d="M 0.132812 941 L 513 941 L 513 1986 L 0.132812 1986 Z M 0.132812 941 " clip-rule="nonzero"/></clipPath><clipPath id="729b8d1446"><path d="M 0.132812 484 L 529 484 L 529 1592 L 0.132812 1592 Z M 0.132812 484 " clip-rule="nonzero"/></clipPath><clipPath id="2007ec4776"><path d="M 0.132812 2229 L 695 2229 L 695 3248 L 0.132812 3248 Z M 0.132812 2229 " clip-rule="nonzero"/></clipPath><clipPath id="b76d8e4d2e"><path d="M 0.132812 1624 L 533 1624 L 533 2591 L 0.132812 2591 Z M 0.132812 1624 " clip-rule="nonzero"/></clipPath><clipPath id="b34d171364"><path d="M 0.132812 0 L 3634 0 L 3634 3637 L 0.132812 3637 Z M 0.132812 0 " clip-rule="nonzero"/></clipPath><clipPath id="204547d1ec"><path d="M 0.132812 0 L 3729.367188 0 L 3729.367188 3637 L 0.132812 3637 Z M 0.132812 0 " clip-rule="nonzero"/></clipPath><clipPath id="12e949f433"><path d="M 0.132812 0 L 3517 0 L 3517 3637 L 0.132812 3637 Z M 0.132812 0 " clip-rule="nonzero"/></clipPath><clipPath id="3e6df93c26"><path d="M 0.132812 0 L 3729.367188 0 L 3729.367188 3637 L 0.132812 3637 Z M 0.132812 0 " clip-rule="nonzero"/></clipPath><clipPath id="45a452d259"><path d="M 1730.589844 1518.613281 L 2024.042969 1518.613281 L 2024.042969 2076.859375 L 1730.589844 2076.859375 Z M 1730.589844 1518.613281 " clip-rule="nonzero"/></clipPath><clipPath id="fa57f11239"><path d="M 1730.589844 2076.726562 C 1890.429688 2076.726562 2024.042969 1949.667969 2024.042969 1797.667969 C 2024.042969 1645.671875 1890.429688 1518.613281 1730.589844 1518.613281 Z M 1730.589844 2076.726562 " clip-rule="nonzero"/></clipPath><clipPath id="7abc068b38"><path d="M 0.589844 0.613281 L 294.042969 0.613281 L 294.042969 558.859375 L 0.589844 558.859375 Z M 0.589844 0.613281 " clip-rule="nonzero"/></clipPath><clipPath id="7d69d75be3"><path d="M 0.589844 558.726562 C 160.429688 558.726562 294.042969 431.667969 294.042969 279.667969 C 294.042969 127.671875 160.429688 0.613281 0.589844 0.613281 Z M 0.589844 558.726562 " clip-rule="nonzero"/></clipPath><clipPath id="57c2d86ecd"><rect x="0" width="295" y="0" height="559"/></clipPath><clipPath id="683823c52b"><path d="M 637.597656 2265.789062 L 677.882812 2265.789062 L 677.882812 2451.03125 L 637.597656 2451.03125 Z M 637.597656 2265.789062 " clip-rule="nonzero"/></clipPath><clipPath id="ac23790bae"><path d="M 0.597656 0.789062 L 40.882812 0.789062 L 40.882812 186.03125 L 0.597656 186.03125 Z M 0.597656 0.789062 " clip-rule="nonzero"/></clipPath><clipPath id="74b8fc2c3f"><rect x="0" width="41" y="0" height="187"/></clipPath><clipPath id="fdb920f637"><path d="M 637.597656 1181.367188 L 677.882812 1181.367188 L 677.882812 1366.609375 L 637.597656 1366.609375 Z M 637.597656 1181.367188 " clip-rule="nonzero"/></clipPath><clipPath id="6d0f46a106"><path d="M 0.597656 0.367188 L 40.882812 0.367188 L 40.882812 185.609375 L 0.597656 185.609375 Z M 0.597656 0.367188 " clip-rule="nonzero"/></clipPath><clipPath id="aa29e0f789"><rect x="0" width="41" y="0" height="186"/></clipPath><clipPath id="a9a06311cf"><path d="M 829.460938 1521.074219 L 928.449219 1521.074219 L 928.449219 1603.5625 L 829.460938 1603.5625 Z M 829.460938 1521.074219 " clip-rule="nonzero"/></clipPath><clipPath id="cad08350f1"><path d="M 0.460938 0.0742188 L 99.449219 0.0742188 L 99.449219 82.5625 L 0.460938 82.5625 Z M 0.460938 0.0742188 " clip-rule="nonzero"/></clipPath><clipPath id="851010f850"><rect x="0" width="100" y="0" height="83"/></clipPath><clipPath id="d7a80f3486"><path d="M 121.554688 2450.953125 L 220.539062 2450.953125 L 220.539062 2533.441406 L 121.554688 2533.441406 Z M 121.554688 2450.953125 " clip-rule="nonzero"/></clipPath><clipPath id="fa3cc0eaf9"><path d="M 0.554688 0.953125 L 99.539062 0.953125 L 99.539062 83.441406 L 0.554688 83.441406 Z M 0.554688 0.953125 " clip-rule="nonzero"/></clipPath><clipPath id="2e16fed97c"><rect x="0" width="100" y="0" height="84"/></clipPath><clipPath id="1da8e34512"><path d="M 202 1562 L 414 1562 L 414 1836 L 202 1836 Z M 202 1562 " clip-rule="nonzero"/></clipPath><clipPath id="6787517ba0"><path d="M 272.433594 1562.316406 L 413.050781 1792.765625 L 342.636719 1835.734375 L 202.015625 1605.285156 Z M 272.433594 1562.316406 " clip-rule="nonzero"/></clipPath><clipPath id="fb851c91a9"><path d="M 0 0.183594 L 211.113281 0.183594 L 211.113281 273.746094 L 0 273.746094 Z M 0 0.183594 " clip-rule="nonzero"/></clipPath><clipPath id="c43d45ccc7"><path d="M 70.433594 0.316406 L 211.050781 230.765625 L 140.636719 273.734375 L 0.015625 43.285156 Z M 70.433594 0.316406 " clip-rule="nonzero"/></clipPath><clipPath id="65aedc9e08"><rect x="0" width="212" y="0" height="274"/></clipPath><clipPath id="699e4a29b9"><path d="M 657.738281 2454.421875 L 695.234375 2454.421875 L 695.234375 2529.972656 L 657.738281 2529.972656 Z M 657.738281 2454.421875 " clip-rule="nonzero"/></clipPath><clipPath id="eb0896187f"><path d="M 0.738281 0.421875 L 38.234375 0.421875 L 38.234375 75.972656 L 0.738281 75.972656 Z M 0.738281 0.421875 " clip-rule="nonzero"/></clipPath><clipPath id="2bad52e7d5"><rect x="0" width="39" y="0" height="76"/></clipPath><clipPath id="1c2b7f10b8"><path d="M 0.132812 0 L 3729.367188 0 L 3729.367188 3637 L 0.132812 3637 Z M 0.132812 0 " clip-rule="nonzero"/></clipPath></defs><path stroke-linecap="butt" transform="matrix(0.678172, 0.320044, -0.320044, 0.678172, 2210.601906, 1537.063184)" fill="none" stroke-linejoin="miter" d="M 0.000307073 30.002521 L 485.661433 29.998042 " stroke="#ffffff" stroke-width="60" stroke-opacity="1" stroke-miterlimit="4"/><path stroke-linecap="butt" transform="matrix(-0.673675, 0.329405, -0.329405, -0.673675, 2563.457454, 1900.407305)" fill="none" stroke-linejoin="miter" d="M -0.00221456 19.999239 L 528.257385 19.998802 " stroke="#ffffff" stroke-width="40" stroke-opacity="1" stroke-miterlimit="4"/><path stroke-linecap="butt" transform="matrix(0.005457, 0.749877, -0.749877, 0.005457, 2231.975383, 1583.426609)" fill="none" stroke-linejoin="miter" d="M 21.302948 112.593761 C 198.501744 29.135003 375.697477 29.132612 552.890072 112.597007 " stroke="#ffffff" stroke-width="100" stroke-opacity="1" stroke-miterlimit="4"/><path stroke-linecap="butt" transform="matrix(-0.586522, -0.467266, 0.467266, -0.586522, 2215.252683, 2132.736377)" fill="none" stroke-linejoin="miter" d="M 89.814274 480.194044 C 123.369714 -40.066667 156.924096 -40.065204 190.478248 480.191114 " stroke="#ffffff" stroke-width="180" stroke-opacity="1" stroke-miterlimit="4"/><path stroke-linecap="butt" transform="matrix(0.563576, -0.494699, 0.494699, 0.563576, 2048.045833, 1613.241453)" fill="none" stroke-linejoin="miter" d="M 89.813528 480.19544 C 123.36798 -40.063108 156.924038 -40.065613 190.478265 480.191842 " stroke="#ffffff" stroke-width="180" stroke-opacity="1" stroke-miterlimit="4"/><path stroke-linecap="butt" transform="matrix(-0.00159443, 0.749895, -0.749895, -0.00159443, 2632.391264, 1615.62039)" fill="none" stroke-linejoin="miter" d="M 78.146865 470.192109 C 192.160947 -50.065705 306.176889 -50.063301 420.194681 470.194112 " stroke="#ffffff" stroke-width="160" stroke-opacity="1" stroke-miterlimit="4"/><path stroke-linecap="butt" transform="matrix(0.563576, -0.494699, 0.494699, 0.563576, 2137.022263, 1694.474148)" fill="none" stroke-linejoin="miter" d="M 89.815619 480.193326 C 123.370071 -40.065223 156.922693 -40.063812 190.47692 480.193642 " stroke="#ffffff" stroke-width="180" stroke-opacity="1" stroke-miterlimit="4"/><g clip-path="url(#ff3d9d5b7b)"><g transform="matrix(1, 0, 0, 1, 2292, 1906)"><g clip-path="url(#0ea13957f8)"><g clip-path="url(#dc142bb0ff)"><path fill="#ffffff" d="M 0.707031 0.867188 L 63.820312 0.867188 L 63.820312 92.582031 L 0.707031 92.582031 Z M 0.707031 0.867188 " fill-opacity="1" fill-rule="nonzero"/></g></g></g></g><path stroke-linecap="butt" transform="matrix(0.749897, 0, 0, 0.749897, 874.781872, 397.316653)" fill="none" stroke-linejoin="miter" d="M -0.000829949 20.002421 L 860.956074 20.002421 " stroke="#ffffff" stroke-width="40" stroke-opacity="1" stroke-miterlimit="4"/><path stroke-linecap="butt" transform="matrix(0.749897, 0.000445752, -0.000445752, 0.749897, 889.63775, 3168.972026)" fill="none" stroke-linejoin="miter" d="M 0.0000944304 19.998384 L 841.157536 19.998454 " stroke="#ffffff" stroke-width="40" stroke-opacity="1" stroke-miterlimit="4"/><path stroke-linecap="butt" transform="matrix(0.749894, 0.00225308, -0.00225308, 0.749894, 896.900783, 3197.09316)" fill="none" stroke-linejoin="miter" d="M 0.00138187 1.500996 L 832.077862 1.501347 " stroke="#ffffff" stroke-width="3" stroke-opacity="1" stroke-miterlimit="4"/><path stroke-linecap="butt" transform="matrix(0.749897, 0, 0, 0.749897, 673.683835, 933.057952)" fill="none" stroke-linejoin="miter" d="M 1439.06731 784.317015 L 329.998171 784.317015 C 158.792343 784.317015 20.002429 645.527101 20.002429 474.316063 L 20.002429 329.999348 C 20.002429 158.793519 158.792343 19.998397 329.998171 19.998397 L 1129.123658 19.998397 " stroke="#ffffff" stroke-width="40" stroke-opacity="1" stroke-miterlimit="4"/><path stroke-linecap="butt" transform="matrix(0.749897, 0, 0, 0.749897, 669.585126, 2055.540839)" fill="none" stroke-linejoin="miter" d="M 1111.419502 784.318999 L 329.999574 784.318999 C 158.793746 784.318999 19.998623 645.523876 19.998623 474.318048 L 19.998623 330.001333 C 19.998623 158.790295 158.793746 20.000381 329.999574 20.000381 L 1444.533006 20.000381 " stroke="#ffffff" stroke-width="40" stroke-opacity="1" stroke-miterlimit="4"/><path stroke-linecap="butt" transform="matrix(-0.535726, 0.524732, -0.524732, -0.535726, 2101.679875, 1868.043651)" fill="none" stroke-linejoin="miter" d="M 13.768836 151.734614 C 198.796067 -23.910969 374.479385 -23.912638 540.811501 151.737051 " stroke="#ffffff" stroke-width="40" stroke-opacity="1" stroke-miterlimit="4"/><path stroke-linecap="butt" transform="matrix(0.539331, 0.521025, -0.521025, 0.539331, 1801.459578, 1434.62866)" fill="none" stroke-linejoin="miter" d="M 13.932912 147.090906 C 188.439759 -22.362061 362.946254 -22.362867 537.452398 147.088487 " stroke="#ffffff" stroke-width="40" stroke-opacity="1" stroke-miterlimit="4"/><path stroke-linecap="butt" transform="matrix(0, -0.749897, 0.749897, 0, 1465.330354, 962.343885)" fill="none" stroke-linejoin="miter" d="M 0.000180467 36.502046 L 733.476017 36.502046 " stroke="#ffffff" stroke-width="73" stroke-opacity="1" stroke-miterlimit="4"/><path stroke-linecap="butt" transform="matrix(0.0021852, -0.749894, 0.749894, 0.0021852, 1491.03238, 3200.946238)" fill="none" stroke-linejoin="miter" d="M 0.00221843 20.00132 L 763.339526 20.001217 " stroke="#ffffff" stroke-width="40" stroke-opacity="1" stroke-miterlimit="4"/><g clip-path="url(#de86b98c01)"><path stroke-linecap="butt" transform="matrix(-0.204776, -0.721396, 0.721396, -0.204776, 243.969768, 1850.217294)" fill="none" stroke-linejoin="miter" d="M 8.762738 138.896866 C 334.024943 -19.633013 659.284152 -19.633205 984.540364 138.896287 " stroke="#ffffff" stroke-width="40" stroke-opacity="1" stroke-miterlimit="4"/></g><g clip-path="url(#729b8d1446)"><path stroke-linecap="butt" transform="matrix(0.203031, -0.721889, 0.721889, 0.203031, 25.023879, 1396.201256)" fill="none" stroke-linejoin="miter" d="M 9.327067 160.192262 C 363.901779 -26.727156 718.477587 -26.729506 1073.055902 160.190228 " stroke="#ffffff" stroke-width="40" stroke-opacity="1" stroke-miterlimit="4"/></g><path stroke-linecap="butt" transform="matrix(0.667254, -0.342225, 0.342225, 0.667254, 253.375863, 631.494008)" fill="none" stroke-linejoin="miter" d="M 9.045837 132.926116 C 305.907211 -17.639198 602.769037 -17.639609 899.631316 132.924883 " stroke="#ffffff" stroke-width="40" stroke-opacity="1" stroke-miterlimit="4"/><path stroke-linecap="butt" transform="matrix(-0.683847, -0.307733, 0.307733, -0.683847, 872.96309, 3256.587411)" fill="none" stroke-linejoin="miter" d="M 7.697841 102.184761 C 270.48848 -7.39488 552.205741 -7.398067 852.853897 102.184699 " stroke="#ffffff" stroke-width="40" stroke-opacity="1" stroke-miterlimit="4"/><g clip-path="url(#2007ec4776)"><path stroke-linecap="butt" transform="matrix(-0.388117, -0.641646, 0.641646, -0.388117, 418.359805, 3151.185888)" fill="none" stroke-linejoin="miter" d="M 10.002454 172.674149 C 362.529606 -30.888979 715.055488 -30.893306 1067.583624 172.675476 " stroke="#ffffff" stroke-width="40" stroke-opacity="1" stroke-miterlimit="4"/></g><g clip-path="url(#b76d8e4d2e)"><path stroke-linecap="butt" transform="matrix(0.276628, -0.697009, 0.697009, 0.276628, 33.353833, 2394.678889)" fill="none" stroke-linejoin="miter" d="M 7.681166 112.766728 C 304.976283 -10.923075 604.609951 -10.923767 906.577326 112.766573 " stroke="#ffffff" stroke-width="40" stroke-opacity="1" stroke-miterlimit="4"/></g><path stroke-linecap="butt" transform="matrix(0.749897, -0.000000000000000186, 0.000000000000000186, 0.749897, 910.099088, 422.523301)" fill="none" stroke-linejoin="miter" d="M -0.00190979 350.001425 L 769.426786 350.001425 " stroke="#ffffff" stroke-width="700" stroke-opacity="1" stroke-miterlimit="4"/><g clip-path="url(#b34d171364)"><path stroke-linecap="butt" transform="matrix(0.220985, -0.716597, 0.716597, 0.220985, 46.256436, 1384.892115)" fill="none" stroke-linejoin="miter" d="M 160.995196 456.179131 C 417.471246 327.939653 673.947115 327.943086 930.424709 456.177941 " stroke="#ffffff" stroke-width="720" stroke-opacity="1" stroke-miterlimit="4"/></g><g clip-path="url(#204547d1ec)"><path stroke-linecap="butt" transform="matrix(0.711645, -0.236447, 0.236447, 0.711645, 292.707252, 584.954423)" fill="none" stroke-linejoin="miter" d="M 158.758858 451.179761 C 415.235781 322.942762 671.712116 322.940638 928.18622 451.178332 " stroke="#ffffff" stroke-width="710" stroke-opacity="1" stroke-miterlimit="4"/><path stroke-linecap="butt" transform="matrix(-0.478729, -0.577203, 0.577203, -0.478729, 582.855915, 2082.01899)" fill="none" stroke-linejoin="miter" d="M 158.760243 451.17665 C 415.236173 322.940608 671.711334 322.942148 928.18905 451.177257 " stroke="#ffffff" stroke-width="710" stroke-opacity="1" stroke-miterlimit="4"/><path stroke-linecap="butt" transform="matrix(-0.507797, -0.551804, 0.551804, -0.507797, 600.321194, 3217.717196)" fill="none" stroke-linejoin="miter" d="M 133.102776 475.270542 C 508.519049 328.242912 768.504176 328.243052 913.050797 475.271267 " stroke="#ffffff" stroke-width="730" stroke-opacity="1" stroke-miterlimit="4"/></g><g clip-path="url(#12e949f433)"><path stroke-linecap="butt" transform="matrix(0.050332, -0.748206, 0.748206, 0.050332, 104.291921, 2647.340245)" fill="none" stroke-linejoin="miter" d="M 137.03581 426.063811 C 351.021668 337.977008 565.012642 337.975578 778.998689 426.065417 " stroke="#ffffff" stroke-width="720" stroke-opacity="1" stroke-miterlimit="4"/></g><g clip-path="url(#3e6df93c26)"><path stroke-linecap="butt" transform="matrix(0.471763, -0.58291, 0.58291, 0.471763, 84.407953, 2118.561454)" fill="none" stroke-linejoin="miter" d="M 146.185158 443.662516 C 397.221742 332.112573 648.258355 332.112222 899.294999 443.661464 " stroke="#ffffff" stroke-width="720" stroke-opacity="1" stroke-miterlimit="4"/><path stroke-linecap="butt" transform="matrix(-0.74033, -0.119402, 0.119402, -0.74033, 1168.540626, 3226.890559)" fill="none" stroke-linejoin="miter" d="M 119.165068 418.370605 C 356.27055 333.877128 593.374861 333.879518 830.482312 418.371802 " stroke="#ffffff" stroke-width="710" stroke-opacity="1" stroke-miterlimit="4"/><path stroke-linecap="butt" transform="matrix(0.749897, 0.000375526, -0.000375526, 0.749897, 1006.011597, 2654.70164)" fill="none" stroke-linejoin="miter" d="M -0.00167656 349.99807 L 651.702607 349.999886 " stroke="#ffffff" stroke-width="700" stroke-opacity="1" stroke-miterlimit="4"/></g><path stroke-linecap="butt" transform="matrix(0.749897, -0.000000000000000372, 0.000000000000000372, 0.749897, 381.341695, 1534.985381)" fill="none" stroke-linejoin="miter" d="M -0.00246914 355.000588 L 1822.878344 355.000588 " stroke="#ffffff" stroke-width="710" stroke-opacity="1" stroke-miterlimit="4"/><g clip-path="url(#45a452d259)"><g clip-path="url(#fa57f11239)"><g transform="matrix(1, 0, 0, 1, 1730, 1518)"><g clip-path="url(#57c2d86ecd)"><g clip-path="url(#7abc068b38)"><g clip-path="url(#7d69d75be3)"><path fill="#ffffff" d="M 294.042969 0.613281 L 294.042969 558.859375 L 0.589844 558.859375 L 0.589844 0.613281 Z M 294.042969 0.613281 " fill-opacity="1" fill-rule="nonzero"/></g></g></g></g></g></g><g clip-path="url(#683823c52b)"><g transform="matrix(1, 0, 0, 1, 637, 2265)"><g clip-path="url(#74b8fc2c3f)"><g clip-path="url(#ac23790bae)"><path fill="#ffffff" d="M 0.597656 0.789062 L 40.882812 0.789062 L 40.882812 186.011719 L 0.597656 186.011719 Z M 0.597656 0.789062 " fill-opacity="1" fill-rule="nonzero"/></g></g></g></g><g clip-path="url(#fdb920f637)"><g transform="matrix(1, 0, 0, 1, 637, 1181)"><g clip-path="url(#aa29e0f789)"><g clip-path="url(#6d0f46a106)"><path fill="#ffffff" d="M 0.597656 0.367188 L 40.882812 0.367188 L 40.882812 185.589844 L 0.597656 185.589844 Z M 0.597656 0.367188 " fill-opacity="1" fill-rule="nonzero"/></g></g></g></g><g clip-path="url(#a9a06311cf)"><g transform="matrix(1, 0, 0, 1, 829, 1521)"><g clip-path="url(#851010f850)"><g clip-path="url(#cad08350f1)"><path fill="#ffffff" d="M 0.460938 0.0742188 L 99.382812 0.0742188 L 99.382812 82.5625 L 0.460938 82.5625 Z M 0.460938 0.0742188 " fill-opacity="1" fill-rule="nonzero"/></g></g></g></g><g clip-path="url(#d7a80f3486)"><g transform="matrix(1, 0, 0, 1, 121, 2450)"><g clip-path="url(#2e16fed97c)"><g clip-path="url(#fa3cc0eaf9)"><path fill="#ffffff" d="M 0.554688 0.953125 L 99.476562 0.953125 L 99.476562 83.441406 L 0.554688 83.441406 Z M 0.554688 0.953125 " fill-opacity="1" fill-rule="nonzero"/></g></g></g></g><g clip-path="url(#1da8e34512)"><g clip-path="url(#6787517ba0)"><g transform="matrix(1, 0, 0, 1, 202, 1562)"><g clip-path="url(#65aedc9e08)"><g clip-path="url(#fb851c91a9)"><g clip-path="url(#c43d45ccc7)"><path fill="#ffffff" d="M 70.433594 0.316406 L 211.082031 230.816406 L 140.667969 273.78125 L 0.015625 43.285156 Z M 70.433594 0.316406 " fill-opacity="1" fill-rule="nonzero"/></g></g></g></g></g></g><g clip-path="url(#699e4a29b9)"><g transform="matrix(1, 0, 0, 1, 657, 2454)"><g clip-path="url(#2bad52e7d5)"><g clip-path="url(#eb0896187f)"><path fill="#ffffff" d="M 0.738281 0.421875 L 38.234375 0.421875 L 38.234375 76 L 0.738281 76 Z M 0.738281 0.421875 " fill-opacity="1" fill-rule="nonzero"/></g></g></g></g><path stroke-linecap="butt" transform="matrix(0.000983518, -0.749896, 0.749896, 0.000983518, 1695.816671, 3199.657351)" fill="none" stroke-linejoin="miter" d="M -0.00239158 5.000341 L 762.46244 5.000478 " stroke="#ffffff" stroke-width="10" stroke-opacity="1" stroke-miterlimit="4"/><path stroke-linecap="butt" transform="matrix(0, -0.749897, 0.749897, 0, 1697.318577, 963.381791)" fill="none" stroke-linejoin="miter" d="M -0.00136269 4.997793 L 757.050631 4.997793 " stroke="#ffffff" stroke-width="10" stroke-opacity="1" stroke-miterlimit="4"/><path stroke-linecap="butt" transform="matrix(0.559803, 0.498965, -0.498965, 0.559803, 2053.624826, 0.00222803)" fill="none" stroke-linejoin="miter" d="M 3.246597 710.222521 C 1105.219747 -230.073427 2060.885448 -230.072669 2870.240234 710.220906 " stroke="#ffffff" stroke-width="10" stroke-opacity="1" stroke-miterlimit="4"/><path stroke-linecap="butt" transform="matrix(-0.571045, 0.486059, -0.486059, -0.571045, 3645.035637, 2222.047225)" fill="none" stroke-linejoin="miter" d="M 3.838004 692.970741 C 769.025534 -224.32343 1706.751593 -224.322006 2817.019555 692.971047 " stroke="#ffffff" stroke-width="10" stroke-opacity="1" stroke-miterlimit="4"/><path stroke-linecap="butt" transform="matrix(0.591243, -0.461278, 0.461278, 0.591243, 1697.451686, 2630.348277)" fill="none" stroke-linejoin="miter" d="M 3.011347 3.99346 C 724.568839 548.230407 1304.924549 548.234161 1744.08078 3.993304 " stroke="#ffffff" stroke-width="10" stroke-opacity="1" stroke-miterlimit="4"/><path stroke-linecap="butt" transform="matrix(0.573034, 0.483712, -0.483712, 0.573034, 1918.906197, 696.95216)" fill="none" stroke-linejoin="miter" d="M 3.183712 457.222501 C 733.7042 -145.740261 1333.370723 -145.73972 1802.194599 457.221384 " stroke="#ffffff" stroke-width="10" stroke-opacity="1" stroke-miterlimit="4"/><g clip-path="url(#1c2b7f10b8)"><path stroke-linecap="butt" transform="matrix(0.585119, 0.469021, -0.469021, 0.585119, 1981.480761, 85.55479)" fill="none" stroke-linejoin="miter" d="M 156.068542 792.572708 C 1061.368629 69.144232 1831.768648 69.141474 2467.275117 792.57256 " stroke="#ffffff" stroke-width="500" stroke-opacity="1" stroke-miterlimit="4"/><path stroke-linecap="butt" transform="matrix(0.568555, 0.488969, -0.488969, 0.568555, 1984.148043, 257.573953)" fill="none" stroke-linejoin="miter" d="M 162.926006 766.846795 C 964.955877 77.717354 1684.136704 77.71622 2320.468486 766.843395 " stroke="#ffffff" stroke-width="500" stroke-opacity="1" stroke-miterlimit="4"/><path stroke-linecap="butt" transform="matrix(0.568555, 0.488969, -0.488969, 0.568555, 2009.779063, 43.432952)" fill="none" stroke-linejoin="miter" d="M 166.310552 819.230345 C 1018.110432 60.255483 1737.291259 60.25435 2323.856429 819.230895 " stroke="#ffffff" stroke-width="500" stroke-opacity="1" stroke-miterlimit="4"/><path stroke-linecap="butt" transform="matrix(-0.502045, 0.557042, -0.557042, -0.502045, 3667.359359, 1839.344149)" fill="none" stroke-linejoin="miter" d="M 192.008242 1000.074143 C 1025.910044 -0.0248911 1897.555277 -0.024139 2806.940454 1000.072529 " stroke="#ffffff" stroke-width="500" stroke-opacity="1" stroke-miterlimit="4"/><path stroke-linecap="butt" transform="matrix(-0.488521, 0.56894, -0.56894, -0.488521, 3574.866837, 1758.425715)" fill="none" stroke-linejoin="miter" d="M 187.354994 975.224349 C 1041.656769 8.258284 1879.542402 8.256981 2701.000595 975.223274 " stroke="#ffffff" stroke-width="500" stroke-opacity="1" stroke-miterlimit="4"/><path stroke-linecap="butt" transform="matrix(-0.510921, 0.548913, -0.548913, -0.510921, 3728.664138, 1972.321721)" fill="none" stroke-linejoin="miter" d="M 203.195187 1041.048851 C 959.17458 -13.683831 1841.81603 -13.681637 2851.112439 1041.047808 " stroke="#ffffff" stroke-width="500" stroke-opacity="1" stroke-miterlimit="4"/></g><path stroke-linecap="butt" transform="matrix(-0.618113, 0.424595, -0.424595, -0.618113, 2881.328908, 2228.411054)" fill="none" stroke-linejoin="miter" d="M 32.422104 289.713502 C 407.676762 -29.902999 877.276803 -29.903955 1441.219277 289.714927 " stroke="#ffffff" stroke-width="100" stroke-opacity="1" stroke-miterlimit="4"/><path stroke-linecap="butt" transform="matrix(-0.0427564, 0.748677, -0.748677, -0.0427564, 2813.065806, 1675.593616)" fill="none" stroke-linejoin="miter" d="M 10.557966 68.293817 C 123.470789 43.902338 304.331307 43.899031 553.140112 68.294298 " stroke="#ffffff" stroke-width="100" stroke-opacity="1" stroke-miterlimit="4"/><path stroke-linecap="butt" transform="matrix(0.491259, 0.566578, -0.566578, 0.491259, 2639.436551, 444.933075)" fill="none" stroke-linejoin="miter" d="M 23.637467 245.301409 C 509.054975 -15.10116 994.472471 -15.099716 1479.893368 245.301807 " stroke="#ffffff" stroke-width="100" stroke-opacity="1" stroke-miterlimit="4"/><path stroke-linecap="butt" transform="matrix(-0.0456996, 0.748503, -0.748503, -0.0456996, 3339.279709, 1386.977764)" fill="none" stroke-linejoin="miter" d="M 11.131707 146.706222 C 575.714381 17.766036 1043.314178 17.763466 1413.931416 146.703712 " stroke="#ffffff" stroke-width="100" stroke-opacity="1" stroke-miterlimit="4"/></svg>